SplineFontDB: 3.0
FontName: Montreal-Bold
FullName: Montreal Bold
FamilyName: Montreal
Weight: Bold
Copyright: Copyright (c) 2011-2012, Julieta Ulanovsky (julieta.ulanovsky@gmail.com), with Reserved Font Names 'Montserrat' & 2014 usr_share.
Version: 2.001
ItalicAngle: 0
UnderlinePosition: -100
UnderlineWidth: 50
Ascent: 800
Descent: 200
InvalidEm: 0
sfntRevision: 0x00020042
LayerCount: 2
Layer: 0 1 "Back" 1
Layer: 1 1 "Fore" 0
XUID: [1021 747 701357385 876984]
StyleMap: 0x0000
FSType: 0
OS2Version: 3
OS2_WeightWidthSlopeOnly: 0
OS2_UseTypoMetrics: 1
CreationTime: 1321826100
ModificationTime: 1435170810
PfmFamily: 17
TTFWeight: 700
TTFWidth: 5
LineGap: 0
VLineGap: 0
Panose: 2 0 5 5 0 0 0 2 0 4
OS2TypoAscent: 968
OS2TypoAOffset: 0
OS2TypoDescent: -251
OS2TypoDOffset: 0
OS2TypoLinegap: 0
OS2WinAscent: 968
OS2WinAOffset: 0
OS2WinDescent: 251
OS2WinDOffset: 0
HheadAscent: 968
HheadAOffset: 0
HheadDescent: -251
HheadDOffset: 0
OS2SubXSize: 650
OS2SubYSize: 600
OS2SubXOff: 0
OS2SubYOff: 75
OS2SupXSize: 650
OS2SupYSize: 600
OS2SupXOff: 0
OS2SupYOff: 350
OS2StrikeYSize: 50
OS2StrikeYPos: 306
OS2CapHeight: 699
OS2XHeight: 538
OS2Vendor: 'pyrs'
OS2CodePages: 00000001.00000000
OS2UnicodeRanges: 8000002f.4000204a.00000000.00000000
Lookup: 258 0 0 "'kern' Horizontal Kerning in Latin lookup 0" { "'kern' Horizontal Kerning in Latin lookup 0 subtable"  } ['kern' ('DFLT' <'dflt' > 'latn' <'dflt' > ) ]
MarkAttachClasses: 1
DEI: 91125
TtTable: prep
PUSHW_1
 511
SCANCTRL
PUSHB_1
 4
SCANTYPE
EndTTInstrs
ShortTable: maxp 16
  1
  0
  263
  52
  7
  0
  0
  2
  0
  1
  1
  0
  64
  0
  0
  0
EndShort
LangName: 1033 "" "" "" "FontForge : Montreal Bold : 18-10-2014" "" "Version 2.001" "" "Montserrat is a trademark of Julieta Ulanovsky." "Julieta Ulanovsky, usr_local_share" "Julieta Ulanovsky, usr_local_share" "" "" "" "This Font Software is licensed under the SIL Open Font License, Version 1.1. This license is available with a FAQ at: http://scripts.sil.org/OFL" "http://scripts.sil.org/OFL"

StartChar: exclam
Encoding: 33 33 6
Width: 315
Flags: W
LayerCount: 2
Back
Fore
SplineSet
69 699 m 1,0,-1
 246 699 l 1,1,-1
 246 575 l 1,2,-1
 216 215 l 1,3,-1
 98 215 l 1,4,-1
 69 575 l 1,5,-1
 69 699 l 1,0,-1
69 80 m 128,-1,7
 69 117 69 117 94.5 142.5 c 128,-1,8
 120 168 120 168 157 168 c 128,-1,9
 194 168 194 168 219.5 142.5 c 128,-1,10
 245 117 245 117 245 80 c 128,-1,11
 245 43 245 43 219.5 17.5 c 128,-1,12
 194 -8 194 -8 157 -8 c 128,-1,13
 120 -8 120 -8 94.5 17.5 c 128,-1,6
 69 43 69 43 69 80 c 128,-1,7
EndSplineSet
EndChar

StartChar: quotedbl
Encoding: 34 34 7
Width: 433
Flags: W
LayerCount: 2
Back
Fore
SplineSet
71 431 m 1,0,-1
 71 699 l 1,1,-1
 190 699 l 1,2,-1
 190 431 l 1,3,-1
 71 431 l 1,0,-1
243 431 m 1,4,-1
 243 699 l 1,5,-1
 362 699 l 1,6,-1
 362 431 l 1,7,-1
 243 431 l 1,4,-1
EndSplineSet
EndChar

StartChar: numbersign
Encoding: 35 35 8
Width: 747
Flags: W
LayerCount: 2
Back
Fore
SplineSet
677 415 m 1,0,-1
 576 415 l 1,1,-1
 555 290 l 1,2,-1
 670 290 l 1,3,-1
 643 152 l 1,4,-1
 532 152 l 1,5,-1
 506 0 l 1,6,-1
 356 0 l 1,7,-1
 382 152 l 1,8,-1
 291 152 l 1,9,-1
 265 0 l 1,10,-1
 114 0 l 1,11,-1
 140 152 l 1,12,-1
 44 152 l 1,13,-1
 71 290 l 1,14,-1
 164 290 l 1,15,-1
 185 415 l 1,16,-1
 78 415 l 1,17,-1
 105 553 l 1,18,-1
 208 553 l 1,19,-1
 235 715 l 1,20,-1
 386 715 l 1,21,-1
 359 553 l 1,22,-1
 449 553 l 1,23,-1
 476 715 l 1,24,-1
 628 715 l 1,25,-1
 599 553 l 1,26,-1
 704 553 l 1,27,-1
 677 415 l 1,0,-1
427 415 m 1,28,-1
 336 415 l 1,29,-1
 314 290 l 1,30,-1
 405 290 l 1,31,32
 418 370 418 370 427 415 c 1,28,-1
EndSplineSet
EndChar

StartChar: dollar
Encoding: 36 36 9
Width: 635
Flags: W
LayerCount: 2
Back
Fore
SplineSet
270 -69 m 1,0,-1
 270 4 l 1,1,2
 143 24 143 24 36 119 c 1,3,-1
 129 232 l 1,4,5
 207 164 207 164 270 145 c 1,6,-1
 270 294 l 1,7,8
 165 321 165 321 116 366.5 c 128,-1,9
 67 412 67 412 67 497.5 c 128,-1,10
 67 583 67 583 123 638.5 c 128,-1,11
 179 694 179 694 270 705 c 1,12,-1
 270 754 l 1,13,-1
 376 754 l 1,14,-1
 376 703 l 1,15,16
 476 689 476 689 575 620 c 1,17,-1
 493 502 l 1,18,19
 430 547 430 547 376 562 c 1,20,-1
 376 418 l 1,21,22
 484 390 484 390 535.5 343 c 128,-1,23
 587 296 587 296 587 210 c 128,-1,24
 587 124 587 124 529.5 68 c 128,-1,25
 472 12 472 12 376 1 c 1,26,-1
 376 -69 l 1,27,-1
 270 -69 l 1,0,-1
427 202 m 0,28,29
 427 223 427 223 416 237 c 128,-1,30
 405 251 405 251 376 263 c 1,31,-1
 376 140 l 1,32,33
 427 156 427 156 427 202 c 0,28,29
270 566 m 1,34,35
 227 551 227 551 227 511 c 128,-1,36
 227 471 227 471 270 450 c 1,37,-1
 270 566 l 1,34,35
EndSplineSet
EndChar

StartChar: percent
Encoding: 37 37 10
Width: 819
Flags: W
LayerCount: 2
Back
Fore
SplineSet
743 699 m 1,0,-1
 242 0 l 1,1,-1
 70 0 l 1,2,-1
 572 699 l 1,3,-1
 743 699 l 1,0,-1
605 83 m 128,-1,5
 623 83 623 83 635 96.5 c 128,-1,6
 647 110 647 110 647 132 c 128,-1,7
 647 154 647 154 635 168.5 c 128,-1,8
 623 183 623 183 605.5 183 c 128,-1,9
 588 183 588 183 576 168.5 c 128,-1,10
 564 154 564 154 564 132 c 128,-1,11
 564 110 564 110 575.5 96.5 c 128,-1,4
 587 83 587 83 605 83 c 128,-1,5
711 32.5 m 128,-1,13
 669 -8 669 -8 605.5 -8 c 128,-1,14
 542 -8 542 -8 500 33 c 128,-1,15
 458 74 458 74 458 132.5 c 128,-1,16
 458 191 458 191 500 232 c 128,-1,17
 542 273 542 273 605.5 273 c 128,-1,18
 669 273 669 273 711 232 c 128,-1,19
 753 191 753 191 753 132 c 128,-1,12
 753 73 753 73 711 32.5 c 128,-1,13
211 492 m 128,-1,21
 229 492 229 492 241 505.5 c 128,-1,22
 253 519 253 519 253 541 c 128,-1,23
 253 563 253 563 241 577.5 c 128,-1,24
 229 592 229 592 211.5 592 c 128,-1,25
 194 592 194 592 182 577.5 c 128,-1,26
 170 563 170 563 170 541 c 128,-1,27
 170 519 170 519 181.5 505.5 c 128,-1,20
 193 492 193 492 211 492 c 128,-1,21
317 441.5 m 128,-1,29
 275 401 275 401 211.5 401 c 128,-1,30
 148 401 148 401 106 442 c 128,-1,31
 64 483 64 483 64 541.5 c 128,-1,32
 64 600 64 600 106 641 c 128,-1,33
 148 682 148 682 211.5 682 c 128,-1,34
 275 682 275 682 317 641 c 128,-1,35
 359 600 359 600 359 541 c 128,-1,28
 359 482 359 482 317 441.5 c 128,-1,29
EndSplineSet
EndChar

StartChar: ampersand
Encoding: 38 38 11
Width: 700
Flags: W
LayerCount: 2
Back
Fore
SplineSet
494 60 m 1,0,1
 410 -8 410 -8 299.5 -8 c 128,-1,2
 189 -8 189 -8 118 48.5 c 128,-1,3
 47 105 47 105 47 203 c 0,4,5
 47 313 47 313 194 398 c 1,6,7
 161 438 161 438 146 468.5 c 128,-1,8
 131 499 131 499 131 540 c 0,9,10
 131 625 131 625 192.5 670 c 128,-1,11
 254 715 254 715 338 715 c 128,-1,12
 422 715 422 715 481.5 671.5 c 128,-1,13
 541 628 541 628 541 550 c 0,14,15
 541 452 541 452 398 368 c 1,16,17
 454 298 454 298 482 267 c 1,18,19
 507 313 507 313 520 364 c 1,20,-1
 637 280 l 1,21,22
 614 217 614 217 581 163 c 1,23,-1
 680 65 l 1,24,-1
 581 -29 l 1,25,-1
 494 60 l 1,0,1
225 140 m 128,-1,27
 254 117 254 117 300 117 c 128,-1,28
 346 117 346 117 399 161 c 1,29,30
 326 238 326 238 273 301 c 1,31,32
 196 253 196 253 196 198 c 0,33,26
 196 163 196 163 225 140 c 128,-1,27
298.5 581.5 m 128,-1,35
 281 566 281 566 281 539.5 c 128,-1,36
 281 513 281 513 321 463 c 1,37,38
 396 503 396 503 396 538 c 0,39,40
 396 567 396 567 378 582 c 128,-1,41
 360 597 360 597 338 597 c 128,-1,34
 316 597 316 597 298.5 581.5 c 128,-1,35
EndSplineSet
EndChar

StartChar: quotesingle
Encoding: 39 39 12
Width: 261
Flags: W
LayerCount: 2
Back
Fore
SplineSet
71 431 m 1,0,-1
 71 699 l 1,1,-1
 190 699 l 1,2,-1
 190 431 l 1,3,-1
 71 431 l 1,0,-1
EndSplineSet
EndChar

StartChar: parenleft
Encoding: 40 40 13
Width: 362
Flags: W
LayerCount: 2
Back
Fore
SplineSet
235.5 544.5 m 128,-1,1
 194 421 194 421 194 313.5 c 128,-1,2
 194 206 194 206 235.5 82 c 128,-1,3
 277 -42 277 -42 337 -127 c 1,4,-1
 175 -127 l 1,5,6
 126 -58 126 -58 85.5 67.5 c 128,-1,7
 45 193 45 193 45 313 c 128,-1,8
 45 433 45 433 85.5 559 c 128,-1,9
 126 685 126 685 175 754 c 1,10,-1
 337 754 l 1,11,0
 277 668 277 668 235.5 544.5 c 128,-1,1
EndSplineSet
EndChar

StartChar: parenright
Encoding: 41 41 14
Width: 362
Flags: W
LayerCount: 2
Back
Fore
SplineSet
126.5 82 m 128,-1,1
 168 206 168 206 168 313.5 c 128,-1,2
 168 421 168 421 126.5 544.5 c 128,-1,3
 85 668 85 668 25 754 c 1,4,-1
 187 754 l 1,5,6
 236 685 236 685 276.5 559 c 128,-1,7
 317 433 317 433 317 313 c 128,-1,8
 317 193 317 193 276.5 67.5 c 128,-1,9
 236 -58 236 -58 187 -127 c 1,10,-1
 25 -127 l 1,11,0
 85 -42 85 -42 126.5 82 c 128,-1,1
EndSplineSet
EndChar

StartChar: asterisk
Encoding: 42 42 15
Width: 456
Flags: W
LayerCount: 2
Back
Fore
SplineSet
278 447 m 1,0,-1
 284 363 l 1,1,-1
 172 363 l 1,2,-1
 178 447 l 1,3,-1
 107 398 l 1,4,-1
 56 489 l 1,5,-1
 140 531 l 1,6,-1
 55 573 l 1,7,-1
 107 662 l 1,8,-1
 178 615 l 1,9,-1
 172 699 l 1,10,-1
 284 699 l 1,11,-1
 278 615 l 1,12,-1
 349 662 l 1,13,-1
 401 573 l 1,14,-1
 316 531 l 1,15,-1
 400 489 l 1,16,-1
 349 398 l 1,17,-1
 278 447 l 1,0,-1
EndSplineSet
EndChar

StartChar: plus
Encoding: 43 43 16
Width: 584
Flags: W
LayerCount: 2
Back
Fore
SplineSet
223 109 m 1,0,-1
 223 289 l 1,1,-1
 48 289 l 1,2,-1
 48 412 l 1,3,-1
 223 412 l 1,4,-1
 223 592 l 1,5,-1
 361 592 l 1,6,-1
 361 412 l 1,7,-1
 536 412 l 1,8,-1
 536 289 l 1,9,-1
 361 289 l 1,10,-1
 361 109 l 1,11,-1
 223 109 l 1,0,-1
EndSplineSet
EndChar

StartChar: comma
Encoding: 44 44 17
Width: 297
Flags: W
LayerCount: 2
Back
Fore
SplineSet
91 12 m 1,0,1
 56 37 56 37 56 77 c 128,-1,2
 56 117 56 117 83 142.5 c 128,-1,3
 110 168 110 168 148 168 c 128,-1,4
 186 168 186 168 213.5 143 c 128,-1,5
 241 118 241 118 241 84.5 c 128,-1,6
 241 51 241 51 212 4 c 2,7,-1
 152 -99 l 1,8,-1
 53 -99 l 1,9,-1
 91 12 l 1,0,1
EndSplineSet
EndChar

StartChar: hyphen
Encoding: 45 45 18
Width: 490
Flags: W
LayerCount: 2
Back
Fore
SplineSet
67 234 m 1,0,-1
 67 367 l 1,1,-1
 423 367 l 1,2,-1
 423 234 l 1,3,-1
 67 234 l 1,0,-1
EndSplineSet
EndChar

StartChar: period
Encoding: 46 46 19
Width: 288
Flags: W
LayerCount: 2
Back
Fore
SplineSet
56 80 m 128,-1,1
 56 117 56 117 81.5 142.5 c 128,-1,2
 107 168 107 168 144 168 c 128,-1,3
 181 168 181 168 206.5 142.5 c 128,-1,4
 232 117 232 117 232 80 c 128,-1,5
 232 43 232 43 206.5 17.5 c 128,-1,6
 181 -8 181 -8 144 -8 c 128,-1,7
 107 -8 107 -8 81.5 17.5 c 128,-1,0
 56 43 56 43 56 80 c 128,-1,1
EndSplineSet
EndChar

StartChar: slash
Encoding: 47 47 20
Width: 614
Flags: W
LayerCount: 2
Back
Fore
SplineSet
446 805 m 1,0,-1
 588 805 l 1,1,-1
 168 -112 l 1,2,-1
 27 -112 l 1,3,-1
 446 805 l 1,0,-1
EndSplineSet
EndChar

StartChar: zero
Encoding: 48 48 21
Width: 690
Flags: W
LayerCount: 2
Back
Fore
SplineSet
209 353 m 128,-1,1
 209 248 209 248 242 184 c 128,-1,2
 275 120 275 120 345 120 c 128,-1,3
 415 120 415 120 448 184 c 128,-1,4
 481 248 481 248 481 353 c 128,-1,5
 481 458 481 458 448 522 c 128,-1,6
 415 586 415 586 345 586 c 128,-1,7
 275 586 275 586 242 522 c 128,-1,0
 209 458 209 458 209 353 c 128,-1,1
128 90.5 m 128,-1,9
 56 189 56 189 56 353.5 c 128,-1,10
 56 518 56 518 128 616.5 c 128,-1,11
 200 715 200 715 345 715 c 128,-1,12
 490 715 490 715 562 616.5 c 128,-1,13
 634 518 634 518 634 353.5 c 128,-1,14
 634 189 634 189 562 90.5 c 128,-1,15
 490 -8 490 -8 345 -8 c 128,-1,8
 200 -8 200 -8 128 90.5 c 128,-1,9
EndSplineSet
EndChar

StartChar: one
Encoding: 49 49 22
Width: 403
Flags: W
LayerCount: 2
Back
Fore
SplineSet
31 699 m 1,0,-1
 314 699 l 1,1,-1
 314 0 l 1,2,-1
 164 0 l 1,3,-1
 164 566 l 1,4,-1
 31 566 l 1,5,-1
 31 699 l 1,0,-1
EndSplineSet
EndChar

StartChar: two
Encoding: 50 50 23
Width: 605
Flags: W
LayerCount: 2
Back
Fore
SplineSet
351.5 426.5 m 128,-1,1
 378 464 378 464 378 499 c 128,-1,2
 378 534 378 534 355 557.5 c 128,-1,3
 332 581 332 581 296 581 c 0,4,5
 230 581 230 581 171 487 c 1,6,-1
 46 561 l 1,7,8
 95 637 95 637 153.5 676 c 128,-1,9
 212 715 212 715 302.5 715 c 128,-1,10
 393 715 393 715 461.5 657.5 c 128,-1,11
 530 600 530 600 530 501 c 0,12,13
 530 447 530 447 502.5 397.5 c 128,-1,14
 475 348 475 348 401 271 c 2,15,-1
 275 140 l 1,16,-1
 551 140 l 1,17,-1
 551 0 l 1,18,-1
 58 0 l 1,19,-1
 58 116 l 1,20,-1
 263 326 l 2,21,0
 325 389 325 389 351.5 426.5 c 128,-1,1
EndSplineSet
EndChar

StartChar: three
Encoding: 51 51 24
Width: 591
Flags: W
LayerCount: 2
Back
Fore
SplineSet
75 566 m 1,0,-1
 75 699 l 1,1,-1
 503 699 l 1,2,-1
 503 591 l 1,3,-1
 360 428 l 1,4,5
 444 414 444 414 490 357.5 c 128,-1,6
 536 301 536 301 536 227 c 0,7,8
 536 117 536 117 461.5 54.5 c 128,-1,9
 387 -8 387 -8 271 -8 c 128,-1,10
 155 -8 155 -8 36 74 c 1,11,-1
 100 198 l 1,12,13
 199 128 199 128 277 128 c 0,14,15
 324 128 324 128 354.5 151 c 128,-1,16
 385 174 385 174 385 217.5 c 128,-1,17
 385 261 385 261 350 286.5 c 128,-1,18
 315 312 315 312 253 312 c 0,19,20
 220 312 220 312 160 293 c 1,21,-1
 160 408 l 1,22,-1
 294 566 l 1,23,-1
 75 566 l 1,0,-1
EndSplineSet
EndChar

StartChar: four
Encoding: 52 52 25
Width: 588
Flags: W
LayerCount: 2
Back
Fore
SplineSet
317 302 m 1,0,-1
 317 424 l 1,1,-1
 467 424 l 1,2,-1
 467 302 l 1,3,-1
 546 302 l 1,4,-1
 546 167 l 1,5,-1
 467 167 l 1,6,-1
 467 0 l 1,7,-1
 317 0 l 1,8,-1
 317 167 l 1,9,-1
 36 167 l 1,10,-1
 36 286 l 1,11,-1
 285 699 l 1,12,-1
 455 699 l 1,13,-1
 218 302 l 1,14,-1
 317 302 l 1,0,-1
EndSplineSet
EndChar

StartChar: five
Encoding: 53 53 26
Width: 596
Flags: W
LayerCount: 2
Back
Fore
SplineSet
506 699 m 1,0,-1
 506 564 l 1,1,-1
 230 564 l 1,2,-1
 230 447 l 1,3,4
 261 456 261 456 301 456 c 0,5,6
 402 456 402 456 475 395 c 128,-1,7
 548 334 548 334 548 230.5 c 128,-1,8
 548 127 548 127 472.5 59.5 c 128,-1,9
 397 -8 397 -8 286 -8 c 0,10,11
 144 -8 144 -8 49 97 c 1,12,-1
 131 211 l 1,13,14
 140 202 140 202 155 189 c 128,-1,15
 170 176 170 176 210 154.5 c 128,-1,16
 250 133 250 133 290 133 c 128,-1,17
 330 133 330 133 361 157 c 128,-1,18
 392 181 392 181 392 228 c 128,-1,19
 392 275 392 275 358.5 300.5 c 128,-1,20
 325 326 325 326 272 326 c 128,-1,21
 219 326 219 326 149 288 c 1,22,-1
 84 358 l 1,23,-1
 84 699 l 1,24,-1
 506 699 l 1,0,-1
EndSplineSet
EndChar

StartChar: six
Encoding: 54 54 27
Width: 630
Flags: W
LayerCount: 2
Back
Fore
SplineSet
354 581 m 0,0,1
 289 581 289 581 253.5 537.5 c 128,-1,2
 218 494 218 494 210 419 c 1,3,4
 275 461 275 461 348 461 c 0,5,6
 446 461 446 461 511.5 397 c 128,-1,7
 577 333 577 333 577 226.5 c 128,-1,8
 577 120 577 120 506.5 56 c 128,-1,9
 436 -8 436 -8 329 -8 c 0,10,11
 255 -8 255 -8 200.5 20.5 c 128,-1,12
 146 49 146 49 116 100 c 0,13,14
 56 199 56 199 56 348 c 0,15,16
 56 444 56 444 79.5 516.5 c 128,-1,17
 103 589 103 589 144 631 c 0,18,19
 224 715 224 715 342 715 c 0,20,21
 391 715 391 715 435.5 700.5 c 128,-1,22
 480 686 480 686 504 671 c 128,-1,23
 528 656 528 656 557 633 c 1,24,-1
 483 523 l 1,25,26
 477 529 477 529 465.5 539 c 128,-1,27
 454 549 454 549 420 565 c 128,-1,28
 386 581 386 581 354 581 c 0,0,1
255.5 301.5 m 128,-1,30
 224 274 224 274 224 230 c 128,-1,31
 224 186 224 186 254 154.5 c 128,-1,32
 284 123 284 123 329 123 c 128,-1,33
 374 123 374 123 404 151 c 128,-1,34
 434 179 434 179 434 223.5 c 128,-1,35
 434 268 434 268 407 298.5 c 128,-1,36
 380 329 380 329 333.5 329 c 128,-1,29
 287 329 287 329 255.5 301.5 c 128,-1,30
EndSplineSet
EndChar

StartChar: seven
Encoding: 55 55 28
Width: 579
Flags: W
LayerCount: 2
Back
Fore
SplineSet
47 565 m 1,0,-1
 47 699 l 1,1,-1
 552 699 l 1,2,-1
 552 581 l 1,3,-1
 269 0 l 1,4,-1
 99 0 l 1,5,-1
 369 565 l 1,6,-1
 47 565 l 1,0,-1
EndSplineSet
EndChar

StartChar: eight
Encoding: 56 56 29
Width: 642
Flags: W
LayerCount: 2
Back
Fore
SplineSet
321 715 m 128,-1,1
 425 715 425 715 494 660 c 128,-1,2
 563 605 563 605 563 524.5 c 128,-1,3
 563 444 563 444 501 386 c 1,4,5
 588 319 588 319 588 210 c 0,6,7
 588 118 588 118 514 55 c 128,-1,8
 440 -8 440 -8 321 -8 c 128,-1,9
 202 -8 202 -8 128 55 c 128,-1,10
 54 118 54 118 54 210 c 0,11,12
 54 319 54 319 141 386 c 1,13,14
 78 445 78 445 78 525 c 128,-1,15
 78 605 78 605 147.5 660 c 128,-1,0
 217 715 217 715 321 715 c 128,-1,1
321 122 m 128,-1,17
 362 122 362 122 397 145.5 c 128,-1,18
 432 169 432 169 432 214 c 128,-1,19
 432 259 432 259 398 283 c 128,-1,20
 364 307 364 307 321 307 c 128,-1,21
 278 307 278 307 244 283 c 128,-1,22
 210 259 210 259 210 214 c 128,-1,23
 210 169 210 169 245 145.5 c 128,-1,16
 280 122 280 122 321 122 c 128,-1,17
321 427 m 128,-1,25
 359 427 359 427 387.5 451 c 128,-1,26
 416 475 416 475 416 510.5 c 128,-1,27
 416 546 416 546 388 570 c 128,-1,28
 360 594 360 594 321 594 c 128,-1,29
 282 594 282 594 254 570 c 128,-1,30
 226 546 226 546 226 510.5 c 128,-1,31
 226 475 226 475 254.5 451 c 128,-1,24
 283 427 283 427 321 427 c 128,-1,25
EndSplineSet
EndChar

StartChar: nine
Encoding: 57 57 30
Width: 629
Flags: W
LayerCount: 2
Back
Fore
SplineSet
275 126 m 0,0,1
 340 126 340 126 375.5 169.5 c 128,-1,2
 411 213 411 213 419 288 c 1,3,4
 355 245 355 245 281 245 c 0,5,6
 183 245 183 245 117.5 309.5 c 128,-1,7
 52 374 52 374 52 480 c 128,-1,8
 52 586 52 586 122.5 650.5 c 128,-1,9
 193 715 193 715 300 715 c 0,10,11
 374 715 374 715 428.5 686.5 c 128,-1,12
 483 658 483 658 514 607 c 0,13,14
 573 508 573 508 573 359 c 0,15,16
 573 263 573 263 549.5 190.5 c 128,-1,17
 526 118 526 118 486 76 c 0,18,19
 404 -8 404 -8 287 -8 c 0,20,21
 238 -8 238 -8 193 6.5 c 128,-1,22
 148 21 148 21 125 35.5 c 128,-1,23
 102 50 102 50 72 73 c 1,24,-1
 150 183 l 1,25,26
 157 177 157 177 168.5 167.5 c 128,-1,27
 180 158 180 158 213 142 c 128,-1,28
 246 126 246 126 275 126 c 0,0,1
374 405 m 128,-1,30
 405 432 405 432 405 476 c 128,-1,31
 405 520 405 520 375 552 c 128,-1,32
 345 584 345 584 300 584 c 128,-1,33
 255 584 255 584 226.5 555.5 c 128,-1,34
 198 527 198 527 198 483 c 128,-1,35
 198 439 198 439 224 408.5 c 128,-1,36
 250 378 250 378 296.5 378 c 128,-1,29
 343 378 343 378 374 405 c 128,-1,30
EndSplineSet
EndChar

StartChar: colon
Encoding: 58 58 31
Width: 310
Flags: W
LayerCount: 2
Back
Fore
SplineSet
67 80 m 128,-1,1
 67 117 67 117 92.5 142.5 c 128,-1,2
 118 168 118 168 155 168 c 128,-1,3
 192 168 192 168 217.5 142.5 c 128,-1,4
 243 117 243 117 243 80 c 128,-1,5
 243 43 243 43 217.5 17.5 c 128,-1,6
 192 -8 192 -8 155 -8 c 128,-1,7
 118 -8 118 -8 92.5 17.5 c 128,-1,0
 67 43 67 43 67 80 c 128,-1,1
67 343 m 128,-1,9
 67 380 67 380 92.5 405.5 c 128,-1,10
 118 431 118 431 155 431 c 128,-1,11
 192 431 192 431 217.5 405.5 c 128,-1,12
 243 380 243 380 243 343 c 128,-1,13
 243 306 243 306 217.5 280.5 c 128,-1,14
 192 255 192 255 155 255 c 128,-1,15
 118 255 118 255 92.5 280.5 c 128,-1,8
 67 306 67 306 67 343 c 128,-1,9
EndSplineSet
EndChar

StartChar: semicolon
Encoding: 59 59 32
Width: 315
Flags: W
LayerCount: 2
Back
Fore
SplineSet
103 10 m 1,0,1
 67 36 67 36 67 76 c 128,-1,2
 67 116 67 116 94 141.5 c 128,-1,3
 121 167 121 167 159.5 167 c 128,-1,4
 198 167 198 167 225.5 142 c 128,-1,5
 253 117 253 117 253 84.5 c 128,-1,6
 253 52 253 52 224 2 c 2,7,-1
 162 -101 l 1,8,-1
 64 -101 l 1,9,-1
 103 10 l 1,0,1
67 343 m 128,-1,11
 67 380 67 380 92.5 405.5 c 128,-1,12
 118 431 118 431 155 431 c 128,-1,13
 192 431 192 431 217.5 405.5 c 128,-1,14
 243 380 243 380 243 343 c 128,-1,15
 243 306 243 306 217.5 280.5 c 128,-1,16
 192 255 192 255 155 255 c 128,-1,17
 118 255 118 255 92.5 280.5 c 128,-1,10
 67 306 67 306 67 343 c 128,-1,11
EndSplineSet
EndChar

StartChar: less
Encoding: 60 60 33
Width: 601
Flags: W
LayerCount: 2
Back
Fore
SplineSet
41 326 m 1,0,-1
 41 463 l 1,1,-1
 527 692 l 1,2,-1
 527 545 l 1,3,-1
 206 397 l 1,4,-1
 527 245 l 1,5,-1
 527 97 l 1,6,-1
 41 326 l 1,0,-1
EndSplineSet
EndChar

StartChar: equal
Encoding: 61 61 34
Width: 587
Flags: W
LayerCount: 2
Back
Fore
SplineSet
50 538 m 1,0,-1
 537 538 l 1,1,-1
 537 415 l 1,2,-1
 50 415 l 1,3,-1
 50 538 l 1,0,-1
50 289 m 1,4,-1
 537 289 l 1,5,-1
 537 166 l 1,6,-1
 50 166 l 1,7,-1
 50 289 l 1,4,-1
EndSplineSet
EndChar

StartChar: greater
Encoding: 62 62 35
Width: 601
Flags: W
LayerCount: 2
Back
Fore
SplineSet
560 463 m 1,0,-1
 560 326 l 1,1,-1
 74 97 l 1,2,-1
 74 245 l 1,3,-1
 395 397 l 1,4,-1
 74 545 l 1,5,-1
 74 692 l 1,6,-1
 560 463 l 1,0,-1
EndSplineSet
EndChar

StartChar: question
Encoding: 63 63 36
Width: 524
Flags: W
LayerCount: 2
Back
Fore
SplineSet
331 208 m 1,0,-1
 179 208 l 1,1,-1
 179 283 l 2,2,3
 179 324 179 324 189.5 344.5 c 128,-1,4
 200 365 200 365 234 400 c 2,5,-1
 302 470 l 2,6,7
 317 488 317 488 317 516.5 c 128,-1,8
 317 545 317 545 301 564 c 128,-1,9
 285 583 285 583 259 583 c 128,-1,10
 233 583 233 583 215.5 560.5 c 128,-1,11
 198 538 198 538 194 501 c 1,12,-1
 35 501 l 1,13,14
 46 601 46 601 108 658 c 128,-1,15
 170 715 170 715 263.5 715 c 128,-1,16
 357 715 357 715 415.5 664 c 128,-1,17
 474 613 474 613 474 523 c 0,18,19
 474 483 474 483 464 463.5 c 128,-1,20
 454 444 454 444 450 435.5 c 128,-1,21
 446 427 446 427 431.5 410 c 128,-1,22
 417 393 417 393 412 388 c 0,23,24
 388 364 388 364 366.5 343 c 128,-1,25
 345 322 345 322 338 308.5 c 128,-1,26
 331 295 331 295 331 268 c 2,27,-1
 331 208 l 1,0,-1
169 80 m 128,-1,29
 169 117 169 117 194.5 142.5 c 128,-1,30
 220 168 220 168 257 168 c 128,-1,31
 294 168 294 168 319.5 142.5 c 128,-1,32
 345 117 345 117 345 80 c 128,-1,33
 345 43 345 43 319.5 17.5 c 128,-1,34
 294 -8 294 -8 257 -8 c 128,-1,35
 220 -8 220 -8 194.5 17.5 c 128,-1,28
 169 43 169 43 169 80 c 128,-1,29
EndSplineSet
EndChar

StartChar: at
Encoding: 64 64 37
Width: 891
Flags: W
LayerCount: 2
Back
Fore
SplineSet
688 122 m 0,0,1
 715 122 715 122 735.5 165 c 128,-1,2
 756 208 756 208 756 273 c 0,3,4
 756 414 756 414 675 506.5 c 128,-1,5
 594 599 594 599 458 599 c 128,-1,6
 322 599 322 599 229 502 c 128,-1,7
 136 405 136 405 136 269.5 c 128,-1,8
 136 134 136 134 223.5 44 c 128,-1,9
 311 -46 311 -46 440 -46 c 0,10,11
 541 -46 541 -46 618 28 c 1,12,-1
 659 -43 l 1,13,14
 619 -78 619 -78 557 -99.5 c 128,-1,15
 495 -121 495 -121 440 -121 c 0,16,17
 273 -121 273 -121 160.5 -9.5 c 128,-1,18
 48 102 48 102 48 269.5 c 128,-1,19
 48 437 48 437 166.5 555.5 c 128,-1,20
 285 674 285 674 452 674 c 128,-1,21
 619 674 619 674 731 560 c 128,-1,22
 843 446 843 446 843 276 c 0,23,24
 843 166 843 166 797.5 99.5 c 128,-1,25
 752 33 752 33 678 33 c 0,26,27
 640 33 640 33 608.5 56 c 128,-1,28
 577 79 577 79 565 114 c 1,29,30
 510 43 510 43 425.5 43 c 128,-1,31
 341 43 341 43 278.5 107 c 128,-1,32
 216 171 216 171 216 269.5 c 128,-1,33
 216 368 216 368 272.5 435.5 c 128,-1,34
 329 503 329 503 421 503 c 0,35,36
 452 503 452 503 480 489.5 c 128,-1,37
 508 476 508 476 520 463 c 2,38,-1
 533 450 l 1,39,-1
 533 491 l 1,40,-1
 658 491 l 1,41,-1
 658 172 l 2,42,43
 658 122 658 122 688 122 c 0,0,1
507.5 356 m 128,-1,45
 481 389 481 389 438 389 c 128,-1,46
 395 389 395 389 369.5 356 c 128,-1,47
 344 323 344 323 344 274.5 c 128,-1,48
 344 226 344 226 369.5 190 c 128,-1,49
 395 154 395 154 439 154 c 128,-1,50
 483 154 483 154 508.5 188.5 c 128,-1,51
 534 223 534 223 534 273 c 128,-1,44
 534 323 534 323 507.5 356 c 128,-1,45
EndSplineSet
EndChar

StartChar: A
Encoding: 65 65 38
Width: 745
Flags: W
LayerCount: 2
Back
Fore
SplineSet
584 0 m 1,0,-1
 519 151 l 1,1,-1
 226 151 l 1,2,-1
 161 0 l 1,3,-1
 -5 0 l 1,4,-1
 297 699 l 1,5,-1
 448 699 l 1,6,-1
 750 0 l 1,7,-1
 584 0 l 1,0,-1
373 491 m 1,8,-1
 285 288 l 1,9,-1
 460 288 l 1,10,-1
 373 491 l 1,8,-1
EndSplineSet
EndChar

StartChar: B
Encoding: 66 66 39
Width: 689
Flags: W
LayerCount: 2
Back
Fore
SplineSet
392 0 m 2,0,-1
 86 0 l 1,1,-1
 86 699 l 1,2,-1
 358 699 l 2,3,4
 429 699 429 699 480.5 682 c 128,-1,5
 532 665 532 665 558 636 c 0,6,7
 605 582 605 582 605 514 c 0,8,9
 605 432 605 432 552 392 c 0,10,11
 534 378 534 378 527 374.5 c 128,-1,12
 520 371 520 371 502 363 c 1,13,14
 567 349 567 349 605.5 304.5 c 128,-1,15
 644 260 644 260 644 194 c 0,16,17
 644 121 644 121 594 65 c 0,18,19
 536 0 536 0 392 0 c 2,0,-1
242 416 m 1,20,-1
 316 416 l 2,21,22
 381 416 381 416 412.5 430 c 128,-1,23
 444 444 444 444 444 490.5 c 128,-1,24
 444 537 444 537 415 552 c 128,-1,25
 386 567 386 567 317 567 c 2,26,-1
 242 567 l 1,27,-1
 242 416 l 1,20,-1
242 132 m 1,28,-1
 349 132 l 2,29,30
 416 132 416 132 449.5 148.5 c 128,-1,31
 483 165 483 165 483 213.5 c 128,-1,32
 483 262 483 262 447.5 277.5 c 128,-1,33
 412 293 412 293 334 293 c 2,34,-1
 242 293 l 1,35,-1
 242 132 l 1,28,-1
EndSplineSet
EndChar

StartChar: C
Encoding: 67 67 40
Width: 732
Flags: W
LayerCount: 2
Back
Fore
SplineSet
407 138 m 0,0,1
 522 138 522 138 595 229 c 1,2,-1
 695 126 l 1,3,4
 576 -8 576 -8 414.5 -8 c 128,-1,5
 253 -8 253 -8 148.5 94 c 128,-1,6
 44 196 44 196 44 351.5 c 128,-1,7
 44 507 44 507 150.5 611 c 128,-1,8
 257 715 257 715 411 715 c 0,9,10
 583 715 583 715 699 584 c 1,11,-1
 602 474 l 1,12,13
 528 566 528 566 418 566 c 0,14,15
 330 566 330 566 267.5 508.5 c 128,-1,16
 205 451 205 451 205 353.5 c 128,-1,17
 205 256 205 256 264 197 c 128,-1,18
 323 138 323 138 407 138 c 0,0,1
EndSplineSet
EndChar

StartChar: D
Encoding: 68 68 41
Width: 769
Flags: W
LayerCount: 2
Back
Fore
SplineSet
620 607.5 m 128,-1,1
 720 516 720 516 720 353 c 128,-1,2
 720 190 720 190 622.5 95 c 128,-1,3
 525 0 525 0 325 0 c 2,4,-1
 86 0 l 1,5,-1
 86 699 l 1,6,-1
 333 699 l 2,7,0
 520 699 520 699 620 607.5 c 128,-1,1
505.5 192 m 128,-1,9
 563 246 563 246 563 349 c 128,-1,10
 563 452 563 452 505.5 507.5 c 128,-1,11
 448 563 448 563 329 563 c 2,12,-1
 242 563 l 1,13,-1
 242 138 l 1,14,-1
 341 138 l 2,15,8
 448 138 448 138 505.5 192 c 128,-1,9
EndSplineSet
EndChar

StartChar: E
Encoding: 69 69 42
Width: 654
Flags: W
LayerCount: 2
Back
Fore
SplineSet
590 699 m 1,0,-1
 590 560 l 1,1,-1
 242 560 l 1,2,-1
 242 416 l 1,3,-1
 555 416 l 1,4,-1
 555 283 l 1,5,-1
 242 283 l 1,6,-1
 242 138 l 1,7,-1
 601 138 l 1,8,-1
 601 0 l 1,9,-1
 86 0 l 1,10,-1
 86 699 l 1,11,-1
 590 699 l 1,0,-1
EndSplineSet
EndChar

StartChar: F
Encoding: 70 70 43
Width: 612
Flags: W
LayerCount: 2
Back
Fore
SplineSet
566 699 m 1,0,-1
 566 562 l 1,1,-1
 242 562 l 1,2,-1
 242 411 l 1,3,-1
 550 411 l 1,4,-1
 550 274 l 1,5,-1
 242 274 l 1,6,-1
 242 0 l 1,7,-1
 86 0 l 1,8,-1
 86 699 l 1,9,-1
 566 699 l 1,0,-1
EndSplineSet
EndChar

StartChar: G
Encoding: 71 71 44
Width: 750
Flags: W
LayerCount: 2
Back
Fore
SplineSet
405 290 m 1,0,-1
 405 423 l 1,1,-1
 696 423 l 1,2,-1
 696 356 l 1,3,-1
 697 356 l 1,4,-1
 697 108 l 1,5,6
 593 -8 593 -8 409 -8 c 0,7,8
 255 -8 255 -8 150.5 94 c 128,-1,9
 46 196 46 196 46 351.5 c 128,-1,10
 46 507 46 507 152.5 611 c 128,-1,11
 259 715 259 715 409.5 715 c 128,-1,12
 560 715 560 715 671 616 c 1,13,-1
 590 499 l 1,14,15
 543 540 543 540 503.5 555.5 c 128,-1,16
 464 571 464 571 418 571 c 0,17,18
 329 571 329 571 268 510.5 c 128,-1,19
 207 450 207 450 207 351 c 128,-1,20
 207 252 207 252 265.5 192.5 c 128,-1,21
 324 133 324 133 405 133 c 128,-1,22
 486 133 486 133 540 164 c 1,23,-1
 540 290 l 1,24,-1
 405 290 l 1,0,-1
EndSplineSet
EndChar

StartChar: H
Encoding: 72 72 45
Width: 762
Flags: W
LayerCount: 2
Back
Fore
SplineSet
520 699 m 1,0,-1
 676 699 l 1,1,-1
 676 0 l 1,2,-1
 520 0 l 1,3,-1
 520 275 l 1,4,-1
 242 275 l 1,5,-1
 242 0 l 1,6,-1
 86 0 l 1,7,-1
 86 699 l 1,8,-1
 242 699 l 1,9,-1
 242 407 l 1,10,-1
 520 407 l 1,11,-1
 520 699 l 1,0,-1
EndSplineSet
EndChar

StartChar: I
Encoding: 73 73 46
Width: 328
Flags: W
LayerCount: 2
Back
Fore
SplineSet
86 699 m 1,0,-1
 242 699 l 1,1,-1
 242 0 l 1,2,-1
 86 0 l 1,3,-1
 86 699 l 1,0,-1
EndSplineSet
EndChar

StartChar: J
Encoding: 74 74 47
Width: 556
Flags: W
LayerCount: 2
Back
Fore
SplineSet
319 699 m 1,0,-1
 476 699 l 1,1,-1
 476 243 l 2,2,3
 476 118 476 118 411.5 56 c 128,-1,4
 347 -6 347 -6 246 -6 c 0,5,6
 120 -6 120 -6 26 91 c 1,7,-1
 107 203 l 1,8,9
 170 135 170 135 239 135 c 0,10,11
 272 135 272 135 295.5 160.5 c 128,-1,12
 319 186 319 186 319 237 c 2,13,-1
 319 699 l 1,0,-1
EndSplineSet
EndChar

StartChar: K
Encoding: 75 75 48
Width: 710
Flags: W
LayerCount: 2
Back
Fore
SplineSet
86 699 m 1,0,-1
 242 699 l 1,1,-1
 242 412 l 1,2,-1
 506 699 l 1,3,-1
 699 699 l 1,4,-1
 421 390 l 1,5,6
 457 340 457 340 554 203.5 c 128,-1,7
 651 67 651 67 699 0 c 1,8,-1
 517 0 l 1,9,-1
 312 276 l 1,10,-1
 242 198 l 1,11,-1
 242 0 l 1,12,-1
 86 0 l 1,13,-1
 86 699 l 1,0,-1
EndSplineSet
EndChar

StartChar: L
Encoding: 76 76 49
Width: 568
Flags: W
LayerCount: 2
Back
Fore
SplineSet
86 0 m 1,0,-1
 86 699 l 1,1,-1
 242 699 l 1,2,-1
 242 139 l 1,3,-1
 540 139 l 1,4,-1
 540 0 l 1,5,-1
 86 0 l 1,0,-1
EndSplineSet
EndChar

StartChar: M
Encoding: 77 77 50
Width: 954
Flags: W
LayerCount: 2
Back
Fore
SplineSet
712 440 m 1,0,-1
 523 58 l 1,1,-1
 430 58 l 1,2,-1
 242 440 l 1,3,-1
 242 0 l 1,4,-1
 86 0 l 1,5,-1
 86 699 l 1,6,-1
 297 699 l 1,7,-1
 477 315 l 1,8,-1
 658 699 l 1,9,-1
 868 699 l 1,10,-1
 868 0 l 1,11,-1
 712 0 l 1,12,-1
 712 440 l 1,0,-1
EndSplineSet
EndChar

StartChar: N
Encoding: 78 78 51
Width: 817
Flags: W
LayerCount: 2
Back
Fore
SplineSet
575 699 m 1,0,-1
 731 699 l 1,1,-1
 731 0 l 1,2,-1
 575 0 l 1,3,-1
 242 438 l 1,4,-1
 242 0 l 1,5,-1
 86 0 l 1,6,-1
 86 699 l 1,7,-1
 232 699 l 1,8,-1
 575 249 l 1,9,-1
 575 699 l 1,0,-1
EndSplineSet
EndChar

StartChar: O
Encoding: 79 79 52
Width: 826
Flags: W
LayerCount: 2
Back
Fore
SplineSet
561 513 m 128,-1,1
 501 579 501 579 413.5 579 c 128,-1,2
 326 579 326 579 266 513 c 128,-1,3
 206 447 206 447 206 353.5 c 128,-1,4
 206 260 206 260 266 194.5 c 128,-1,5
 326 129 326 129 413.5 129 c 128,-1,6
 501 129 501 129 561 194.5 c 128,-1,7
 621 260 621 260 621 353.5 c 128,-1,0
 621 447 621 447 561 513 c 128,-1,1
413 -7 m 128,-1,9
 258 -7 258 -7 152 96.5 c 128,-1,10
 46 200 46 200 46 354 c 128,-1,11
 46 508 46 508 152 611.5 c 128,-1,12
 258 715 258 715 413 715 c 128,-1,13
 568 715 568 715 674 611.5 c 128,-1,14
 780 508 780 508 780 354 c 128,-1,15
 780 200 780 200 674 96.5 c 128,-1,8
 568 -7 568 -7 413 -7 c 128,-1,9
EndSplineSet
EndChar

StartChar: P
Encoding: 80 80 53
Width: 677
Flags: W
LayerCount: 2
Back
Fore
SplineSet
567.5 636.5 m 128,-1,1
 641 574 641 574 641 444.5 c 128,-1,2
 641 315 641 315 565.5 255 c 128,-1,3
 490 195 490 195 335 195 c 2,4,-1
 242 195 l 1,5,-1
 242 0 l 1,6,-1
 86 0 l 1,7,-1
 86 699 l 1,8,-1
 333 699 l 2,9,0
 494 699 494 699 567.5 636.5 c 128,-1,1
453 361.5 m 128,-1,11
 481 393 481 393 481 453.5 c 128,-1,12
 481 514 481 514 444.5 539.5 c 128,-1,13
 408 565 408 565 331 565 c 2,14,-1
 242 565 l 1,15,-1
 242 330 l 1,16,-1
 347 330 l 2,17,10
 425 330 425 330 453 361.5 c 128,-1,11
EndSplineSet
EndChar

StartChar: Q
Encoding: 81 81 54
Width: 826
Flags: W
LayerCount: 2
Back
Fore
SplineSet
413 -7 m 0,0,1
 258 -7 258 -7 152 96.5 c 128,-1,2
 46 200 46 200 46 354 c 128,-1,3
 46 508 46 508 152 611.5 c 128,-1,4
 258 715 258 715 413 715 c 128,-1,5
 568 715 568 715 674 611.5 c 128,-1,6
 780 508 780 508 780 354 c 128,-1,7
 780 200 780 200 674 96 c 0,8,9
 639 62 639 62 599 39 c 1,10,-1
 761 -121 l 1,11,-1
 569 -121 l 1,12,-1
 448 -6 l 1,13,14
 431 -7 431 -7 413 -7 c 0,0,1
561 513 m 128,-1,16
 501 579 501 579 413.5 579 c 128,-1,17
 326 579 326 579 266 513 c 128,-1,18
 206 447 206 447 206 353.5 c 128,-1,19
 206 260 206 260 266 194.5 c 128,-1,20
 326 129 326 129 413.5 129 c 128,-1,21
 501 129 501 129 561 194.5 c 128,-1,22
 621 260 621 260 621 353.5 c 128,-1,15
 621 447 621 447 561 513 c 128,-1,16
EndSplineSet
EndChar

StartChar: R
Encoding: 82 82 55
Width: 727
Flags: W
LayerCount: 2
Back
Fore
SplineSet
653 467 m 0,0,1
 653 299 653 299 520 250 c 1,2,-1
 697 0 l 1,3,-1
 505 0 l 1,4,-1
 350 223 l 1,5,-1
 242 223 l 1,6,-1
 242 0 l 1,7,-1
 86 0 l 1,8,-1
 86 699 l 1,9,-1
 351 699 l 2,10,11
 514 699 514 699 583.5 644 c 128,-1,12
 653 589 653 589 653 467 c 0,0,1
465 384 m 128,-1,14
 494 410 494 410 494 466.5 c 128,-1,15
 494 523 494 523 464 544 c 128,-1,16
 434 565 434 565 359 565 c 2,17,-1
 242 565 l 1,18,-1
 242 358 l 1,19,-1
 356 358 l 2,20,13
 436 358 436 358 465 384 c 128,-1,14
EndSplineSet
EndChar

StartChar: S
Encoding: 83 83 56
Width: 638
Flags: W
LayerCount: 2
Back
Fore
SplineSet
249.5 559.5 m 128,-1,1
 227 541 227 541 227 510.5 c 128,-1,2
 227 480 227 480 254.5 462 c 128,-1,3
 282 444 282 444 381.5 419.5 c 128,-1,4
 481 395 481 395 536 346 c 128,-1,5
 591 297 591 297 591 203 c 128,-1,6
 591 109 591 109 520.5 50.5 c 128,-1,7
 450 -8 450 -8 335 -8 c 0,8,9
 169 -8 169 -8 36 115 c 1,10,-1
 129 229 l 1,11,12
 242 130 242 130 338 130 c 0,13,14
 381 130 381 130 405.5 148.5 c 128,-1,15
 430 167 430 167 430 198.5 c 128,-1,16
 430 230 430 230 404 248.5 c 128,-1,17
 378 267 378 267 301 286 c 0,18,19
 179 315 179 315 122.5 361.5 c 128,-1,20
 66 408 66 408 66 507.5 c 128,-1,21
 66 607 66 607 137.5 661 c 128,-1,22
 209 715 209 715 316 715 c 0,23,24
 386 715 386 715 456 691 c 128,-1,25
 526 667 526 667 578 623 c 1,26,-1
 499 509 l 1,27,28
 408 578 408 578 311 578 c 0,29,0
 272 578 272 578 249.5 559.5 c 128,-1,1
EndSplineSet
EndChar

StartChar: T
Encoding: 84 84 57
Width: 608
Flags: W
LayerCount: 2
Back
Fore
SplineSet
382 564 m 1,0,-1
 382 0 l 1,1,-1
 226 0 l 1,2,-1
 226 564 l 1,3,-1
 28 564 l 1,4,-1
 28 699 l 1,5,-1
 580 699 l 1,6,-1
 580 564 l 1,7,-1
 382 564 l 1,0,-1
EndSplineSet
EndChar

StartChar: U
Encoding: 85 85 58
Width: 751
Flags: W
LayerCount: 2
Back
Fore
SplineSet
376 132 m 128,-1,1
 442 132 442 132 480.5 180.5 c 128,-1,2
 519 229 519 229 519 313 c 2,3,-1
 519 699 l 1,4,-1
 675 699 l 1,5,-1
 675 308 l 2,6,7
 675 156 675 156 591 74.5 c 128,-1,8
 507 -7 507 -7 376 -7 c 128,-1,9
 245 -7 245 -7 160.5 75 c 128,-1,10
 76 157 76 157 76 308 c 2,11,-1
 76 699 l 1,12,-1
 232 699 l 1,13,-1
 232 313 l 2,14,15
 232 229 232 229 271 180.5 c 128,-1,0
 310 132 310 132 376 132 c 128,-1,1
EndSplineSet
EndChar

StartChar: V
Encoding: 86 86 59
Width: 688
Flags: W
LayerCount: 2
Back
Fore
SplineSet
344 254 m 1,0,-1
 522 699 l 1,1,-1
 691 699 l 1,2,-1
 410 0 l 1,3,-1
 278 0 l 1,4,-1
 -3 699 l 1,5,-1
 166 699 l 1,6,-1
 344 254 l 1,0,-1
EndSplineSet
EndChar

StartChar: W
Encoding: 87 87 60
Width: 1019
Flags: W
LayerCount: 2
Back
Fore
SplineSet
304 297 m 1,0,-1
 428 699 l 1,1,-1
 591 699 l 1,2,-1
 714 297 l 1,3,-1
 853 699 l 1,4,-1
 1022 699 l 1,5,-1
 778 0 l 1,6,-1
 662 0 l 1,7,-1
 509 486 l 1,8,-1
 357 0 l 1,9,-1
 241 0 l 1,10,-1
 -3 699 l 1,11,-1
 166 699 l 1,12,-1
 304 297 l 1,0,-1
EndSplineSet
EndChar

StartChar: X
Encoding: 88 88 61
Width: 695
Flags: W
LayerCount: 2
Back
Fore
SplineSet
479 699 m 1,0,-1
 667 699 l 1,1,-1
 449 362 l 1,2,-1
 685 0 l 1,3,-1
 495 0 l 1,4,-1
 346 230 l 1,5,-1
 198 0 l 1,6,-1
 10 0 l 1,7,-1
 245 358 l 1,8,-1
 26 699 l 1,9,-1
 213 699 l 1,10,-1
 346 492 l 1,11,-1
 479 699 l 1,0,-1
EndSplineSet
EndChar

StartChar: Y
Encoding: 89 89 62
Width: 618
Flags: W
LayerCount: 2
Back
Fore
SplineSet
387 0 m 1,0,-1
 231 0 l 1,1,-1
 231 276 l 1,2,-1
 -11 699 l 1,3,-1
 158 699 l 1,4,-1
 309 439 l 1,5,-1
 460 699 l 1,6,-1
 629 699 l 1,7,-1
 387 276 l 1,8,-1
 387 0 l 1,0,-1
EndSplineSet
EndChar

StartChar: Z
Encoding: 90 90 63
Width: 681
Flags: W
LayerCount: 2
Back
Fore
SplineSet
46 0 m 1,0,-1
 46 107 l 1,1,-1
 412 564 l 1,2,-1
 58 564 l 1,3,-1
 58 699 l 1,4,-1
 625 699 l 1,5,-1
 625 591 l 1,6,-1
 260 136 l 1,7,-1
 631 136 l 1,8,-1
 631 0 l 1,9,-1
 46 0 l 1,0,-1
EndSplineSet
EndChar

StartChar: bracketleft
Encoding: 91 91 64
Width: 374
Flags: W
LayerCount: 2
Back
Fore
SplineSet
334 757 m 1,0,-1
 334 644 l 1,1,-1
 205 644 l 1,2,-1
 205 -21 l 1,3,-1
 334 -21 l 1,4,-1
 334 -134 l 1,5,-1
 77 -134 l 1,6,-1
 77 757 l 1,7,-1
 334 757 l 1,0,-1
EndSplineSet
EndChar

StartChar: backslash
Encoding: 92 92 65
Width: 572
Flags: W
LayerCount: 2
Back
Fore
SplineSet
28 757 m 1,0,-1
 179 757 l 1,1,-1
 543 0 l 1,2,-1
 392 0 l 1,3,-1
 28 757 l 1,0,-1
EndSplineSet
EndChar

StartChar: bracketright
Encoding: 93 93 66
Width: 374
Flags: W
LayerCount: 2
Back
Fore
SplineSet
40 -134 m 1,0,-1
 40 -21 l 1,1,-1
 169 -21 l 1,2,-1
 169 644 l 1,3,-1
 40 644 l 1,4,-1
 40 757 l 1,5,-1
 297 757 l 1,6,-1
 297 -134 l 1,7,-1
 40 -134 l 1,0,-1
EndSplineSet
EndChar

StartChar: asciicircum
Encoding: 94 94 67
Width: 483
Flags: W
LayerCount: 2
Back
Fore
SplineSet
165 771 m 1,0,-1
 22 771 l 1,1,-1
 159 948 l 1,2,-1
 324 948 l 1,3,-1
 461 771 l 1,4,-1
 318 771 l 1,5,-1
 241 856 l 1,6,-1
 165 771 l 1,0,-1
EndSplineSet
EndChar

StartChar: underscore
Encoding: 95 95 68
Width: 720
Flags: W
LayerCount: 2
Back
Fore
SplineSet
67 -132 m 1,0,-1
 67 -45 l 1,1,-1
 653 -45 l 1,2,-1
 653 -132 l 1,3,-1
 67 -132 l 1,0,-1
EndSplineSet
EndChar

StartChar: grave
Encoding: 96 96 69
Width: 382
Flags: W
LayerCount: 2
Back
Fore
SplineSet
332 769 m 1,0,-1
 189 769 l 1,1,-1
 50 881 l 1,2,-1
 204 947 l 1,3,-1
 332 769 l 1,0,-1
EndSplineSet
EndChar

StartChar: a
Encoding: 97 97 70
Width: 594
Flags: W
LayerCount: 2
Back
Fore
SplineSet
528 0 m 1,0,-1
 387 0 l 1,1,-1
 387 65 l 1,2,3
 329 -8 329 -8 243.5 -8 c 128,-1,4
 158 -8 158 -8 100 41.5 c 128,-1,5
 42 91 42 91 42 173.5 c 128,-1,6
 42 256 42 256 102 297 c 128,-1,7
 162 338 162 338 266 338 c 2,8,-1
 378 338 l 1,9,-1
 378 341 l 2,10,11
 378 427 378 427 287 427 c 0,12,13
 248 427 248 427 204.5 411.5 c 128,-1,14
 161 396 161 396 131 373 c 1,15,-1
 64 470 l 1,16,17
 170 547 170 547 306 547 c 0,18,19
 404 547 404 547 466 498 c 128,-1,20
 528 449 528 449 528 343 c 2,21,-1
 528 0 l 1,0,-1
377 205 m 2,22,-1
 377 231 l 1,23,-1
 283 231 l 2,24,25
 193 231 193 231 193 175 c 0,26,27
 193 146 193 146 214.5 130.5 c 128,-1,28
 236 115 236 115 276 115 c 128,-1,29
 316 115 316 115 346.5 139.5 c 128,-1,30
 377 164 377 164 377 205 c 2,22,-1
EndSplineSet
EndChar

StartChar: b
Encoding: 98 98 71
Width: 666
Flags: W
LayerCount: 2
Back
Fore
SplineSet
552 470.5 m 128,-1,1
 625 394 625 394 625 274 c 128,-1,2
 625 154 625 154 550 73 c 128,-1,3
 475 -8 475 -8 379.5 -8 c 128,-1,4
 284 -8 284 -8 221 71 c 1,5,-1
 221 0 l 1,6,-1
 71 0 l 1,7,-1
 71 742 l 1,8,-1
 221 742 l 1,9,-1
 221 478 l 1,10,11
 283 547 283 547 381 547 c 128,-1,0
 479 547 479 547 552 470.5 c 128,-1,1
255.5 161.5 m 128,-1,13
 292 120 292 120 344 120 c 128,-1,14
 396 120 396 120 435 161.5 c 128,-1,15
 474 203 474 203 474 268 c 128,-1,16
 474 333 474 333 436 377 c 128,-1,17
 398 421 398 421 345 421 c 128,-1,18
 292 421 292 421 255.5 377.5 c 128,-1,19
 219 334 219 334 219 268.5 c 128,-1,12
 219 203 219 203 255.5 161.5 c 128,-1,13
EndSplineSet
EndChar

StartChar: c
Encoding: 99 99 72
Width: 582
Flags: W
LayerCount: 2
Back
Fore
SplineSet
329 125 m 0,0,1
 404 125 404 125 464 200 c 1,2,-1
 553 100 l 1,3,4
 449 -8 449 -8 328 -8 c 128,-1,5
 207 -8 207 -8 123.5 68.5 c 128,-1,6
 40 145 40 145 40 268.5 c 128,-1,7
 40 392 40 392 124.5 469.5 c 128,-1,8
 209 547 209 547 325 547 c 0,9,10
 383 547 383 547 442.5 523 c 128,-1,11
 502 499 502 499 547 452 c 1,12,-1
 469 350 l 1,13,14
 443 381 443 381 405.5 398 c 128,-1,15
 368 415 368 415 331 415 c 0,16,17
 272 415 272 415 229.5 376.5 c 128,-1,18
 187 338 187 338 187 269.5 c 128,-1,19
 187 201 187 201 229.5 163 c 128,-1,20
 272 125 272 125 329 125 c 0,0,1
EndSplineSet
EndChar

StartChar: d
Encoding: 100 100 73
Width: 666
Flags: W
LayerCount: 2
Back
Fore
SplineSet
116 73 m 128,-1,1
 41 154 41 154 41 274 c 128,-1,2
 41 394 41 394 114 470.5 c 128,-1,3
 187 547 187 547 285 547 c 128,-1,4
 383 547 383 547 445 478 c 1,5,-1
 445 742 l 1,6,-1
 595 742 l 1,7,-1
 595 0 l 1,8,-1
 445 0 l 1,9,-1
 445 71 l 1,10,11
 382 -8 382 -8 286.5 -8 c 128,-1,0
 191 -8 191 -8 116 73 c 128,-1,1
231 161.5 m 128,-1,13
 270 120 270 120 322 120 c 128,-1,14
 374 120 374 120 410.5 161.5 c 128,-1,15
 447 203 447 203 447 268.5 c 128,-1,16
 447 334 447 334 410.5 377.5 c 128,-1,17
 374 421 374 421 321 421 c 128,-1,18
 268 421 268 421 230 377 c 128,-1,19
 192 333 192 333 192 268 c 128,-1,12
 192 203 192 203 231 161.5 c 128,-1,13
EndSplineSet
EndChar

StartChar: e
Encoding: 101 101 74
Width: 618
Flags: W
LayerCount: 2
Back
Fore
SplineSet
537 78 m 1,0,1
 446 -8 446 -8 323.5 -8 c 128,-1,2
 201 -8 201 -8 121 67.5 c 128,-1,3
 41 143 41 143 41 270 c 128,-1,4
 41 397 41 397 122.5 472 c 128,-1,5
 204 547 204 547 315 547 c 128,-1,6
 426 547 426 547 503.5 480 c 128,-1,7
 581 413 581 413 581 296 c 2,8,-1
 581 216 l 1,9,-1
 189 216 l 1,10,11
 196 172 196 172 235 144 c 128,-1,12
 274 116 274 116 323 116 c 0,13,14
 402 116 402 116 453 169 c 1,15,-1
 537 78 l 1,0,1
393 397 m 128,-1,17
 362 423 362 423 317.5 423 c 128,-1,18
 273 423 273 423 236 396 c 128,-1,19
 199 369 199 369 193 323 c 1,20,-1
 429 323 l 1,21,16
 424 371 424 371 393 397 c 128,-1,17
EndSplineSet
EndChar

StartChar: f
Encoding: 102 102 75
Width: 402
Flags: W
LayerCount: 2
Back
Fore
SplineSet
250 569 m 2,0,-1
 250 533 l 1,1,-1
 380 533 l 1,2,-1
 380 425 l 1,3,-1
 250 425 l 1,4,-1
 250 0 l 1,5,-1
 99 0 l 1,6,-1
 99 425 l 1,7,-1
 36 425 l 1,8,-1
 36 533 l 1,9,-1
 99 533 l 1,10,-1
 99 566 l 2,11,12
 99 654 99 654 152.5 705.5 c 128,-1,13
 206 757 206 757 285.5 757 c 128,-1,14
 365 757 365 757 430 697 c 1,15,-1
 376 596 l 1,16,17
 343 634 343 634 303 634 c 0,18,19
 280 634 280 634 265 617.5 c 128,-1,20
 250 601 250 601 250 569 c 2,0,-1
EndSplineSet
EndChar

StartChar: g
Encoding: 103 103 76
Width: 667
Flags: W
LayerCount: 2
Back
Fore
SplineSet
412 382 m 128,-1,1
 376 419 376 419 323 419 c 128,-1,2
 270 419 270 419 231.5 382 c 128,-1,3
 193 345 193 345 193 281 c 128,-1,4
 193 217 193 217 230.5 177.5 c 128,-1,5
 268 138 268 138 322 138 c 128,-1,6
 376 138 376 138 412 177 c 128,-1,7
 448 216 448 216 448 280.5 c 128,-1,0
 448 345 448 345 412 382 c 128,-1,1
469 91 m 1,8,9
 398 12 398 12 292.5 12 c 128,-1,10
 187 12 187 12 114.5 83.5 c 128,-1,11
 42 155 42 155 42 274.5 c 128,-1,12
 42 394 42 394 116.5 470.5 c 128,-1,13
 191 547 191 547 287 547 c 128,-1,14
 383 547 383 547 446 468 c 1,15,-1
 446 539 l 1,16,-1
 596 539 l 1,17,-1
 596 70 l 2,18,19
 596 -2 596 -2 571 -58 c 128,-1,20
 546 -114 546 -114 504 -146 c 0,21,22
 421 -212 421 -212 308 -212 c 0,23,24
 248 -212 248 -212 185.5 -192.5 c 128,-1,25
 123 -173 123 -173 76 -137 c 1,26,-1
 134 -24 l 1,27,28
 208 -80 208 -80 290.5 -80 c 128,-1,29
 373 -80 373 -80 421 -39 c 128,-1,30
 469 2 469 2 469 91 c 1,8,9
EndSplineSet
EndChar

StartChar: h
Encoding: 104 104 77
Width: 639
Flags: W
LayerCount: 2
Back
Fore
SplineSet
221 290 m 2,0,-1
 221 0 l 1,1,-1
 71 0 l 1,2,-1
 71 742 l 1,3,-1
 221 742 l 1,4,-1
 221 478 l 1,5,6
 289 547 289 547 373.5 547 c 128,-1,7
 458 547 458 547 516 487 c 128,-1,8
 574 427 574 427 574 327 c 2,9,-1
 574 0 l 1,10,-1
 424 0 l 1,11,-1
 424 294 l 2,12,13
 424 418 424 418 333 418 c 0,14,15
 288 418 288 418 254.5 385.5 c 128,-1,16
 221 353 221 353 221 290 c 2,0,-1
EndSplineSet
EndChar

StartChar: i
Encoding: 105 105 78
Width: 292
Flags: W
LayerCount: 2
Back
Fore
SplineSet
221 0 m 1,0,-1
 71 0 l 1,1,-1
 71 538 l 1,2,-1
 221 538 l 1,3,-1
 221 0 l 1,0,-1
58 669 m 128,-1,5
 58 706 58 706 83.5 731.5 c 128,-1,6
 109 757 109 757 146 757 c 128,-1,7
 183 757 183 757 208.5 731.5 c 128,-1,8
 234 706 234 706 234 669 c 128,-1,9
 234 632 234 632 208.5 606.5 c 128,-1,10
 183 581 183 581 146 581 c 128,-1,11
 109 581 109 581 83.5 606.5 c 128,-1,4
 58 632 58 632 58 669 c 128,-1,5
EndSplineSet
EndChar

StartChar: j
Encoding: 106 106 79
Width: 343
Flags: W
LayerCount: 2
Back
Fore
SplineSet
122 -10 m 2,0,-1
 122 539 l 1,1,-1
 272 539 l 1,2,-1
 272 -22 l 2,3,4
 272 -110 272 -110 218.5 -161 c 128,-1,5
 165 -212 165 -212 87.5 -212 c 128,-1,6
 10 -212 10 -212 -60 -148 c 1,7,-1
 9 -37 l 1,8,9
 39 -72 39 -72 76 -72 c 0,10,11
 96 -72 96 -72 109 -56.5 c 128,-1,12
 122 -41 122 -41 122 -10 c 2,0,-1
109 669 m 128,-1,14
 109 706 109 706 134.5 731.5 c 128,-1,15
 160 757 160 757 197 757 c 128,-1,16
 234 757 234 757 259.5 731.5 c 128,-1,17
 285 706 285 706 285 669 c 128,-1,18
 285 632 285 632 259.5 606.5 c 128,-1,19
 234 581 234 581 197 581 c 128,-1,20
 160 581 160 581 134.5 606.5 c 128,-1,13
 109 632 109 632 109 669 c 128,-1,14
EndSplineSet
EndChar

StartChar: k
Encoding: 107 107 80
Width: 595
Flags: W
LayerCount: 2
Back
Fore
SplineSet
221 0 m 1,0,-1
 71 0 l 1,1,-1
 71 742 l 1,2,-1
 221 742 l 1,3,-1
 221 361 l 1,4,-1
 388 539 l 1,5,-1
 577 539 l 1,6,-1
 372 321 l 1,7,-1
 585 0 l 1,8,-1
 407 0 l 1,9,-1
 270 206 l 1,10,-1
 221 155 l 1,11,-1
 221 0 l 1,0,-1
EndSplineSet
EndChar

StartChar: l
Encoding: 108 108 81
Width: 292
Flags: W
LayerCount: 2
Back
Fore
SplineSet
221 0 m 1,0,-1
 71 0 l 1,1,-1
 71 742 l 1,2,-1
 221 742 l 1,3,-1
 221 0 l 1,0,-1
EndSplineSet
EndChar

StartChar: m
Encoding: 109 109 82
Width: 983
Flags: W
LayerCount: 2
Back
Fore
SplineSet
565 290 m 2,0,-1
 565 0 l 1,1,-1
 414 0 l 1,2,-1
 414 294 l 2,3,4
 414 358 414 358 394.5 388 c 128,-1,5
 375 418 375 418 331.5 418 c 128,-1,6
 288 418 288 418 254.5 385.5 c 128,-1,7
 221 353 221 353 221 290 c 2,8,-1
 221 0 l 1,9,-1
 71 0 l 1,10,-1
 71 538 l 1,11,-1
 221 538 l 1,12,-1
 221 477 l 1,13,14
 283 547 283 547 363 547 c 0,15,16
 414 547 414 547 455.5 517 c 128,-1,17
 497 487 497 487 518 444 c 1,18,19
 549 493 549 493 601.5 520 c 128,-1,20
 654 547 654 547 707 547 c 0,21,22
 802 547 802 547 860 490.5 c 128,-1,23
 918 434 918 434 918 327 c 2,24,-1
 918 0 l 1,25,-1
 767 0 l 1,26,-1
 767 294 l 2,27,28
 767 418 767 418 676 418 c 0,29,30
 631 418 631 418 598 385.5 c 128,-1,31
 565 353 565 353 565 290 c 2,0,-1
EndSplineSet
EndChar

StartChar: n
Encoding: 110 110 83
Width: 639
Flags: W
LayerCount: 2
Back
Fore
SplineSet
221 300 m 2,0,-1
 221 0 l 1,1,-1
 71 0 l 1,2,-1
 71 538 l 1,3,-1
 221 538 l 1,4,-1
 221 478 l 1,5,6
 289 547 289 547 374 547 c 128,-1,7
 459 547 459 547 516.5 487 c 128,-1,8
 574 427 574 427 574 327 c 2,9,-1
 574 0 l 1,10,-1
 424 0 l 1,11,-1
 424 304 l 2,12,13
 424 428 424 428 333 428 c 0,14,15
 288 428 288 428 254.5 395.5 c 128,-1,16
 221 363 221 363 221 300 c 2,0,-1
EndSplineSet
EndChar

StartChar: o
Encoding: 111 111 84
Width: 649
Flags: W
LayerCount: 2
Back
Fore
SplineSet
228.5 161.5 m 128,-1,1
 266 120 266 120 324.5 120 c 128,-1,2
 383 120 383 120 420.5 161.5 c 128,-1,3
 458 203 458 203 458 269 c 128,-1,4
 458 335 458 335 420.5 377 c 128,-1,5
 383 419 383 419 324.5 419 c 128,-1,6
 266 419 266 419 228.5 377 c 128,-1,7
 191 335 191 335 191 269 c 128,-1,0
 191 203 191 203 228.5 161.5 c 128,-1,1
528 72 m 128,-1,9
 447 -8 447 -8 324.5 -8 c 128,-1,10
 202 -8 202 -8 121 72 c 128,-1,11
 40 152 40 152 40 269 c 128,-1,12
 40 386 40 386 121 466.5 c 128,-1,13
 202 547 202 547 324.5 547 c 128,-1,14
 447 547 447 547 528 466.5 c 128,-1,15
 609 386 609 386 609 269 c 128,-1,8
 609 152 609 152 528 72 c 128,-1,9
EndSplineSet
EndChar

StartChar: p
Encoding: 112 112 85
Width: 666
Flags: W
LayerCount: 2
Back
Fore
SplineSet
551.5 468.5 m 128,-1,1
 625 390 625 390 625 271 c 128,-1,2
 625 152 625 152 551.5 72 c 128,-1,3
 478 -8 478 -8 379.5 -8 c 128,-1,4
 281 -8 281 -8 221 71 c 1,5,-1
 221 -194 l 1,6,-1
 71 -194 l 1,7,-1
 71 538 l 1,8,-1
 221 538 l 1,9,-1
 221 478 l 1,10,11
 290 547 290 547 384 547 c 128,-1,0
 478 547 478 547 551.5 468.5 c 128,-1,1
255.5 161.5 m 128,-1,13
 292 120 292 120 344 120 c 128,-1,14
 396 120 396 120 435 161.5 c 128,-1,15
 474 203 474 203 474 268 c 128,-1,16
 474 333 474 333 436 377 c 128,-1,17
 398 421 398 421 345 421 c 128,-1,18
 292 421 292 421 255.5 377.5 c 128,-1,19
 219 334 219 334 219 268.5 c 128,-1,12
 219 203 219 203 255.5 161.5 c 128,-1,13
EndSplineSet
EndChar

StartChar: q
Encoding: 113 113 86
Width: 666
Flags: W
LayerCount: 2
Back
Fore
SplineSet
118 69.5 m 128,-1,1
 41 147 41 147 41 268.5 c 128,-1,2
 41 390 41 390 116 468.5 c 128,-1,3
 191 547 191 547 283 547 c 128,-1,4
 375 547 375 547 444 478 c 1,5,-1
 444 538 l 1,6,-1
 595 538 l 1,7,-1
 595 -194 l 1,8,-1
 444 -194 l 1,9,-1
 444 43 l 1,10,11
 380 -8 380 -8 298 -8 c 0,12,0
 195 -8 195 -8 118 69.5 c 128,-1,1
231 161.5 m 128,-1,14
 270 120 270 120 322 120 c 128,-1,15
 374 120 374 120 410 161.5 c 128,-1,16
 446 203 446 203 446 268.5 c 128,-1,17
 446 334 446 334 410 377.5 c 128,-1,18
 374 421 374 421 321 421 c 128,-1,19
 268 421 268 421 230 377.5 c 128,-1,20
 192 334 192 334 192 268.5 c 128,-1,13
 192 203 192 203 231 161.5 c 128,-1,14
EndSplineSet
EndChar

StartChar: r
Encoding: 114 114 87
Width: 411
Flags: W
LayerCount: 2
Back
Fore
SplineSet
354 406 m 2,0,1
 287 406 287 406 254 358.5 c 128,-1,2
 221 311 221 311 221 233 c 2,3,-1
 221 0 l 1,4,-1
 71 0 l 1,5,-1
 71 538 l 1,6,-1
 221 538 l 1,7,-1
 221 467 l 1,8,9
 250 500 250 500 293.5 523 c 128,-1,10
 337 546 337 546 382 547 c 1,11,-1
 383 406 l 1,12,-1
 354 406 l 2,0,1
EndSplineSet
EndChar

StartChar: s
Encoding: 115 115 88
Width: 520
Flags: W
LayerCount: 2
Back
Fore
SplineSet
417.5 40 m 128,-1,1
 359 -8 359 -8 269 -8 c 0,2,3
 209 -8 209 -8 144 13.5 c 128,-1,4
 79 35 79 35 27 77 c 1,5,-1
 93 171 l 1,6,7
 177 106 177 106 272 106 c 0,8,9
 301 106 301 106 318 117.5 c 128,-1,10
 335 129 335 129 335 148 c 128,-1,11
 335 167 335 167 311.5 183 c 128,-1,12
 288 199 288 199 243.5 213 c 128,-1,13
 199 227 199 227 175.5 237 c 128,-1,14
 152 247 152 247 122 266 c 0,15,16
 61 304 61 304 61 378.5 c 128,-1,17
 61 453 61 453 121 500 c 128,-1,18
 181 547 181 547 276 547 c 128,-1,19
 371 547 371 547 466 483 c 1,20,-1
 410 383 l 1,21,22
 340 431 340 431 270.5 431 c 128,-1,23
 201 431 201 431 201 393 c 0,24,25
 201 372 201 372 223 360 c 128,-1,26
 245 348 245 348 296 332 c 128,-1,27
 347 316 347 316 368.5 307.5 c 128,-1,28
 390 299 390 299 420 281 c 0,29,30
 476 247 476 247 476 167.5 c 128,-1,0
 476 88 476 88 417.5 40 c 128,-1,1
EndSplineSet
EndChar

StartChar: t
Encoding: 116 116 89
Width: 440
Flags: W
LayerCount: 2
Back
Fore
SplineSet
250 430 m 1,0,-1
 250 189 l 2,1,2
 250 158 250 158 266 140.5 c 128,-1,3
 282 123 282 123 304 123 c 0,4,5
 346 123 346 123 375 161 c 1,6,-1
 431 56 l 1,7,8
 361 -8 361 -8 283.5 -8 c 128,-1,9
 206 -8 206 -8 152.5 43 c 128,-1,10
 99 94 99 94 99 182 c 2,11,-1
 99 430 l 1,12,-1
 36 430 l 1,13,-1
 36 538 l 1,14,-1
 99 538 l 1,15,-1
 99 699 l 1,16,-1
 250 699 l 1,17,-1
 250 538 l 1,18,-1
 380 538 l 1,19,-1
 380 430 l 1,20,-1
 250 430 l 1,0,-1
EndSplineSet
EndChar

StartChar: u
Encoding: 117 117 90
Width: 640
Flags: W
LayerCount: 2
Back
Fore
SplineSet
418 248 m 2,0,-1
 418 538 l 1,1,-1
 569 538 l 1,2,-1
 569 0 l 1,3,-1
 418 0 l 1,4,-1
 418 71 l 1,5,6
 362 -8 362 -8 273.5 -8 c 128,-1,7
 185 -8 185 -8 125 47.5 c 128,-1,8
 65 103 65 103 65 212 c 2,9,-1
 65 538 l 1,10,-1
 216 538 l 1,11,-1
 216 245 l 2,12,13
 216 121 216 121 307 121 c 0,14,15
 352 121 352 121 385 153.5 c 128,-1,16
 418 186 418 186 418 248 c 2,0,-1
EndSplineSet
EndChar

StartChar: v
Encoding: 118 118 91
Width: 586
Flags: W
LayerCount: 2
Back
Fore
SplineSet
216 0 m 1,0,-1
 3 539 l 1,1,-1
 159 539 l 1,2,-1
 293 200 l 1,3,-1
 427 539 l 1,4,-1
 583 539 l 1,5,-1
 370 0 l 1,6,-1
 216 0 l 1,0,-1
EndSplineSet
EndChar

StartChar: w
Encoding: 119 119 92
Width: 902
Flags: W
LayerCount: 2
Back
Fore
SplineSet
351 0 m 1,0,-1
 196 0 l 1,1,-1
 13 538 l 1,2,-1
 168 538 l 1,3,-1
 273 213 l 1,4,-1
 378 538 l 1,5,-1
 523 538 l 1,6,-1
 628 213 l 1,7,-1
 733 538 l 1,8,-1
 889 538 l 1,9,-1
 706 0 l 1,10,-1
 550 0 l 1,11,-1
 451 293 l 1,12,-1
 351 0 l 1,0,-1
EndSplineSet
EndChar

StartChar: x
Encoding: 120 120 93
Width: 585
Flags: W
LayerCount: 2
Back
Fore
SplineSet
202 538 m 1,0,-1
 294 394 l 1,1,-1
 389 538 l 1,2,-1
 565 538 l 1,3,-1
 380 275 l 1,4,-1
 572 0 l 1,5,-1
 393 0 l 1,6,-1
 288 148 l 1,7,-1
 186 0 l 1,8,-1
 13 0 l 1,9,-1
 201 274 l 1,10,-1
 23 538 l 1,11,-1
 202 538 l 1,0,-1
EndSplineSet
EndChar

StartChar: y
Encoding: 121 121 94
Width: 590
Flags: W
LayerCount: 2
Back
Fore
SplineSet
164 -212 m 0,0,1
 85 -212 85 -212 15 -148 c 1,2,-1
 83 -37 l 1,3,4
 121 -74 121 -74 161 -74 c 0,5,6
 182 -74 182 -74 197 -53.5 c 128,-1,7
 212 -33 212 -33 212 -10 c 128,-1,8
 212 13 212 13 4 538 c 1,9,-1
 164 538 l 1,10,-1
 295 203 l 1,11,-1
 426 538 l 1,12,-1
 586 538 l 1,13,-1
 336 -96 l 2,14,15
 314 -151 314 -151 267.5 -181.5 c 128,-1,16
 221 -212 221 -212 164 -212 c 0,0,1
EndSplineSet
EndChar

StartChar: z
Encoding: 122 122 95
Width: 553
Flags: W
LayerCount: 2
Back
Fore
SplineSet
61 414 m 1,0,-1
 61 538 l 1,1,-1
 495 538 l 1,2,-1
 495 421 l 1,3,-1
 234 125 l 1,4,-1
 510 125 l 1,5,-1
 510 0 l 1,6,-1
 42 0 l 1,7,-1
 42 124 l 1,8,-1
 296 414 l 1,9,-1
 61 414 l 1,0,-1
EndSplineSet
EndChar

StartChar: braceleft
Encoding: 123 123 96
Width: 360
Flags: W
LayerCount: 2
Back
Fore
SplineSet
311 635 m 1,0,-1
 290 636 l 2,1,2
 246 636 246 636 246 597 c 2,3,-1
 246 388 l 2,4,5
 246 335 246 335 209 310 c 1,6,7
 246 286 246 286 246 233 c 2,8,-1
 246 15 l 2,9,10
 246 -18 246 -18 311 -18 c 1,11,-1
 311 -140 l 1,12,-1
 256 -140 l 2,13,14
 106 -140 106 -140 106 3 c 2,15,-1
 106 208 l 2,16,17
 106 249 106 249 83 249 c 2,18,-1
 37 249 l 1,19,-1
 37 371 l 1,20,-1
 83 371 l 2,21,22
 106 371 106 371 106 413 c 2,23,-1
 106 614 l 2,24,25
 106 757 106 757 256 757 c 2,26,-1
 311 757 l 1,27,-1
 311 635 l 1,0,-1
EndSplineSet
EndChar

StartChar: bar
Encoding: 124 124 97
Width: 276
Flags: W
LayerCount: 2
Back
Fore
SplineSet
76 -146 m 1,0,-1
 76 777 l 1,1,-1
 200 777 l 1,2,-1
 200 -146 l 1,3,-1
 76 -146 l 1,0,-1
EndSplineSet
EndChar

StartChar: braceright
Encoding: 125 125 98
Width: 360
Flags: W
LayerCount: 2
Back
Fore
SplineSet
49 -18 m 1,0,-1
 70 -19 l 2,1,2
 114 -19 114 -19 114 20 c 2,3,-1
 114 229 l 2,4,5
 114 282 114 282 151 307 c 1,6,7
 114 331 114 331 114 384 c 2,8,-1
 114 602 l 2,9,10
 114 635 114 635 49 635 c 1,11,-1
 49 757 l 1,12,-1
 104 757 l 2,13,14
 254 757 254 757 254 614 c 2,15,-1
 254 409 l 2,16,17
 254 368 254 368 277 368 c 2,18,-1
 323 368 l 1,19,-1
 323 246 l 1,20,-1
 277 246 l 2,21,22
 254 246 254 246 254 204 c 2,23,-1
 254 3 l 2,24,25
 254 -140 254 -140 104 -140 c 2,26,-1
 49 -140 l 1,27,-1
 49 -18 l 1,0,-1
EndSplineSet
EndChar

StartChar: asciitilde
Encoding: 126 126 99
Width: 535
Flags: W
LayerCount: 2
Back
Fore
SplineSet
357 414 m 0,0,1
 390 414 390 414 390 457 c 0,2,3
 390 467 390 467 387 479 c 1,4,-1
 507 447 l 1,5,6
 501 364 501 364 463 326.5 c 128,-1,7
 425 289 425 289 368 289 c 0,8,9
 334 289 334 289 270.5 321.5 c 128,-1,10
 207 354 207 354 188 354 c 128,-1,11
 169 354 169 354 156 335 c 128,-1,12
 143 316 143 316 144 281 c 1,13,-1
 25 317 l 1,14,15
 32 397 32 397 72 437.5 c 128,-1,16
 112 478 112 478 175 478 c 0,17,18
 211 478 211 478 273 446 c 128,-1,19
 335 414 335 414 357 414 c 0,0,1
EndSplineSet
EndChar

StartChar: exclamdown
Encoding: 161 161 100
Width: 318
Flags: W
LayerCount: 2
Back
Fore
SplineSet
248 0 m 1,0,-1
 71 0 l 1,1,-1
 71 132 l 1,2,-1
 100 492 l 1,3,-1
 218 492 l 1,4,-1
 248 132 l 1,5,-1
 248 0 l 1,0,-1
71 627 m 128,-1,7
 71 664 71 664 96.5 689.5 c 128,-1,8
 122 715 122 715 159 715 c 128,-1,9
 196 715 196 715 221.5 689.5 c 128,-1,10
 247 664 247 664 247 627 c 128,-1,11
 247 590 247 590 221.5 564.5 c 128,-1,12
 196 539 196 539 159 539 c 128,-1,13
 122 539 122 539 96.5 564.5 c 128,-1,6
 71 590 71 590 71 627 c 128,-1,7
EndSplineSet
EndChar

StartChar: cent
Encoding: 162 162 101
Width: 598
Flags: W
LayerCount: 2
Back
Fore
SplineSet
376 -117 m 1,0,-1
 280 -117 l 1,1,-1
 280 -4 l 1,2,3
 181 12 181 12 113.5 85 c 128,-1,4
 46 158 46 158 46 268 c 128,-1,5
 46 378 46 378 113 452 c 128,-1,6
 180 526 180 526 280 542 c 1,7,-1
 280 657 l 1,8,-1
 376 657 l 1,9,-1
 376 543 l 1,10,11
 478 528 478 528 553 452 c 1,12,-1
 475 350 l 1,13,14
 434 397 434 397 376 410 c 1,15,-1
 376 131 l 1,16,17
 402 139 402 139 425.5 156 c 128,-1,18
 449 173 449 173 460 186 c 2,19,-1
 470 200 l 1,20,-1
 559 100 l 1,21,22
 476 13 476 13 376 -3 c 1,23,-1
 376 -117 l 1,0,-1
217 354.5 m 128,-1,25
 193 320 193 320 193 269.5 c 128,-1,26
 193 219 193 219 217 184 c 128,-1,27
 241 149 241 149 280 135 c 1,28,-1
 280 404 l 1,29,24
 241 389 241 389 217 354.5 c 128,-1,25
EndSplineSet
EndChar

StartChar: sterling
Encoding: 163 163 102
Width: 628
Flags: W
LayerCount: 2
Back
Fore
SplineSet
295 508 m 2,0,-1
 295 399 l 1,1,-1
 451 399 l 1,2,-1
 451 273 l 1,3,-1
 295 273 l 1,4,-1
 295 133 l 1,5,-1
 573 133 l 1,6,-1
 573 0 l 1,7,-1
 62 0 l 1,8,-1
 62 133 l 1,9,-1
 138 133 l 1,10,-1
 138 273 l 1,11,-1
 58 273 l 1,12,-1
 58 399 l 1,13,-1
 138 399 l 1,14,-1
 138 502 l 2,15,16
 138 626 138 626 201.5 682.5 c 128,-1,17
 265 739 265 739 368 739 c 0,18,19
 506 739 506 739 578 613 c 1,20,-1
 467 523 l 1,21,22
 451 560 451 560 426 581 c 128,-1,23
 401 602 401 602 371 602 c 128,-1,24
 341 602 341 602 318 579.5 c 128,-1,25
 295 557 295 557 295 508 c 2,0,-1
EndSplineSet
EndChar

StartChar: currency
Encoding: 164 164 103
Width: 761
Flags: W
LayerCount: 2
Back
Fore
SplineSet
142 163 m 1,0,1
 96 230 96 230 96 316.5 c 128,-1,2
 96 403 96 403 140 470 c 1,3,-1
 56 555 l 1,4,-1
 150 650 l 1,5,-1
 239 561 l 1,6,7
 304 596 304 596 381 596 c 128,-1,8
 458 596 458 596 522 560 c 1,9,-1
 611 650 l 1,10,-1
 705 555 l 1,11,-1
 621 469 l 1,12,13
 665 401 665 401 665 316.5 c 128,-1,14
 665 232 665 232 618 163 c 1,15,-1
 705 75 l 1,16,-1
 612 -20 l 1,17,-1
 519 74 l 1,18,19
 453 40 453 40 378.5 40 c 128,-1,20
 304 40 304 40 242 74 c 1,21,-1
 149 -20 l 1,22,-1
 56 75 l 1,23,-1
 142 163 l 1,0,1
380 174 m 128,-1,25
 436 174 436 174 472 214.5 c 128,-1,26
 508 255 508 255 508 318 c 128,-1,27
 508 381 508 381 472 421 c 128,-1,28
 436 461 436 461 380 461 c 128,-1,29
 324 461 324 461 288 421 c 128,-1,30
 252 381 252 381 252 318 c 128,-1,31
 252 255 252 255 288 214.5 c 128,-1,24
 324 174 324 174 380 174 c 128,-1,25
EndSplineSet
EndChar

StartChar: yen
Encoding: 165 165 104
Width: 741
Flags: W
LayerCount: 2
Back
Fore
SplineSet
108 224 m 1,0,-1
 286 224 l 1,1,-1
 286 279 l 1,2,-1
 108 279 l 1,3,-1
 108 375 l 1,4,-1
 222 375 l 1,5,-1
 34 698 l 1,6,-1
 204 698 l 1,7,-1
 369 413 l 1,8,-1
 540 698 l 1,9,-1
 709 698 l 1,10,-1
 515 375 l 1,11,-1
 625 375 l 1,12,-1
 625 279 l 1,13,-1
 449 279 l 1,14,-1
 449 224 l 1,15,-1
 625 224 l 1,16,-1
 625 128 l 1,17,-1
 449 128 l 1,18,-1
 449 0 l 1,19,-1
 286 0 l 1,20,-1
 286 128 l 1,21,-1
 108 128 l 1,22,-1
 108 224 l 1,0,-1
EndSplineSet
EndChar

StartChar: brokenbar
Encoding: 166 166 105
Width: 294
Flags: W
LayerCount: 2
Back
Fore
SplineSet
80 409 m 1,0,-1
 80 754 l 1,1,-1
 214 754 l 1,2,-1
 214 409 l 1,3,-1
 80 409 l 1,0,-1
80 -23 m 1,4,-1
 80 321 l 1,5,-1
 214 321 l 1,6,-1
 214 -23 l 1,7,-1
 80 -23 l 1,4,-1
EndSplineSet
EndChar

StartChar: section
Encoding: 167 167 106
Width: 622
Flags: W
LayerCount: 2
Back
Fore
SplineSet
255.5 602 m 128,-1,1
 237 587 237 587 237 561.5 c 128,-1,2
 237 536 237 536 260.5 520.5 c 128,-1,3
 284 505 284 505 354 487 c 0,4,5
 474 458 474 458 526 417.5 c 128,-1,6
 578 377 578 377 578 301 c 0,7,8
 578 200 578 200 476 158 c 1,9,10
 540 115 540 115 540 42.5 c 128,-1,11
 540 -30 540 -30 479 -81 c 128,-1,12
 418 -132 418 -132 316 -132 c 0,13,14
 173 -132 173 -132 53 -23 c 1,15,-1
 137 78 l 1,16,17
 242 -10 242 -10 319 -10 c 128,-1,18
 396 -10 396 -10 396 38 c 0,19,20
 396 62 396 62 368 79 c 128,-1,21
 340 96 340 96 250.5 122 c 128,-1,22
 161 148 161 148 105.5 190.5 c 128,-1,23
 50 233 50 233 50 314 c 0,24,25
 50 356 50 356 74.5 393.5 c 128,-1,26
 99 431 99 431 145 451 c 1,27,28
 91 489 91 489 91 554 c 0,29,30
 91 636 91 636 152 687.5 c 128,-1,31
 213 739 213 739 308 739 c 0,32,33
 374 739 374 739 426 720.5 c 128,-1,34
 478 702 478 702 535 660 c 1,35,-1
 460 553 l 1,36,37
 376 617 376 617 306 617 c 0,38,0
 274 617 274 617 255.5 602 c 128,-1,1
183 318 m 0,39,40
 183 280 183 280 231.5 255.5 c 128,-1,41
 280 231 280 231 355 231 c 0,42,43
 393 231 393 231 419 247.5 c 128,-1,44
 445 264 445 264 445 291 c 0,45,46
 445 332 445 332 385.5 352 c 128,-1,47
 326 372 326 372 278 372 c 0,48,49
 183 372 183 372 183 318 c 0,39,40
EndSplineSet
EndChar

StartChar: dieresis
Encoding: 168 168 107
Width: 531
Flags: W
LayerCount: 2
Back
Fore
SplineSet
95 691 m 128,-1,1
 95 722 95 722 116.5 743.5 c 128,-1,2
 138 765 138 765 169 765 c 128,-1,3
 200 765 200 765 221.5 743.5 c 128,-1,4
 243 722 243 722 243 691 c 128,-1,5
 243 660 243 660 221.5 638.5 c 128,-1,6
 200 617 200 617 169 617 c 128,-1,7
 138 617 138 617 116.5 638.5 c 128,-1,0
 95 660 95 660 95 691 c 128,-1,1
288 691 m 128,-1,9
 288 722 288 722 309.5 743.5 c 128,-1,10
 331 765 331 765 362 765 c 128,-1,11
 393 765 393 765 414.5 743.5 c 128,-1,12
 436 722 436 722 436 691 c 128,-1,13
 436 660 436 660 414.5 638.5 c 128,-1,14
 393 617 393 617 362 617 c 128,-1,15
 331 617 331 617 309.5 638.5 c 128,-1,8
 288 660 288 660 288 691 c 128,-1,9
EndSplineSet
EndChar

StartChar: copyright
Encoding: 169 169 108
Width: 824
Flags: W
LayerCount: 2
Back
Fore
SplineSet
773 350 m 128,-1,1
 773 201 773 201 667.5 94.5 c 128,-1,2
 562 -12 562 -12 411 -12 c 128,-1,3
 260 -12 260 -12 155.5 93.5 c 128,-1,4
 51 199 51 199 51 348 c 128,-1,5
 51 497 51 497 156.5 604 c 128,-1,6
 262 711 262 711 412 711 c 128,-1,7
 562 711 562 711 667.5 605 c 128,-1,0
 773 499 773 499 773 350 c 128,-1,1
699 350 m 128,-1,9
 699 468 699 468 615 552 c 128,-1,10
 531 636 531 636 412.5 636 c 128,-1,11
 294 636 294 636 209.5 551 c 128,-1,12
 125 466 125 466 125 348 c 128,-1,13
 125 230 125 230 208 146 c 128,-1,14
 291 62 291 62 411 62 c 128,-1,15
 531 62 531 62 615 147 c 128,-1,8
 699 232 699 232 699 350 c 128,-1,9
416 146 m 0,16,17
 332 146 332 146 271 203 c 128,-1,18
 210 260 210 260 210 352 c 128,-1,19
 210 444 210 444 273 501.5 c 128,-1,20
 336 559 336 559 428 559 c 128,-1,21
 520 559 520 559 588 488 c 1,22,-1
 528 413 l 1,23,24
 488 461 488 461 427 461 c 0,25,26
 384 461 384 461 353.5 432.5 c 128,-1,27
 323 404 323 404 323 353.5 c 128,-1,28
 323 303 323 303 354.5 273.5 c 128,-1,29
 386 244 386 244 430 244 c 0,30,31
 495 244 495 244 530 302 c 1,32,-1
 592 227 l 1,33,34
 515 146 515 146 416 146 c 0,16,17
EndSplineSet
EndChar

StartChar: ordfeminine
Encoding: 170 170 109
Width: 358
Flags: W
LayerCount: 2
Back
Fore
SplineSet
289 458 m 1,0,-1
 215 458 l 1,1,-1
 215 489 l 1,2,3
 193 455 193 455 150 455 c 128,-1,4
 107 455 107 455 79 478 c 128,-1,5
 51 501 51 501 51 539 c 128,-1,6
 51 577 51 577 80.5 596.5 c 128,-1,7
 110 616 110 616 160 616 c 2,8,-1
 211 616 l 1,9,-1
 211 619 l 2,10,11
 211 662 211 662 173 662 c 0,12,13
 143 662 143 662 111 648 c 2,14,-1
 101 643 l 1,15,-1
 77 687 l 1,16,17
 120 715 120 715 174 715 c 0,18,19
 289 715 289 715 289 620 c 2,20,-1
 289 458 l 1,0,-1
210 554 m 2,21,-1
 210 569 l 1,22,-1
 166 569 l 2,23,24
 130 569 130 569 130 539 c 0,25,26
 130 525 130 525 139 517 c 128,-1,27
 148 509 148 509 165.5 509 c 128,-1,28
 183 509 183 509 196.5 521 c 128,-1,29
 210 533 210 533 210 554 c 2,21,-1
EndSplineSet
EndChar

StartChar: guillemotleft
Encoding: 171 171 110
Width: 604
Flags: W
LayerCount: 2
Back
Fore
SplineSet
321 429 m 1,0,-1
 203 245 l 1,1,-1
 321 60 l 1,2,-1
 170 60 l 1,3,-1
 48 245 l 1,4,-1
 170 429 l 1,5,-1
 321 429 l 1,0,-1
546 429 m 1,6,-1
 428 245 l 1,7,-1
 546 60 l 1,8,-1
 395 60 l 1,9,-1
 273 245 l 1,10,-1
 395 429 l 1,11,-1
 546 429 l 1,6,-1
EndSplineSet
EndChar

StartChar: logicalnot
Encoding: 172 172 111
Width: 817
Flags: W
LayerCount: 2
Back
Fore
SplineSet
63 445 m 1,0,-1
 732 445 l 1,1,-1
 732 88 l 1,2,-1
 620 88 l 1,3,-1
 620 327 l 1,4,-1
 63 327 l 1,5,-1
 63 445 l 1,0,-1
EndSplineSet
EndChar

StartChar: registered
Encoding: 174 174 112
Width: 824
Flags: W
LayerCount: 2
Back
Fore
SplineSet
773 350 m 128,-1,1
 773 201 773 201 667.5 94.5 c 128,-1,2
 562 -12 562 -12 411 -12 c 128,-1,3
 260 -12 260 -12 155.5 93.5 c 128,-1,4
 51 199 51 199 51 348 c 128,-1,5
 51 497 51 497 156.5 604 c 128,-1,6
 262 711 262 711 412 711 c 128,-1,7
 562 711 562 711 667.5 605 c 128,-1,0
 773 499 773 499 773 350 c 128,-1,1
619 151 m 1,8,9
 699 234 699 234 699 351 c 128,-1,10
 699 468 699 468 615 552 c 128,-1,11
 531 636 531 636 412.5 636 c 128,-1,12
 294 636 294 636 209.5 551 c 128,-1,13
 125 466 125 466 125 348 c 128,-1,14
 125 230 125 230 208 146 c 128,-1,15
 291 62 291 62 412 62 c 128,-1,16
 533 62 533 62 617 149 c 1,17,-1
 501 149 l 1,18,-1
 414 274 l 1,19,-1
 370 274 l 1,20,-1
 370 149 l 1,21,-1
 260 149 l 1,22,-1
 260 555 l 1,23,-1
 421 555 l 2,24,25
 517 555 517 555 558 522 c 128,-1,26
 599 489 599 489 599 416 c 0,27,28
 599 327 599 327 518 292 c 1,29,-1
 619 151 l 1,8,9
476 376.5 m 128,-1,31
 490 389 490 389 490 416.5 c 128,-1,32
 490 444 490 444 475.5 454.5 c 128,-1,33
 461 465 461 465 425 465 c 2,34,-1
 370 465 l 1,35,-1
 370 364 l 1,36,-1
 423 364 l 2,37,30
 462 364 462 364 476 376.5 c 128,-1,31
EndSplineSet
EndChar

StartChar: macron
Encoding: 175 175 113
Width: 442
Flags: W
LayerCount: 2
Back
Fore
SplineSet
388 687 m 1,0,-1
 388 571 l 1,1,-1
 55 571 l 1,2,-1
 55 687 l 1,3,-1
 388 687 l 1,0,-1
EndSplineSet
EndChar

StartChar: degree
Encoding: 176 176 114
Width: 428
Flags: W
LayerCount: 2
Back
Fore
SplineSet
214 714 m 128,-1,1
 283 714 283 714 332 666 c 128,-1,2
 381 618 381 618 381 550.5 c 128,-1,3
 381 483 381 483 332 435.5 c 128,-1,4
 283 388 283 388 214 388 c 128,-1,5
 145 388 145 388 96 435.5 c 128,-1,6
 47 483 47 483 47 550.5 c 128,-1,7
 47 618 47 618 96 666 c 128,-1,0
 145 714 145 714 214 714 c 128,-1,1
163 493.5 m 128,-1,9
 184 470 184 470 214 470 c 128,-1,10
 244 470 244 470 264.5 493 c 128,-1,11
 285 516 285 516 285 550 c 128,-1,12
 285 584 285 584 264.5 607 c 128,-1,13
 244 630 244 630 214 630 c 128,-1,14
 184 630 184 630 163 607 c 128,-1,15
 142 584 142 584 142 550.5 c 128,-1,8
 142 517 142 517 163 493.5 c 128,-1,9
EndSplineSet
EndChar

StartChar: plusminus
Encoding: 177 177 115
Width: 581
Flags: W
LayerCount: 2
Back
Fore
SplineSet
221 652 m 1,0,-1
 359 652 l 1,1,-1
 359 508 l 1,2,-1
 533 508 l 1,3,-1
 533 391 l 1,4,-1
 359 391 l 1,5,-1
 359 252 l 1,6,-1
 221 252 l 1,7,-1
 221 391 l 1,8,-1
 48 391 l 1,9,-1
 48 508 l 1,10,-1
 221 508 l 1,11,-1
 221 652 l 1,0,-1
48 202 m 1,12,-1
 533 202 l 1,13,-1
 533 89 l 1,14,-1
 48 89 l 1,15,-1
 48 202 l 1,12,-1
EndSplineSet
EndChar

StartChar: twosuperior
Encoding: 178 178 116
Width: 439
Flags: W
LayerCount: 2
Back
Fore
SplineSet
240 542.5 m 128,-1,1
 255 563 255 563 255 581 c 128,-1,2
 255 599 255 599 244 611 c 128,-1,3
 233 623 233 623 216 623 c 0,4,5
 183 623 183 623 146 564 c 1,6,-1
 59 616 l 1,7,8
 91 665 91 665 127.5 690 c 128,-1,9
 164 715 164 715 220.5 715 c 128,-1,10
 277 715 277 715 320 679.5 c 128,-1,11
 363 644 363 644 363 583 c 0,12,13
 363 551 363 551 346 521 c 128,-1,14
 329 491 329 491 284 444 c 2,15,-1
 222 379 l 1,16,-1
 375 379 l 1,17,-1
 375 283 l 1,18,-1
 68 283 l 1,19,-1
 68 360 l 1,20,-1
 190 486 l 2,21,0
 225 522 225 522 240 542.5 c 128,-1,1
EndSplineSet
EndChar

StartChar: threesuperior
Encoding: 179 179 117
Width: 436
Flags: W
LayerCount: 2
Back
Fore
SplineSet
76 607 m 1,0,-1
 76 699 l 1,1,-1
 348 699 l 1,2,-1
 348 626 l 1,3,-1
 269 535 l 1,4,5
 316 523 316 523 341.5 488.5 c 128,-1,6
 367 454 367 454 367 411 c 0,7,8
 367 344 367 344 320.5 305 c 128,-1,9
 274 266 274 266 201.5 266 c 128,-1,10
 129 266 129 266 51 320 c 1,11,-1
 97 403 l 1,12,13
 154 360 154 360 204 360 c 0,14,15
 228 360 228 360 243.5 372 c 128,-1,16
 259 384 259 384 259 408 c 128,-1,17
 259 432 259 432 237.5 444.5 c 128,-1,18
 216 457 216 457 183 457 c 128,-1,19
 150 457 150 457 125 445 c 1,20,-1
 125 520 l 1,21,-1
 198 607 l 1,22,-1
 76 607 l 1,0,-1
EndSplineSet
EndChar

StartChar: acute
Encoding: 180 180 118
Width: 382
Flags: W
LayerCount: 2
Back
Fore
SplineSet
193 771 m 1,0,-1
 50 771 l 1,1,-1
 177 948 l 1,2,-1
 332 883 l 1,3,-1
 193 771 l 1,0,-1
EndSplineSet
EndChar

StartChar: mu
Encoding: 181 181 119
Width: 647
Flags: W
LayerCount: 2
Back
Fore
SplineSet
79 -185 m 1,0,-1
 79 538 l 1,1,-1
 230 538 l 1,2,-1
 230 245 l 2,3,4
 230 121 230 121 321 121 c 0,5,6
 366 121 366 121 399 153.5 c 128,-1,7
 432 186 432 186 432 248 c 2,8,-1
 432 538 l 1,9,-1
 583 538 l 1,10,-1
 583 0 l 1,11,-1
 432 0 l 1,12,-1
 432 45 l 1,13,14
 373 -8 373 -8 290 -8 c 0,15,16
 255 -8 255 -8 230 -1 c 1,17,-1
 230 -185 l 1,18,-1
 79 -185 l 1,0,-1
EndSplineSet
EndChar

StartChar: paragraph
Encoding: 182 182 120
Width: 712
Flags: W
LayerCount: 2
Back
Fore
SplineSet
34 548 m 0,0,1
 34 636 34 636 94.5 696 c 128,-1,2
 155 756 155 756 279 756 c 2,3,-1
 621 756 l 1,4,-1
 621 -105 l 1,5,-1
 488 -105 l 1,6,-1
 488 632 l 1,7,-1
 390 632 l 1,8,-1
 390 -105 l 1,9,-1
 260 -105 l 1,10,-1
 260 348 l 1,11,-1
 240 348 l 2,12,13
 110 348 110 348 60 444 c 0,14,15
 34 493 34 493 34 548 c 0,0,1
EndSplineSet
EndChar

StartChar: periodcentered
Encoding: 183 183 121
Width: 298
Flags: W
LayerCount: 2
Back
Fore
SplineSet
61 318 m 128,-1,1
 61 355 61 355 86.5 380.5 c 128,-1,2
 112 406 112 406 149 406 c 128,-1,3
 186 406 186 406 211.5 380.5 c 128,-1,4
 237 355 237 355 237 318 c 128,-1,5
 237 281 237 281 211.5 255.5 c 128,-1,6
 186 230 186 230 149 230 c 128,-1,7
 112 230 112 230 86.5 255.5 c 128,-1,0
 61 281 61 281 61 318 c 128,-1,1
EndSplineSet
EndChar

StartChar: cedilla
Encoding: 184 184 122
Width: 281
Flags: W
LayerCount: 2
Back
Fore
SplineSet
244 -127 m 0,0,1
 244 -170 244 -170 208.5 -202 c 128,-1,2
 173 -234 173 -234 119 -234 c 128,-1,3
 65 -234 65 -234 14 -202 c 1,4,-1
 52 -116 l 1,5,6
 74 -135 74 -135 91 -135 c 128,-1,7
 108 -135 108 -135 117.5 -126 c 128,-1,8
 127 -117 127 -117 127 -103.5 c 128,-1,9
 127 -90 127 -90 115 -79.5 c 128,-1,10
 103 -69 103 -69 86.5 -69 c 128,-1,11
 70 -69 70 -69 51 -78 c 1,12,-1
 92 0 l 1,13,-1
 207 0 l 1,14,-1
 179 -51 l 1,15,16
 244 -73 244 -73 244 -127 c 0,0,1
EndSplineSet
EndChar

StartChar: onesuperior
Encoding: 185 185 123
Width: 298
Flags: W
LayerCount: 2
Back
Fore
SplineSet
40 699 m 1,0,-1
 225 699 l 1,1,-1
 225 276 l 1,2,-1
 118 276 l 1,3,-1
 118 608 l 1,4,-1
 40 608 l 1,5,-1
 40 699 l 1,0,-1
EndSplineSet
EndChar

StartChar: ordmasculine
Encoding: 186 186 124
Width: 393
Flags: W
LayerCount: 2
Back
Fore
SplineSet
159.5 530 m 128,-1,1
 174 513 174 513 196.5 513 c 128,-1,2
 219 513 219 513 233.5 530 c 128,-1,3
 248 547 248 547 248 574.5 c 128,-1,4
 248 602 248 602 233.5 619.5 c 128,-1,5
 219 637 219 637 196.5 637 c 128,-1,6
 174 637 174 637 159.5 619.5 c 128,-1,7
 145 602 145 602 145 574.5 c 128,-1,0
 145 547 145 547 159.5 530 c 128,-1,1
302 474.5 m 128,-1,9
 260 434 260 434 196.5 434 c 128,-1,10
 133 434 133 434 91 475 c 128,-1,11
 49 516 49 516 49 574.5 c 128,-1,12
 49 633 49 633 91 674 c 128,-1,13
 133 715 133 715 196.5 715 c 128,-1,14
 260 715 260 715 302 674 c 128,-1,15
 344 633 344 633 344 574 c 128,-1,8
 344 515 344 515 302 474.5 c 128,-1,9
EndSplineSet
EndChar

StartChar: guillemotright
Encoding: 187 187 125
Width: 604
Flags: W
LayerCount: 2
Back
Fore
SplineSet
401 245 m 1,0,-1
 283 429 l 1,1,-1
 434 429 l 1,2,-1
 556 245 l 1,3,-1
 434 60 l 1,4,-1
 283 60 l 1,5,-1
 401 245 l 1,0,-1
176 245 m 1,6,-1
 58 429 l 1,7,-1
 209 429 l 1,8,-1
 331 245 l 1,9,-1
 209 60 l 1,10,-1
 58 60 l 1,11,-1
 176 245 l 1,6,-1
EndSplineSet
EndChar

StartChar: onequarter
Encoding: 188 188 126
Width: 855
Flags: W
LayerCount: 2
Back
Fore
SplineSet
562 754 m 1,0,-1
 677 754 l 1,1,-1
 313 -8 l 1,2,-1
 198 -8 l 1,3,-1
 562 754 l 1,0,-1
36 698 m 1,4,-1
 220 698 l 1,5,-1
 220 276 l 1,6,-1
 113 276 l 1,7,-1
 113 607 l 1,8,-1
 36 607 l 1,9,-1
 36 698 l 1,4,-1
681 262 m 1,10,-1
 772 262 l 1,11,-1
 772 178 l 1,12,-1
 818 178 l 1,13,-1
 818 98 l 1,14,-1
 772 98 l 1,15,-1
 772 0 l 1,16,-1
 681 0 l 1,17,-1
 681 98 l 1,18,-1
 502 98 l 1,19,-1
 502 175 l 1,20,-1
 649 422 l 1,21,-1
 759 422 l 1,22,-1
 613 178 l 1,23,-1
 681 178 l 1,24,-1
 681 262 l 1,10,-1
EndSplineSet
EndChar

StartChar: onehalf
Encoding: 189 189 127
Width: 878
Flags: W
LayerCount: 2
Back
Fore
SplineSet
551 754 m 1,0,-1
 667 754 l 1,1,-1
 303 -8 l 1,2,-1
 187 -8 l 1,3,-1
 551 754 l 1,0,-1
36 699 m 1,4,-1
 220 699 l 1,5,-1
 220 276 l 1,6,-1
 113 276 l 1,7,-1
 113 608 l 1,8,-1
 36 608 l 1,9,-1
 36 699 l 1,4,-1
700 259.5 m 128,-1,11
 715 280 715 280 715 298 c 128,-1,12
 715 316 715 316 704 328 c 128,-1,13
 693 340 693 340 676 340 c 0,14,15
 643 340 643 340 606 281 c 1,16,-1
 519 333 l 1,17,18
 551 382 551 382 587.5 407 c 128,-1,19
 624 432 624 432 680.5 432 c 128,-1,20
 737 432 737 432 780 396.5 c 128,-1,21
 823 361 823 361 823 300 c 0,22,23
 823 268 823 268 806 238 c 128,-1,24
 789 208 789 208 744 161 c 2,25,-1
 682 96 l 1,26,-1
 835 96 l 1,27,-1
 835 0 l 1,28,-1
 528 0 l 1,29,-1
 528 77 l 1,30,-1
 650 203 l 2,31,10
 685 239 685 239 700 259.5 c 128,-1,11
EndSplineSet
EndChar

StartChar: threequarters
Encoding: 190 190 128
Width: 901
Flags: W
LayerCount: 2
Back
Fore
SplineSet
607 754 m 1,0,-1
 722 754 l 1,1,-1
 358 -8 l 1,2,-1
 243 -8 l 1,3,-1
 607 754 l 1,0,-1
64 607 m 1,4,-1
 64 699 l 1,5,-1
 336 699 l 1,6,-1
 336 626 l 1,7,-1
 257 535 l 1,8,9
 304 523 304 523 329.5 488.5 c 128,-1,10
 355 454 355 454 355 411 c 0,11,12
 355 344 355 344 308.5 305 c 128,-1,13
 262 266 262 266 189.5 266 c 128,-1,14
 117 266 117 266 39 320 c 1,15,-1
 85 403 l 1,16,17
 142 360 142 360 192 360 c 0,18,19
 216 360 216 360 231.5 372 c 128,-1,20
 247 384 247 384 247 408 c 128,-1,21
 247 432 247 432 225.5 444.5 c 128,-1,22
 204 457 204 457 171 457 c 128,-1,23
 138 457 138 457 113 445 c 1,24,-1
 113 520 l 1,25,-1
 186 607 l 1,26,-1
 64 607 l 1,4,-1
728 262 m 1,27,-1
 819 262 l 1,28,-1
 819 178 l 1,29,-1
 865 178 l 1,30,-1
 865 98 l 1,31,-1
 819 98 l 1,32,-1
 819 0 l 1,33,-1
 728 0 l 1,34,-1
 728 98 l 1,35,-1
 549 98 l 1,36,-1
 549 175 l 1,37,-1
 696 422 l 1,38,-1
 806 422 l 1,39,-1
 660 178 l 1,40,-1
 728 178 l 1,41,-1
 728 262 l 1,27,-1
EndSplineSet
EndChar

StartChar: questiondown
Encoding: 191 191 129
Width: 526
Flags: W
LayerCount: 2
Back
Fore
SplineSet
195 499 m 1,0,-1
 347 499 l 1,1,-1
 347 424 l 2,2,3
 347 383 347 383 336.5 362.5 c 128,-1,4
 326 342 326 342 292 307 c 2,5,-1
 224 237 l 2,6,7
 209 219 209 219 209 190.5 c 128,-1,8
 209 162 209 162 225 143 c 128,-1,9
 241 124 241 124 267 124 c 128,-1,10
 293 124 293 124 310.5 146.5 c 128,-1,11
 328 169 328 169 332 206 c 1,12,-1
 491 206 l 1,13,14
 480 106 480 106 418 49 c 128,-1,15
 356 -8 356 -8 262.5 -8 c 128,-1,16
 169 -8 169 -8 110.5 43 c 128,-1,17
 52 94 52 94 52 184 c 0,18,19
 52 224 52 224 62 243.5 c 128,-1,20
 72 263 72 263 76 271.5 c 128,-1,21
 80 280 80 280 94.5 297 c 128,-1,22
 109 314 109 314 114 318 c 0,23,24
 138 343 138 343 159.5 364 c 128,-1,25
 181 385 181 385 188 398.5 c 128,-1,26
 195 412 195 412 195 439 c 2,27,-1
 195 499 l 1,0,-1
357 627 m 128,-1,29
 357 590 357 590 331.5 564.5 c 128,-1,30
 306 539 306 539 269 539 c 128,-1,31
 232 539 232 539 206.5 564.5 c 128,-1,32
 181 590 181 590 181 627 c 128,-1,33
 181 664 181 664 206.5 689.5 c 128,-1,34
 232 715 232 715 269 715 c 128,-1,35
 306 715 306 715 331.5 689.5 c 128,-1,28
 357 664 357 664 357 627 c 128,-1,29
EndSplineSet
EndChar

StartChar: Agrave
Encoding: 192 192 130
Width: 745
Flags: W
LayerCount: 2
Back
Fore
SplineSet
584 0 m 1,0,-1
 519 151 l 1,1,-1
 226 151 l 1,2,-1
 161 0 l 1,3,-1
 -5 0 l 1,4,-1
 297 699 l 1,5,-1
 448 699 l 1,6,-1
 750 0 l 1,7,-1
 584 0 l 1,0,-1
373 491 m 1,8,-1
 285 288 l 1,9,-1
 460 288 l 1,10,-1
 373 491 l 1,8,-1
448 769 m 1,11,-1
 305 769 l 1,12,-1
 166 881 l 1,13,-1
 320 947 l 1,14,-1
 448 769 l 1,11,-1
EndSplineSet
EndChar

StartChar: Aacute
Encoding: 193 193 131
Width: 745
Flags: W
LayerCount: 2
Back
Fore
SplineSet
584 0 m 1,0,-1
 519 151 l 1,1,-1
 226 151 l 1,2,-1
 161 0 l 1,3,-1
 -5 0 l 1,4,-1
 297 699 l 1,5,-1
 448 699 l 1,6,-1
 750 0 l 1,7,-1
 584 0 l 1,0,-1
373 491 m 1,8,-1
 285 288 l 1,9,-1
 460 288 l 1,10,-1
 373 491 l 1,8,-1
439 771 m 1,11,-1
 296 771 l 1,12,-1
 423 948 l 1,13,-1
 578 883 l 1,14,-1
 439 771 l 1,11,-1
EndSplineSet
EndChar

StartChar: Acircumflex
Encoding: 194 194 132
Width: 745
Flags: W
LayerCount: 2
Back
Fore
SplineSet
584 0 m 1,0,-1
 519 151 l 1,1,-1
 226 151 l 1,2,-1
 161 0 l 1,3,-1
 -5 0 l 1,4,-1
 297 699 l 1,5,-1
 448 699 l 1,6,-1
 750 0 l 1,7,-1
 584 0 l 1,0,-1
373 491 m 1,8,-1
 285 288 l 1,9,-1
 460 288 l 1,10,-1
 373 491 l 1,8,-1
283 769 m 1,11,-1
 160 769 l 1,12,-1
 273 927 l 1,13,-1
 460 927 l 1,14,-1
 573 769 l 1,15,-1
 450 769 l 1,16,-1
 366 850 l 1,17,-1
 283 769 l 1,11,-1
EndSplineSet
EndChar

StartChar: Atilde
Encoding: 195 195 133
Width: 745
Flags: W
LayerCount: 2
Back
Fore
SplineSet
584 0 m 1,0,-1
 519 151 l 1,1,-1
 226 151 l 1,2,-1
 161 0 l 1,3,-1
 -5 0 l 1,4,-1
 297 699 l 1,5,-1
 448 699 l 1,6,-1
 750 0 l 1,7,-1
 584 0 l 1,0,-1
373 491 m 1,8,-1
 285 288 l 1,9,-1
 460 288 l 1,10,-1
 373 491 l 1,8,-1
309 821 m 0,11,12
 278 821 278 821 279 769 c 1,13,-1
 173 769 l 1,14,15
 173 844 173 844 205.5 887 c 128,-1,16
 238 930 238 930 289 930 c 0,17,18
 321 930 321 930 366.5 902.5 c 128,-1,19
 412 875 412 875 422 875 c 0,20,21
 453 875 453 875 452 927 c 1,22,-1
 558 927 l 1,23,24
 558 852 558 852 525.5 809 c 128,-1,25
 493 766 493 766 442 766 c 0,26,27
 411 766 411 766 364 793.5 c 128,-1,28
 317 821 317 821 309 821 c 0,11,12
EndSplineSet
EndChar

StartChar: Adieresis
Encoding: 196 196 134
Width: 745
Flags: W
LayerCount: 2
Back
Fore
SplineSet
584 0 m 1,0,-1
 519 151 l 1,1,-1
 226 151 l 1,2,-1
 161 0 l 1,3,-1
 -5 0 l 1,4,-1
 297 699 l 1,5,-1
 448 699 l 1,6,-1
 750 0 l 1,7,-1
 584 0 l 1,0,-1
373 491 m 1,8,-1
 285 288 l 1,9,-1
 460 288 l 1,10,-1
 373 491 l 1,8,-1
205 847 m 128,-1,12
 205 878 205 878 226.5 899.5 c 128,-1,13
 248 921 248 921 279 921 c 128,-1,14
 310 921 310 921 331.5 899.5 c 128,-1,15
 353 878 353 878 353 847 c 128,-1,16
 353 816 353 816 331.5 794.5 c 128,-1,17
 310 773 310 773 279 773 c 128,-1,18
 248 773 248 773 226.5 794.5 c 128,-1,11
 205 816 205 816 205 847 c 128,-1,12
398 847 m 128,-1,20
 398 878 398 878 419.5 899.5 c 128,-1,21
 441 921 441 921 472 921 c 128,-1,22
 503 921 503 921 524.5 899.5 c 128,-1,23
 546 878 546 878 546 847 c 128,-1,24
 546 816 546 816 524.5 794.5 c 128,-1,25
 503 773 503 773 472 773 c 128,-1,26
 441 773 441 773 419.5 794.5 c 128,-1,19
 398 816 398 816 398 847 c 128,-1,20
EndSplineSet
EndChar

StartChar: Aring
Encoding: 197 197 135
Width: 745
Flags: W
LayerCount: 2
Back
Fore
SplineSet
296 698 m 1,0,1
 266 730 266 730 266 773.5 c 128,-1,2
 266 817 266 817 297.5 848.5 c 128,-1,3
 329 880 329 880 373 880 c 128,-1,4
 417 880 417 880 448.5 848.5 c 128,-1,5
 480 817 480 817 480 773 c 128,-1,6
 480 729 480 729 448 697 c 1,7,-1
 750 0 l 1,8,-1
 584 0 l 1,9,-1
 519 151 l 1,10,-1
 226 151 l 1,11,-1
 161 0 l 1,12,-1
 -5 0 l 1,13,-1
 296 698 l 1,0,1
373 491 m 1,14,-1
 285 288 l 1,15,-1
 460 288 l 1,16,-1
 373 491 l 1,14,-1
338 773 m 128,-1,18
 338 759 338 759 348.5 748.5 c 128,-1,19
 359 738 359 738 373 738 c 128,-1,20
 387 738 387 738 397.5 748.5 c 128,-1,21
 408 759 408 759 408 773 c 128,-1,22
 408 787 408 787 397.5 797.5 c 128,-1,23
 387 808 387 808 373 808 c 128,-1,24
 359 808 359 808 348.5 797.5 c 128,-1,17
 338 787 338 787 338 773 c 128,-1,18
EndSplineSet
EndChar

StartChar: AE
Encoding: 198 198 136
Width: 1023
Flags: W
LayerCount: 2
Back
Fore
SplineSet
960 699 m 1,0,-1
 960 562 l 1,1,-1
 611 562 l 1,2,-1
 611 411 l 1,3,-1
 924 411 l 1,4,-1
 924 280 l 1,5,-1
 611 280 l 1,6,-1
 611 137 l 1,7,-1
 971 137 l 1,8,-1
 971 0 l 1,9,-1
 445 0 l 1,10,-1
 445 151 l 1,11,-1
 247 151 l 1,12,-1
 168 0 l 1,13,-1
 -16 0 l 1,14,-1
 343 699 l 1,15,-1
 960 699 l 1,0,-1
445 292 m 1,16,-1
 445 538 l 1,17,-1
 318 292 l 1,18,-1
 445 292 l 1,16,-1
EndSplineSet
EndChar

StartChar: Ccedilla
Encoding: 199 199 137
Width: 732
Flags: W
LayerCount: 2
Back
Fore
SplineSet
407 138 m 0,0,1
 522 138 522 138 595 229 c 1,2,-1
 695 126 l 1,3,4
 594 12 594 12 453 -5 c 1,5,-1
 427 -53 l 1,6,7
 492 -75 492 -75 492 -129 c 0,8,9
 492 -172 492 -172 456.5 -204 c 128,-1,10
 421 -236 421 -236 367 -236 c 128,-1,11
 313 -236 313 -236 262 -204 c 1,12,-1
 300 -118 l 1,13,14
 322 -137 322 -137 339 -137 c 128,-1,15
 356 -137 356 -137 365.5 -128 c 128,-1,16
 375 -119 375 -119 375 -105.5 c 128,-1,17
 375 -92 375 -92 363 -81.5 c 128,-1,18
 351 -71 351 -71 334.5 -71 c 128,-1,19
 318 -71 318 -71 299 -80 c 1,20,-1
 340 -2 l 1,21,22
 210 20 210 20 127 117.5 c 128,-1,23
 44 215 44 215 44 361 c 128,-1,24
 44 507 44 507 150.5 611 c 128,-1,25
 257 715 257 715 411 715 c 0,26,27
 583 715 583 715 699 584 c 1,28,-1
 602 474 l 1,29,30
 528 566 528 566 418 566 c 0,31,32
 330 566 330 566 267.5 508.5 c 128,-1,33
 205 451 205 451 205 353.5 c 128,-1,34
 205 256 205 256 264 197 c 128,-1,35
 323 138 323 138 407 138 c 0,0,1
EndSplineSet
EndChar

StartChar: Egrave
Encoding: 200 200 138
Width: 654
Flags: W
LayerCount: 2
Back
Fore
SplineSet
590 699 m 1,0,-1
 590 560 l 1,1,-1
 242 560 l 1,2,-1
 242 416 l 1,3,-1
 555 416 l 1,4,-1
 555 283 l 1,5,-1
 242 283 l 1,6,-1
 242 138 l 1,7,-1
 601 138 l 1,8,-1
 601 0 l 1,9,-1
 86 0 l 1,10,-1
 86 699 l 1,11,-1
 590 699 l 1,0,-1
404 769 m 1,12,-1
 261 769 l 1,13,-1
 122 881 l 1,14,-1
 276 947 l 1,15,-1
 404 769 l 1,12,-1
EndSplineSet
EndChar

StartChar: Eacute
Encoding: 201 201 139
Width: 654
Flags: W
LayerCount: 2
Back
Fore
SplineSet
590 699 m 1,0,-1
 590 560 l 1,1,-1
 242 560 l 1,2,-1
 242 416 l 1,3,-1
 555 416 l 1,4,-1
 555 283 l 1,5,-1
 242 283 l 1,6,-1
 242 138 l 1,7,-1
 601 138 l 1,8,-1
 601 0 l 1,9,-1
 86 0 l 1,10,-1
 86 699 l 1,11,-1
 590 699 l 1,0,-1
395 771 m 1,12,-1
 252 771 l 1,13,-1
 379 948 l 1,14,-1
 534 883 l 1,15,-1
 395 771 l 1,12,-1
EndSplineSet
EndChar

StartChar: Ecircumflex
Encoding: 202 202 140
Width: 654
Flags: W
LayerCount: 2
Back
Fore
SplineSet
590 699 m 1,0,-1
 590 560 l 1,1,-1
 242 560 l 1,2,-1
 242 416 l 1,3,-1
 555 416 l 1,4,-1
 555 283 l 1,5,-1
 242 283 l 1,6,-1
 242 138 l 1,7,-1
 601 138 l 1,8,-1
 601 0 l 1,9,-1
 86 0 l 1,10,-1
 86 699 l 1,11,-1
 590 699 l 1,0,-1
239 769 m 1,12,-1
 116 769 l 1,13,-1
 229 927 l 1,14,-1
 416 927 l 1,15,-1
 529 769 l 1,16,-1
 406 769 l 1,17,-1
 322 850 l 1,18,-1
 239 769 l 1,12,-1
EndSplineSet
EndChar

StartChar: Edieresis
Encoding: 203 203 141
Width: 654
Flags: W
LayerCount: 2
Back
Fore
SplineSet
590 699 m 1,0,-1
 590 560 l 1,1,-1
 242 560 l 1,2,-1
 242 416 l 1,3,-1
 555 416 l 1,4,-1
 555 283 l 1,5,-1
 242 283 l 1,6,-1
 242 138 l 1,7,-1
 601 138 l 1,8,-1
 601 0 l 1,9,-1
 86 0 l 1,10,-1
 86 699 l 1,11,-1
 590 699 l 1,0,-1
170 847 m 128,-1,13
 170 878 170 878 191.5 899.5 c 128,-1,14
 213 921 213 921 244 921 c 128,-1,15
 275 921 275 921 296.5 899.5 c 128,-1,16
 318 878 318 878 318 847 c 128,-1,17
 318 816 318 816 296.5 794.5 c 128,-1,18
 275 773 275 773 244 773 c 128,-1,19
 213 773 213 773 191.5 794.5 c 128,-1,12
 170 816 170 816 170 847 c 128,-1,13
363 847 m 128,-1,21
 363 878 363 878 384.5 899.5 c 128,-1,22
 406 921 406 921 437 921 c 128,-1,23
 468 921 468 921 489.5 899.5 c 128,-1,24
 511 878 511 878 511 847 c 128,-1,25
 511 816 511 816 489.5 794.5 c 128,-1,26
 468 773 468 773 437 773 c 128,-1,27
 406 773 406 773 384.5 794.5 c 128,-1,20
 363 816 363 816 363 847 c 128,-1,21
EndSplineSet
EndChar

StartChar: Igrave
Encoding: 204 204 142
Width: 328
Flags: W
LayerCount: 2
Back
Fore
SplineSet
86 699 m 1,0,-1
 242 699 l 1,1,-1
 242 0 l 1,2,-1
 86 0 l 1,3,-1
 86 699 l 1,0,-1
245 769 m 1,4,-1
 102 769 l 1,5,-1
 -37 881 l 1,6,-1
 117 947 l 1,7,-1
 245 769 l 1,4,-1
EndSplineSet
EndChar

StartChar: Iacute
Encoding: 205 205 143
Width: 328
Flags: W
LayerCount: 2
Back
Fore
SplineSet
86 699 m 1,0,-1
 242 699 l 1,1,-1
 242 0 l 1,2,-1
 86 0 l 1,3,-1
 86 699 l 1,0,-1
236 771 m 1,4,-1
 93 771 l 1,5,-1
 220 948 l 1,6,-1
 375 883 l 1,7,-1
 236 771 l 1,4,-1
EndSplineSet
EndChar

StartChar: Icircumflex
Encoding: 206 206 144
Width: 328
Flags: W
LayerCount: 2
Back
Fore
SplineSet
86 699 m 1,0,-1
 242 699 l 1,1,-1
 242 0 l 1,2,-1
 86 0 l 1,3,-1
 86 699 l 1,0,-1
81 770 m 1,4,-1
 -42 770 l 1,5,-1
 71 928 l 1,6,-1
 258 928 l 1,7,-1
 371 770 l 1,8,-1
 248 770 l 1,9,-1
 164 851 l 1,10,-1
 81 770 l 1,4,-1
EndSplineSet
EndChar

StartChar: Idieresis
Encoding: 207 207 145
Width: 328
Flags: W
LayerCount: 2
Back
Fore
SplineSet
86 699 m 1,0,-1
 242 699 l 1,1,-1
 242 0 l 1,2,-1
 86 0 l 1,3,-1
 86 699 l 1,0,-1
-7 847 m 128,-1,5
 -7 878 -7 878 14.5 899.5 c 128,-1,6
 36 921 36 921 67 921 c 128,-1,7
 98 921 98 921 119.5 899.5 c 128,-1,8
 141 878 141 878 141 847 c 128,-1,9
 141 816 141 816 119.5 794.5 c 128,-1,10
 98 773 98 773 67 773 c 128,-1,11
 36 773 36 773 14.5 794.5 c 128,-1,4
 -7 816 -7 816 -7 847 c 128,-1,5
186 847 m 128,-1,13
 186 878 186 878 207.5 899.5 c 128,-1,14
 229 921 229 921 260 921 c 128,-1,15
 291 921 291 921 312.5 899.5 c 128,-1,16
 334 878 334 878 334 847 c 128,-1,17
 334 816 334 816 312.5 794.5 c 128,-1,18
 291 773 291 773 260 773 c 128,-1,19
 229 773 229 773 207.5 794.5 c 128,-1,12
 186 816 186 816 186 847 c 128,-1,13
EndSplineSet
EndChar

StartChar: Eth
Encoding: 208 208 146
Width: 784
Flags: W
LayerCount: 2
Back
Fore
SplineSet
26 280 m 1,0,-1
 26 413 l 1,1,-1
 100 413 l 1,2,-1
 100 699 l 1,3,-1
 347 699 l 2,4,5
 534 699 534 699 634 607.5 c 128,-1,6
 734 516 734 516 734 353 c 128,-1,7
 734 190 734 190 636.5 95 c 128,-1,8
 539 0 539 0 339 0 c 2,9,-1
 100 0 l 1,10,-1
 100 280 l 1,11,-1
 26 280 l 1,0,-1
519.5 192 m 128,-1,13
 577 246 577 246 577 349 c 128,-1,14
 577 452 577 452 519.5 507.5 c 128,-1,15
 462 563 462 563 343 563 c 2,16,-1
 256 563 l 1,17,-1
 256 413 l 1,18,-1
 490 413 l 1,19,-1
 490 280 l 1,20,-1
 256 280 l 1,21,-1
 256 138 l 1,22,-1
 355 138 l 2,23,12
 462 138 462 138 519.5 192 c 128,-1,13
EndSplineSet
EndChar

StartChar: Ntilde
Encoding: 209 209 147
Width: 817
Flags: W
LayerCount: 2
Back
Fore
SplineSet
575 699 m 1,0,-1
 731 699 l 1,1,-1
 731 0 l 1,2,-1
 575 0 l 1,3,-1
 242 438 l 1,4,-1
 242 0 l 1,5,-1
 86 0 l 1,6,-1
 86 699 l 1,7,-1
 232 699 l 1,8,-1
 575 249 l 1,9,-1
 575 699 l 1,0,-1
350 820 m 0,10,11
 319 820 319 820 320 768 c 1,12,-1
 214 768 l 1,13,14
 214 843 214 843 246.5 886 c 128,-1,15
 279 929 279 929 330 929 c 0,16,17
 362 929 362 929 407.5 901.5 c 128,-1,18
 453 874 453 874 463 874 c 0,19,20
 494 874 494 874 493 926 c 1,21,-1
 599 926 l 1,22,23
 599 851 599 851 566.5 808 c 128,-1,24
 534 765 534 765 483 765 c 0,25,26
 452 765 452 765 405 792.5 c 128,-1,27
 358 820 358 820 350 820 c 0,10,11
EndSplineSet
EndChar

StartChar: Ograve
Encoding: 210 210 148
Width: 826
Flags: W
LayerCount: 2
Back
Fore
SplineSet
561 513 m 128,-1,1
 501 579 501 579 413.5 579 c 128,-1,2
 326 579 326 579 266 513 c 128,-1,3
 206 447 206 447 206 353.5 c 128,-1,4
 206 260 206 260 266 194.5 c 128,-1,5
 326 129 326 129 413.5 129 c 128,-1,6
 501 129 501 129 561 194.5 c 128,-1,7
 621 260 621 260 621 353.5 c 128,-1,0
 621 447 621 447 561 513 c 128,-1,1
413 -7 m 128,-1,9
 258 -7 258 -7 152 96.5 c 128,-1,10
 46 200 46 200 46 354 c 128,-1,11
 46 508 46 508 152 611.5 c 128,-1,12
 258 715 258 715 413 715 c 128,-1,13
 568 715 568 715 674 611.5 c 128,-1,14
 780 508 780 508 780 354 c 128,-1,15
 780 200 780 200 674 96.5 c 128,-1,8
 568 -7 568 -7 413 -7 c 128,-1,9
494 769 m 1,16,-1
 351 769 l 1,17,-1
 212 881 l 1,18,-1
 366 947 l 1,19,-1
 494 769 l 1,16,-1
EndSplineSet
EndChar

StartChar: Oacute
Encoding: 211 211 149
Width: 826
Flags: W
LayerCount: 2
Back
Fore
SplineSet
561 513 m 128,-1,1
 501 579 501 579 413.5 579 c 128,-1,2
 326 579 326 579 266 513 c 128,-1,3
 206 447 206 447 206 353.5 c 128,-1,4
 206 260 206 260 266 194.5 c 128,-1,5
 326 129 326 129 413.5 129 c 128,-1,6
 501 129 501 129 561 194.5 c 128,-1,7
 621 260 621 260 621 353.5 c 128,-1,0
 621 447 621 447 561 513 c 128,-1,1
413 -7 m 128,-1,9
 258 -7 258 -7 152 96.5 c 128,-1,10
 46 200 46 200 46 354 c 128,-1,11
 46 508 46 508 152 611.5 c 128,-1,12
 258 715 258 715 413 715 c 128,-1,13
 568 715 568 715 674 611.5 c 128,-1,14
 780 508 780 508 780 354 c 128,-1,15
 780 200 780 200 674 96.5 c 128,-1,8
 568 -7 568 -7 413 -7 c 128,-1,9
485 771 m 1,16,-1
 342 771 l 1,17,-1
 469 948 l 1,18,-1
 624 883 l 1,19,-1
 485 771 l 1,16,-1
EndSplineSet
EndChar

StartChar: Ocircumflex
Encoding: 212 212 150
Width: 826
Flags: W
LayerCount: 2
Back
Fore
SplineSet
561 513 m 128,-1,1
 501 579 501 579 413.5 579 c 128,-1,2
 326 579 326 579 266 513 c 128,-1,3
 206 447 206 447 206 353.5 c 128,-1,4
 206 260 206 260 266 194.5 c 128,-1,5
 326 129 326 129 413.5 129 c 128,-1,6
 501 129 501 129 561 194.5 c 128,-1,7
 621 260 621 260 621 353.5 c 128,-1,0
 621 447 621 447 561 513 c 128,-1,1
413 -7 m 128,-1,9
 258 -7 258 -7 152 96.5 c 128,-1,10
 46 200 46 200 46 354 c 128,-1,11
 46 508 46 508 152 611.5 c 128,-1,12
 258 715 258 715 413 715 c 128,-1,13
 568 715 568 715 674 611.5 c 128,-1,14
 780 508 780 508 780 354 c 128,-1,15
 780 200 780 200 674 96.5 c 128,-1,8
 568 -7 568 -7 413 -7 c 128,-1,9
329 769 m 1,16,-1
 206 769 l 1,17,-1
 319 927 l 1,18,-1
 506 927 l 1,19,-1
 619 769 l 1,20,-1
 496 769 l 1,21,-1
 412 850 l 1,22,-1
 329 769 l 1,16,-1
EndSplineSet
EndChar

StartChar: Otilde
Encoding: 213 213 151
Width: 826
Flags: W
LayerCount: 2
Back
Fore
SplineSet
561 513 m 128,-1,1
 501 579 501 579 413.5 579 c 128,-1,2
 326 579 326 579 266 513 c 128,-1,3
 206 447 206 447 206 353.5 c 128,-1,4
 206 260 206 260 266 194.5 c 128,-1,5
 326 129 326 129 413.5 129 c 128,-1,6
 501 129 501 129 561 194.5 c 128,-1,7
 621 260 621 260 621 353.5 c 128,-1,0
 621 447 621 447 561 513 c 128,-1,1
413 -7 m 128,-1,9
 258 -7 258 -7 152 96.5 c 128,-1,10
 46 200 46 200 46 354 c 128,-1,11
 46 508 46 508 152 611.5 c 128,-1,12
 258 715 258 715 413 715 c 128,-1,13
 568 715 568 715 674 611.5 c 128,-1,14
 780 508 780 508 780 354 c 128,-1,15
 780 200 780 200 674 96.5 c 128,-1,8
 568 -7 568 -7 413 -7 c 128,-1,9
355 820 m 0,16,17
 324 820 324 820 325 768 c 1,18,-1
 219 768 l 1,19,20
 219 843 219 843 251.5 886 c 128,-1,21
 284 929 284 929 335 929 c 0,22,23
 367 929 367 929 412.5 901.5 c 128,-1,24
 458 874 458 874 468 874 c 0,25,26
 499 874 499 874 498 926 c 1,27,-1
 604 926 l 1,28,29
 604 851 604 851 571.5 808 c 128,-1,30
 539 765 539 765 488 765 c 0,31,32
 457 765 457 765 410 792.5 c 128,-1,33
 363 820 363 820 355 820 c 0,16,17
EndSplineSet
EndChar

StartChar: Odieresis
Encoding: 214 214 152
Width: 826
Flags: W
LayerCount: 2
Back
Fore
SplineSet
561 513 m 128,-1,1
 501 579 501 579 413.5 579 c 128,-1,2
 326 579 326 579 266 513 c 128,-1,3
 206 447 206 447 206 353.5 c 128,-1,4
 206 260 206 260 266 194.5 c 128,-1,5
 326 129 326 129 413.5 129 c 128,-1,6
 501 129 501 129 561 194.5 c 128,-1,7
 621 260 621 260 621 353.5 c 128,-1,0
 621 447 621 447 561 513 c 128,-1,1
413 -7 m 128,-1,9
 258 -7 258 -7 152 96.5 c 128,-1,10
 46 200 46 200 46 354 c 128,-1,11
 46 508 46 508 152 611.5 c 128,-1,12
 258 715 258 715 413 715 c 128,-1,13
 568 715 568 715 674 611.5 c 128,-1,14
 780 508 780 508 780 354 c 128,-1,15
 780 200 780 200 674 96.5 c 128,-1,8
 568 -7 568 -7 413 -7 c 128,-1,9
241 847 m 128,-1,17
 241 878 241 878 262.5 899.5 c 128,-1,18
 284 921 284 921 315 921 c 128,-1,19
 346 921 346 921 367.5 899.5 c 128,-1,20
 389 878 389 878 389 847 c 128,-1,21
 389 816 389 816 367.5 794.5 c 128,-1,22
 346 773 346 773 315 773 c 128,-1,23
 284 773 284 773 262.5 794.5 c 128,-1,16
 241 816 241 816 241 847 c 128,-1,17
434 847 m 128,-1,25
 434 878 434 878 455.5 899.5 c 128,-1,26
 477 921 477 921 508 921 c 128,-1,27
 539 921 539 921 560.5 899.5 c 128,-1,28
 582 878 582 878 582 847 c 128,-1,29
 582 816 582 816 560.5 794.5 c 128,-1,30
 539 773 539 773 508 773 c 128,-1,31
 477 773 477 773 455.5 794.5 c 128,-1,24
 434 816 434 816 434 847 c 128,-1,25
EndSplineSet
EndChar

StartChar: multiply
Encoding: 215 215 153
Width: 589
Flags: W
LayerCount: 2
Back
Fore
SplineSet
295 451 m 1,0,-1
 454 614 l 1,1,-1
 540 525 l 1,2,-1
 383 364 l 1,3,-1
 541 201 l 1,4,-1
 455 112 l 1,5,-1
 295 275 l 1,6,-1
 136 112 l 1,7,-1
 48 201 l 1,8,-1
 208 364 l 1,9,-1
 49 525 l 1,10,-1
 137 614 l 1,11,-1
 295 451 l 1,0,-1
EndSplineSet
EndChar

StartChar: Oslash
Encoding: 216 216 154
Width: 826
Flags: W
LayerCount: 2
Back
Fore
SplineSet
780 354 m 0,0,1
 780 200 780 200 674 96.5 c 128,-1,2
 568 -7 568 -7 413 -7 c 0,3,4
 374 -7 374 -7 334 1 c 1,5,-1
 282 -112 l 1,6,-1
 141 -112 l 1,7,-1
 214 48 l 1,8,9
 136 96 136 96 91 176.5 c 128,-1,10
 46 257 46 257 46 354 c 0,11,12
 46 508 46 508 152 611.5 c 128,-1,13
 258 715 258 715 413 715 c 0,14,15
 461 715 461 715 513 702 c 1,16,-1
 560 805 l 1,17,-1
 702 805 l 1,18,-1
 630 648 l 1,19,20
 700 599 700 599 740 522 c 128,-1,21
 780 445 780 445 780 354 c 0,0,1
413 579 m 0,22,23
 326 579 326 579 266 513 c 128,-1,24
 206 447 206 447 206 348 c 128,-1,25
 206 249 206 249 276 184 c 1,26,-1
 455 574 l 1,27,28
 432 579 432 579 413 579 c 0,22,23
561 194.5 m 128,-1,30
 621 260 621 260 621 351 c 128,-1,31
 621 442 621 442 565 508 c 1,32,-1
 393 130 l 1,33,34
 399 129 399 129 413 129 c 0,35,29
 501 129 501 129 561 194.5 c 128,-1,30
EndSplineSet
EndChar

StartChar: Ugrave
Encoding: 217 217 155
Width: 751
Flags: W
LayerCount: 2
Back
Fore
SplineSet
376 132 m 128,-1,1
 442 132 442 132 480.5 180.5 c 128,-1,2
 519 229 519 229 519 313 c 2,3,-1
 519 699 l 1,4,-1
 675 699 l 1,5,-1
 675 308 l 2,6,7
 675 156 675 156 591 74.5 c 128,-1,8
 507 -7 507 -7 376 -7 c 128,-1,9
 245 -7 245 -7 160.5 75 c 128,-1,10
 76 157 76 157 76 308 c 2,11,-1
 76 699 l 1,12,-1
 232 699 l 1,13,-1
 232 313 l 2,14,15
 232 229 232 229 271 180.5 c 128,-1,0
 310 132 310 132 376 132 c 128,-1,1
455 769 m 1,16,-1
 312 769 l 1,17,-1
 173 881 l 1,18,-1
 327 947 l 1,19,-1
 455 769 l 1,16,-1
EndSplineSet
EndChar

StartChar: Uacute
Encoding: 218 218 156
Width: 751
Flags: W
LayerCount: 2
Back
Fore
SplineSet
376 132 m 128,-1,1
 442 132 442 132 480.5 180.5 c 128,-1,2
 519 229 519 229 519 313 c 2,3,-1
 519 699 l 1,4,-1
 675 699 l 1,5,-1
 675 308 l 2,6,7
 675 156 675 156 591 74.5 c 128,-1,8
 507 -7 507 -7 376 -7 c 128,-1,9
 245 -7 245 -7 160.5 75 c 128,-1,10
 76 157 76 157 76 308 c 2,11,-1
 76 699 l 1,12,-1
 232 699 l 1,13,-1
 232 313 l 2,14,15
 232 229 232 229 271 180.5 c 128,-1,0
 310 132 310 132 376 132 c 128,-1,1
447 771 m 1,16,-1
 304 771 l 1,17,-1
 431 948 l 1,18,-1
 586 883 l 1,19,-1
 447 771 l 1,16,-1
EndSplineSet
EndChar

StartChar: Ucircumflex
Encoding: 219 219 157
Width: 751
Flags: W
LayerCount: 2
Back
Fore
SplineSet
376 132 m 128,-1,1
 442 132 442 132 480.5 180.5 c 128,-1,2
 519 229 519 229 519 313 c 2,3,-1
 519 699 l 1,4,-1
 675 699 l 1,5,-1
 675 308 l 2,6,7
 675 156 675 156 591 74.5 c 128,-1,8
 507 -7 507 -7 376 -7 c 128,-1,9
 245 -7 245 -7 160.5 75 c 128,-1,10
 76 157 76 157 76 308 c 2,11,-1
 76 699 l 1,12,-1
 232 699 l 1,13,-1
 232 313 l 2,14,15
 232 229 232 229 271 180.5 c 128,-1,0
 310 132 310 132 376 132 c 128,-1,1
291 769 m 1,16,-1
 168 769 l 1,17,-1
 281 927 l 1,18,-1
 468 927 l 1,19,-1
 581 769 l 1,20,-1
 458 769 l 1,21,-1
 374 850 l 1,22,-1
 291 769 l 1,16,-1
EndSplineSet
EndChar

StartChar: Udieresis
Encoding: 220 220 158
Width: 751
Flags: W
LayerCount: 2
Back
Fore
SplineSet
376 132 m 128,-1,1
 442 132 442 132 480.5 180.5 c 128,-1,2
 519 229 519 229 519 313 c 2,3,-1
 519 699 l 1,4,-1
 675 699 l 1,5,-1
 675 308 l 2,6,7
 675 156 675 156 591 74.5 c 128,-1,8
 507 -7 507 -7 376 -7 c 128,-1,9
 245 -7 245 -7 160.5 75 c 128,-1,10
 76 157 76 157 76 308 c 2,11,-1
 76 699 l 1,12,-1
 232 699 l 1,13,-1
 232 313 l 2,14,15
 232 229 232 229 271 180.5 c 128,-1,0
 310 132 310 132 376 132 c 128,-1,1
204 847 m 128,-1,17
 204 878 204 878 225.5 899.5 c 128,-1,18
 247 921 247 921 278 921 c 128,-1,19
 309 921 309 921 330.5 899.5 c 128,-1,20
 352 878 352 878 352 847 c 128,-1,21
 352 816 352 816 330.5 794.5 c 128,-1,22
 309 773 309 773 278 773 c 128,-1,23
 247 773 247 773 225.5 794.5 c 128,-1,16
 204 816 204 816 204 847 c 128,-1,17
397 847 m 128,-1,25
 397 878 397 878 418.5 899.5 c 128,-1,26
 440 921 440 921 471 921 c 128,-1,27
 502 921 502 921 523.5 899.5 c 128,-1,28
 545 878 545 878 545 847 c 128,-1,29
 545 816 545 816 523.5 794.5 c 128,-1,30
 502 773 502 773 471 773 c 128,-1,31
 440 773 440 773 418.5 794.5 c 128,-1,24
 397 816 397 816 397 847 c 128,-1,25
EndSplineSet
EndChar

StartChar: Yacute
Encoding: 221 221 159
Width: 618
Flags: W
LayerCount: 2
Back
Fore
SplineSet
387 0 m 1,0,-1
 231 0 l 1,1,-1
 231 276 l 1,2,-1
 -11 699 l 1,3,-1
 158 699 l 1,4,-1
 309 439 l 1,5,-1
 460 699 l 1,6,-1
 629 699 l 1,7,-1
 387 276 l 1,8,-1
 387 0 l 1,0,-1
361 771 m 1,9,-1
 218 771 l 1,10,-1
 345 948 l 1,11,-1
 500 883 l 1,12,-1
 361 771 l 1,9,-1
EndSplineSet
EndChar

StartChar: Thorn
Encoding: 222 222 160
Width: 685
Flags: W
LayerCount: 2
Back
Fore
SplineSet
641 368 m 0,0,1
 641 232 641 232 561.5 171.5 c 128,-1,2
 482 111 482 111 325 111 c 2,3,-1
 242 111 l 1,4,-1
 242 0 l 1,5,-1
 86 0 l 1,6,-1
 86 699 l 1,7,-1
 242 699 l 1,8,-1
 242 615 l 1,9,-1
 323 615 l 2,10,11
 641 615 641 615 641 368 c 0,0,1
449 278.5 m 128,-1,13
 481 311 481 311 481 370.5 c 128,-1,14
 481 430 481 430 441 455 c 128,-1,15
 401 480 401 480 321 480 c 2,16,-1
 242 480 l 1,17,-1
 242 246 l 1,18,-1
 337 246 l 2,19,12
 417 246 417 246 449 278.5 c 128,-1,13
EndSplineSet
EndChar

StartChar: germandbls
Encoding: 223 223 161
Width: 647
Flags: W
LayerCount: 2
Back
Fore
SplineSet
378.5 465.5 m 128,-1,1
 411 496 411 496 411 533.5 c 128,-1,2
 411 571 411 571 392 597.5 c 128,-1,3
 373 624 373 624 332 624 c 0,4,5
 274 624 274 624 250 583 c 128,-1,6
 226 542 226 542 226 463 c 2,7,-1
 226 0 l 1,8,-1
 70 0 l 1,9,-1
 70 450 l 2,10,11
 70 548 70 548 90 604 c 0,12,13
 98 629 98 629 117 660 c 128,-1,14
 136 691 136 691 162 710 c 0,15,16
 222 757 222 757 321 757 c 0,17,18
 378 757 378 757 422.5 742.5 c 128,-1,19
 467 728 467 728 493 706.5 c 128,-1,20
 519 685 519 685 536 656 c 0,21,22
 564 605 564 605 564 547 c 0,23,24
 564 454 564 454 487 391 c 1,25,26
 546 372 546 372 575.5 322.5 c 128,-1,27
 605 273 605 273 605 212 c 0,28,29
 605 115 605 115 537.5 57.5 c 128,-1,30
 470 0 470 0 344 0 c 2,31,-1
 282 0 l 1,32,-1
 282 126 l 1,33,-1
 326 126 l 2,34,35
 449 126 449 126 449 212 c 0,36,37
 449 307 449 307 334 307 c 0,38,39
 313 307 313 307 279 304 c 1,40,-1
 279 425 l 1,41,0
 346 435 346 435 378.5 465.5 c 128,-1,1
EndSplineSet
EndChar

StartChar: agrave
Encoding: 224 224 162
Width: 594
Flags: W
LayerCount: 2
Back
Fore
SplineSet
528 0 m 1,0,-1
 387 0 l 1,1,-1
 387 65 l 1,2,3
 329 -8 329 -8 243.5 -8 c 128,-1,4
 158 -8 158 -8 100 41.5 c 128,-1,5
 42 91 42 91 42 173.5 c 128,-1,6
 42 256 42 256 102 297 c 128,-1,7
 162 338 162 338 266 338 c 2,8,-1
 378 338 l 1,9,-1
 378 341 l 2,10,11
 378 427 378 427 287 427 c 0,12,13
 248 427 248 427 204.5 411.5 c 128,-1,14
 161 396 161 396 131 373 c 1,15,-1
 64 470 l 1,16,17
 170 547 170 547 306 547 c 0,18,19
 404 547 404 547 466 498 c 128,-1,20
 528 449 528 449 528 343 c 2,21,-1
 528 0 l 1,0,-1
377 205 m 2,22,-1
 377 231 l 1,23,-1
 283 231 l 2,24,25
 193 231 193 231 193 175 c 0,26,27
 193 146 193 146 214.5 130.5 c 128,-1,28
 236 115 236 115 276 115 c 128,-1,29
 316 115 316 115 346.5 139.5 c 128,-1,30
 377 164 377 164 377 205 c 2,22,-1
412 611 m 1,31,-1
 269 611 l 1,32,-1
 130 723 l 1,33,-1
 284 789 l 1,34,-1
 412 611 l 1,31,-1
EndSplineSet
EndChar

StartChar: aacute
Encoding: 225 225 163
Width: 594
Flags: W
LayerCount: 2
Back
Fore
SplineSet
528 0 m 1,0,-1
 387 0 l 1,1,-1
 387 65 l 1,2,3
 329 -8 329 -8 243.5 -8 c 128,-1,4
 158 -8 158 -8 100 41.5 c 128,-1,5
 42 91 42 91 42 173.5 c 128,-1,6
 42 256 42 256 102 297 c 128,-1,7
 162 338 162 338 266 338 c 2,8,-1
 378 338 l 1,9,-1
 378 341 l 2,10,11
 378 427 378 427 287 427 c 0,12,13
 248 427 248 427 204.5 411.5 c 128,-1,14
 161 396 161 396 131 373 c 1,15,-1
 64 470 l 1,16,17
 170 547 170 547 306 547 c 0,18,19
 404 547 404 547 466 498 c 128,-1,20
 528 449 528 449 528 343 c 2,21,-1
 528 0 l 1,0,-1
377 205 m 2,22,-1
 377 231 l 1,23,-1
 283 231 l 2,24,25
 193 231 193 231 193 175 c 0,26,27
 193 146 193 146 214.5 130.5 c 128,-1,28
 236 115 236 115 276 115 c 128,-1,29
 316 115 316 115 346.5 139.5 c 128,-1,30
 377 164 377 164 377 205 c 2,22,-1
348 611 m 1,31,-1
 205 611 l 1,32,-1
 332 788 l 1,33,-1
 487 723 l 1,34,-1
 348 611 l 1,31,-1
EndSplineSet
EndChar

StartChar: acircumflex
Encoding: 226 226 164
Width: 594
Flags: W
LayerCount: 2
Back
Fore
SplineSet
528 0 m 1,0,-1
 387 0 l 1,1,-1
 387 65 l 1,2,3
 329 -8 329 -8 243.5 -8 c 128,-1,4
 158 -8 158 -8 100 41.5 c 128,-1,5
 42 91 42 91 42 173.5 c 128,-1,6
 42 256 42 256 102 297 c 128,-1,7
 162 338 162 338 266 338 c 2,8,-1
 378 338 l 1,9,-1
 378 341 l 2,10,11
 378 427 378 427 287 427 c 0,12,13
 248 427 248 427 204.5 411.5 c 128,-1,14
 161 396 161 396 131 373 c 1,15,-1
 64 470 l 1,16,17
 170 547 170 547 306 547 c 0,18,19
 404 547 404 547 466 498 c 128,-1,20
 528 449 528 449 528 343 c 2,21,-1
 528 0 l 1,0,-1
377 205 m 2,22,-1
 377 231 l 1,23,-1
 283 231 l 2,24,25
 193 231 193 231 193 175 c 0,26,27
 193 146 193 146 214.5 130.5 c 128,-1,28
 236 115 236 115 276 115 c 128,-1,29
 316 115 316 115 346.5 139.5 c 128,-1,30
 377 164 377 164 377 205 c 2,22,-1
217 611 m 1,31,-1
 94 611 l 1,32,-1
 207 769 l 1,33,-1
 394 769 l 1,34,-1
 507 611 l 1,35,-1
 384 611 l 1,36,-1
 300 692 l 1,37,-1
 217 611 l 1,31,-1
EndSplineSet
EndChar

StartChar: atilde
Encoding: 227 227 165
Width: 594
Flags: W
LayerCount: 2
Back
Fore
SplineSet
528 0 m 1,0,-1
 387 0 l 1,1,-1
 387 65 l 1,2,3
 329 -8 329 -8 243.5 -8 c 128,-1,4
 158 -8 158 -8 100 41.5 c 128,-1,5
 42 91 42 91 42 173.5 c 128,-1,6
 42 256 42 256 102 297 c 128,-1,7
 162 338 162 338 266 338 c 2,8,-1
 378 338 l 1,9,-1
 378 341 l 2,10,11
 378 427 378 427 287 427 c 0,12,13
 248 427 248 427 204.5 411.5 c 128,-1,14
 161 396 161 396 131 373 c 1,15,-1
 64 470 l 1,16,17
 170 547 170 547 306 547 c 0,18,19
 404 547 404 547 466 498 c 128,-1,20
 528 449 528 449 528 343 c 2,21,-1
 528 0 l 1,0,-1
377 205 m 2,22,-1
 377 231 l 1,23,-1
 283 231 l 2,24,25
 193 231 193 231 193 175 c 0,26,27
 193 146 193 146 214.5 130.5 c 128,-1,28
 236 115 236 115 276 115 c 128,-1,29
 316 115 316 115 346.5 139.5 c 128,-1,30
 377 164 377 164 377 205 c 2,22,-1
233 663 m 0,31,32
 202 663 202 663 203 611 c 1,33,-1
 97 611 l 1,34,35
 97 686 97 686 129.5 729 c 128,-1,36
 162 772 162 772 213 772 c 0,37,38
 245 772 245 772 290.5 744.5 c 128,-1,39
 336 717 336 717 346 717 c 0,40,41
 377 717 377 717 376 769 c 1,42,-1
 482 769 l 1,43,44
 482 694 482 694 449.5 651 c 128,-1,45
 417 608 417 608 366 608 c 0,46,47
 335 608 335 608 288 635.5 c 128,-1,48
 241 663 241 663 233 663 c 0,31,32
EndSplineSet
EndChar

StartChar: adieresis
Encoding: 228 228 166
Width: 594
Flags: W
LayerCount: 2
Back
Fore
SplineSet
528 0 m 1,0,-1
 387 0 l 1,1,-1
 387 65 l 1,2,3
 329 -8 329 -8 243.5 -8 c 128,-1,4
 158 -8 158 -8 100 41.5 c 128,-1,5
 42 91 42 91 42 173.5 c 128,-1,6
 42 256 42 256 102 297 c 128,-1,7
 162 338 162 338 266 338 c 2,8,-1
 378 338 l 1,9,-1
 378 341 l 2,10,11
 378 427 378 427 287 427 c 0,12,13
 248 427 248 427 204.5 411.5 c 128,-1,14
 161 396 161 396 131 373 c 1,15,-1
 64 470 l 1,16,17
 170 547 170 547 306 547 c 0,18,19
 404 547 404 547 466 498 c 128,-1,20
 528 449 528 449 528 343 c 2,21,-1
 528 0 l 1,0,-1
377 205 m 2,22,-1
 377 231 l 1,23,-1
 283 231 l 2,24,25
 193 231 193 231 193 175 c 0,26,27
 193 146 193 146 214.5 130.5 c 128,-1,28
 236 115 236 115 276 115 c 128,-1,29
 316 115 316 115 346.5 139.5 c 128,-1,30
 377 164 377 164 377 205 c 2,22,-1
130 691 m 128,-1,32
 130 722 130 722 151.5 743.5 c 128,-1,33
 173 765 173 765 204 765 c 128,-1,34
 235 765 235 765 256.5 743.5 c 128,-1,35
 278 722 278 722 278 691 c 128,-1,36
 278 660 278 660 256.5 638.5 c 128,-1,37
 235 617 235 617 204 617 c 128,-1,38
 173 617 173 617 151.5 638.5 c 128,-1,31
 130 660 130 660 130 691 c 128,-1,32
323 691 m 128,-1,40
 323 722 323 722 344.5 743.5 c 128,-1,41
 366 765 366 765 397 765 c 128,-1,42
 428 765 428 765 449.5 743.5 c 128,-1,43
 471 722 471 722 471 691 c 128,-1,44
 471 660 471 660 449.5 638.5 c 128,-1,45
 428 617 428 617 397 617 c 128,-1,46
 366 617 366 617 344.5 638.5 c 128,-1,39
 323 660 323 660 323 691 c 128,-1,40
EndSplineSet
EndChar

StartChar: aring
Encoding: 229 229 167
Width: 594
Flags: W
LayerCount: 2
Back
Fore
SplineSet
528 0 m 1,0,-1
 387 0 l 1,1,-1
 387 65 l 1,2,3
 329 -8 329 -8 243.5 -8 c 128,-1,4
 158 -8 158 -8 100 41.5 c 128,-1,5
 42 91 42 91 42 173.5 c 128,-1,6
 42 256 42 256 102 297 c 128,-1,7
 162 338 162 338 266 338 c 2,8,-1
 378 338 l 1,9,-1
 378 341 l 2,10,11
 378 427 378 427 287 427 c 0,12,13
 248 427 248 427 204.5 411.5 c 128,-1,14
 161 396 161 396 131 373 c 1,15,-1
 64 470 l 1,16,17
 170 547 170 547 306 547 c 0,18,19
 404 547 404 547 466 498 c 128,-1,20
 528 449 528 449 528 343 c 2,21,-1
 528 0 l 1,0,-1
377 205 m 2,22,-1
 377 231 l 1,23,-1
 283 231 l 2,24,25
 193 231 193 231 193 175 c 0,26,27
 193 146 193 146 214.5 130.5 c 128,-1,28
 236 115 236 115 276 115 c 128,-1,29
 316 115 316 115 346.5 139.5 c 128,-1,30
 377 164 377 164 377 205 c 2,22,-1
199 703 m 128,-1,32
 199 747 199 747 230.5 778.5 c 128,-1,33
 262 810 262 810 306 810 c 128,-1,34
 350 810 350 810 381.5 778.5 c 128,-1,35
 413 747 413 747 413 703 c 128,-1,36
 413 659 413 659 381.5 627.5 c 128,-1,37
 350 596 350 596 306 596 c 128,-1,38
 262 596 262 596 230.5 627.5 c 128,-1,31
 199 659 199 659 199 703 c 128,-1,32
271 703 m 128,-1,40
 271 689 271 689 281.5 678.5 c 128,-1,41
 292 668 292 668 306 668 c 128,-1,42
 320 668 320 668 330.5 678.5 c 128,-1,43
 341 689 341 689 341 703 c 128,-1,44
 341 717 341 717 330.5 727.5 c 128,-1,45
 320 738 320 738 306 738 c 128,-1,46
 292 738 292 738 281.5 727.5 c 128,-1,39
 271 717 271 717 271 703 c 128,-1,40
EndSplineSet
EndChar

StartChar: ae
Encoding: 230 230 168
Width: 936
Flags: W
LayerCount: 2
Back
Fore
SplineSet
895 219 m 1,0,-1
 526 219 l 1,1,-1
 526 214 l 1,2,3
 534 169 534 169 568 142.5 c 128,-1,4
 602 116 602 116 646 116 c 0,5,6
 717 116 717 116 778 191 c 1,7,-1
 866 93 l 1,8,9
 770 -8 770 -8 638 -8 c 0,10,11
 523 -8 523 -8 449 68 c 1,12,13
 372 -8 372 -8 252 -8 c 0,14,15
 164 -8 164 -8 102 42 c 128,-1,16
 40 92 40 92 40 171 c 0,17,18
 40 334 40 334 264 334 c 2,19,-1
 376 334 l 1,20,-1
 376 341 l 2,21,22
 376 425 376 425 289 425 c 0,23,24
 227 425 227 425 139 363 c 1,25,-1
 72 460 l 1,26,27
 180 547 180 547 296.5 547 c 128,-1,28
 413 547 413 547 472 491 c 1,29,30
 542 547 542 547 645.5 547 c 128,-1,31
 749 547 749 547 822 480.5 c 128,-1,32
 895 414 895 414 895 296 c 2,33,-1
 895 219 l 1,0,-1
375 205 m 2,34,-1
 375 219 l 1,35,-1
 281 219 l 2,36,37
 237 219 237 219 214 211 c 128,-1,38
 191 203 191 203 191 174.5 c 128,-1,39
 191 146 191 146 212.5 130.5 c 128,-1,40
 234 115 234 115 274 115 c 128,-1,41
 314 115 314 115 344.5 139.5 c 128,-1,42
 375 164 375 164 375 205 c 2,34,-1
708 400 m 128,-1,44
 681 423 681 423 641.5 423 c 128,-1,45
 602 423 602 423 569.5 399 c 128,-1,46
 537 375 537 375 528 334 c 1,47,-1
 742 334 l 1,48,43
 735 377 735 377 708 400 c 128,-1,44
EndSplineSet
EndChar

StartChar: ccedilla
Encoding: 231 231 169
Width: 583
Flags: W
LayerCount: 2
Back
Fore
SplineSet
330 125 m 0,0,1
 405 125 405 125 465 200 c 1,2,-1
 554 100 l 1,3,4
 473 16 473 16 376 -3 c 1,5,-1
 349 -53 l 1,6,7
 414 -75 414 -75 414 -129 c 0,8,9
 414 -172 414 -172 378.5 -204 c 128,-1,10
 343 -236 343 -236 289 -236 c 128,-1,11
 235 -236 235 -236 184 -204 c 1,12,-1
 222 -118 l 1,13,14
 244 -137 244 -137 261 -137 c 128,-1,15
 278 -137 278 -137 287.5 -128 c 128,-1,16
 297 -119 297 -119 297 -105.5 c 128,-1,17
 297 -92 297 -92 285 -81.5 c 128,-1,18
 273 -71 273 -71 256.5 -71 c 128,-1,19
 240 -71 240 -71 221 -80 c 1,20,-1
 262 -2 l 1,21,22
 167 18 167 18 104 90 c 128,-1,23
 41 162 41 162 41 268 c 0,24,25
 41 392 41 392 125.5 469.5 c 128,-1,26
 210 547 210 547 326 547 c 0,27,28
 384 547 384 547 443.5 523 c 128,-1,29
 503 499 503 499 548 452 c 1,30,-1
 470 350 l 1,31,32
 444 381 444 381 406.5 398 c 128,-1,33
 369 415 369 415 332 415 c 0,34,35
 273 415 273 415 230.5 376.5 c 128,-1,36
 188 338 188 338 188 269.5 c 128,-1,37
 188 201 188 201 230.5 163 c 128,-1,38
 273 125 273 125 330 125 c 0,0,1
EndSplineSet
EndChar

StartChar: egrave
Encoding: 232 232 170
Width: 618
Flags: W
LayerCount: 2
Back
Fore
SplineSet
537 78 m 1,0,1
 446 -8 446 -8 323.5 -8 c 128,-1,2
 201 -8 201 -8 121 67.5 c 128,-1,3
 41 143 41 143 41 270 c 128,-1,4
 41 397 41 397 122.5 472 c 128,-1,5
 204 547 204 547 315 547 c 128,-1,6
 426 547 426 547 503.5 480 c 128,-1,7
 581 413 581 413 581 296 c 2,8,-1
 581 216 l 1,9,-1
 189 216 l 1,10,11
 196 172 196 172 235 144 c 128,-1,12
 274 116 274 116 323 116 c 0,13,14
 402 116 402 116 453 169 c 1,15,-1
 537 78 l 1,0,1
393 397 m 128,-1,17
 362 423 362 423 317.5 423 c 128,-1,18
 273 423 273 423 236 396 c 128,-1,19
 199 369 199 369 193 323 c 1,20,-1
 429 323 l 1,21,16
 424 371 424 371 393 397 c 128,-1,17
405 611 m 1,22,-1
 262 611 l 1,23,-1
 123 723 l 1,24,-1
 277 789 l 1,25,-1
 405 611 l 1,22,-1
EndSplineSet
EndChar

StartChar: eacute
Encoding: 233 233 171
Width: 618
Flags: W
LayerCount: 2
Back
Fore
SplineSet
537 78 m 1,0,1
 446 -8 446 -8 323.5 -8 c 128,-1,2
 201 -8 201 -8 121 67.5 c 128,-1,3
 41 143 41 143 41 270 c 128,-1,4
 41 397 41 397 122.5 472 c 128,-1,5
 204 547 204 547 315 547 c 128,-1,6
 426 547 426 547 503.5 480 c 128,-1,7
 581 413 581 413 581 296 c 2,8,-1
 581 216 l 1,9,-1
 189 216 l 1,10,11
 196 172 196 172 235 144 c 128,-1,12
 274 116 274 116 323 116 c 0,13,14
 402 116 402 116 453 169 c 1,15,-1
 537 78 l 1,0,1
393 397 m 128,-1,17
 362 423 362 423 317.5 423 c 128,-1,18
 273 423 273 423 236 396 c 128,-1,19
 199 369 199 369 193 323 c 1,20,-1
 429 323 l 1,21,16
 424 371 424 371 393 397 c 128,-1,17
361 611 m 1,22,-1
 218 611 l 1,23,-1
 345 788 l 1,24,-1
 500 723 l 1,25,-1
 361 611 l 1,22,-1
EndSplineSet
EndChar

StartChar: ecircumflex
Encoding: 234 234 172
Width: 618
Flags: W
LayerCount: 2
Back
Fore
SplineSet
537 78 m 1,0,1
 446 -8 446 -8 323.5 -8 c 128,-1,2
 201 -8 201 -8 121 67.5 c 128,-1,3
 41 143 41 143 41 270 c 128,-1,4
 41 397 41 397 122.5 472 c 128,-1,5
 204 547 204 547 315 547 c 128,-1,6
 426 547 426 547 503.5 480 c 128,-1,7
 581 413 581 413 581 296 c 2,8,-1
 581 216 l 1,9,-1
 189 216 l 1,10,11
 196 172 196 172 235 144 c 128,-1,12
 274 116 274 116 323 116 c 0,13,14
 402 116 402 116 453 169 c 1,15,-1
 537 78 l 1,0,1
393 397 m 128,-1,17
 362 423 362 423 317.5 423 c 128,-1,18
 273 423 273 423 236 396 c 128,-1,19
 199 369 199 369 193 323 c 1,20,-1
 429 323 l 1,21,16
 424 371 424 371 393 397 c 128,-1,17
225 611 m 1,22,-1
 102 611 l 1,23,-1
 215 769 l 1,24,-1
 402 769 l 1,25,-1
 515 611 l 1,26,-1
 392 611 l 1,27,-1
 308 692 l 1,28,-1
 225 611 l 1,22,-1
EndSplineSet
EndChar

StartChar: edieresis
Encoding: 235 235 173
Width: 618
Flags: W
LayerCount: 2
Back
Fore
SplineSet
537 78 m 1,0,1
 446 -8 446 -8 323.5 -8 c 128,-1,2
 201 -8 201 -8 121 67.5 c 128,-1,3
 41 143 41 143 41 270 c 128,-1,4
 41 397 41 397 122.5 472 c 128,-1,5
 204 547 204 547 315 547 c 128,-1,6
 426 547 426 547 503.5 480 c 128,-1,7
 581 413 581 413 581 296 c 2,8,-1
 581 216 l 1,9,-1
 189 216 l 1,10,11
 196 172 196 172 235 144 c 128,-1,12
 274 116 274 116 323 116 c 0,13,14
 402 116 402 116 453 169 c 1,15,-1
 537 78 l 1,0,1
393 397 m 128,-1,17
 362 423 362 423 317.5 423 c 128,-1,18
 273 423 273 423 236 396 c 128,-1,19
 199 369 199 369 193 323 c 1,20,-1
 429 323 l 1,21,16
 424 371 424 371 393 397 c 128,-1,17
145 691 m 128,-1,23
 145 722 145 722 166.5 743.5 c 128,-1,24
 188 765 188 765 219 765 c 128,-1,25
 250 765 250 765 271.5 743.5 c 128,-1,26
 293 722 293 722 293 691 c 128,-1,27
 293 660 293 660 271.5 638.5 c 128,-1,28
 250 617 250 617 219 617 c 128,-1,29
 188 617 188 617 166.5 638.5 c 128,-1,22
 145 660 145 660 145 691 c 128,-1,23
338 691 m 128,-1,31
 338 722 338 722 359.5 743.5 c 128,-1,32
 381 765 381 765 412 765 c 128,-1,33
 443 765 443 765 464.5 743.5 c 128,-1,34
 486 722 486 722 486 691 c 128,-1,35
 486 660 486 660 464.5 638.5 c 128,-1,36
 443 617 443 617 412 617 c 128,-1,37
 381 617 381 617 359.5 638.5 c 128,-1,30
 338 660 338 660 338 691 c 128,-1,31
EndSplineSet
EndChar

StartChar: igrave
Encoding: 236 236 174
Width: 292
Flags: W
LayerCount: 2
Back
Fore
SplineSet
71 538 m 1,0,-1
 221 538 l 1,1,-1
 221 0 l 1,2,-1
 71 0 l 1,3,-1
 71 538 l 1,0,-1
223 611 m 1,4,-1
 80 611 l 1,5,-1
 -59 723 l 1,6,-1
 95 789 l 1,7,-1
 223 611 l 1,4,-1
EndSplineSet
EndChar

StartChar: iacute
Encoding: 237 237 175
Width: 292
Flags: W
LayerCount: 2
Back
Fore
SplineSet
71 538 m 1,0,-1
 221 538 l 1,1,-1
 221 0 l 1,2,-1
 71 0 l 1,3,-1
 71 538 l 1,0,-1
219 611 m 1,4,-1
 76 611 l 1,5,-1
 203 788 l 1,6,-1
 358 723 l 1,7,-1
 219 611 l 1,4,-1
EndSplineSet
EndChar

StartChar: icircumflex
Encoding: 238 238 176
Width: 292
Flags: W
LayerCount: 2
Back
Fore
SplineSet
145 682 m 1,0,-1
 72 611 l 1,1,-1
 -41 611 l 1,2,-1
 72 769 l 1,3,-1
 219 769 l 1,4,-1
 332 611 l 1,5,-1
 219 611 l 1,6,-1
 145 682 l 1,0,-1
71 538 m 1,7,-1
 221 538 l 1,8,-1
 221 0 l 1,9,-1
 71 0 l 1,10,-1
 71 538 l 1,7,-1
EndSplineSet
EndChar

StartChar: idieresis
Encoding: 239 239 177
Width: 292
Flags: W
LayerCount: 2
Back
Fore
SplineSet
71 538 m 1,0,-1
 221 538 l 1,1,-1
 221 0 l 1,2,-1
 71 0 l 1,3,-1
 71 538 l 1,0,-1
-24 691 m 128,-1,5
 -24 722 -24 722 -2.5 743.5 c 128,-1,6
 19 765 19 765 50 765 c 128,-1,7
 81 765 81 765 102.5 743.5 c 128,-1,8
 124 722 124 722 124 691 c 128,-1,9
 124 660 124 660 102.5 638.5 c 128,-1,10
 81 617 81 617 50 617 c 128,-1,11
 19 617 19 617 -2.5 638.5 c 128,-1,4
 -24 660 -24 660 -24 691 c 128,-1,5
169 691 m 128,-1,13
 169 722 169 722 190.5 743.5 c 128,-1,14
 212 765 212 765 243 765 c 128,-1,15
 274 765 274 765 295.5 743.5 c 128,-1,16
 317 722 317 722 317 691 c 128,-1,17
 317 660 317 660 295.5 638.5 c 128,-1,18
 274 617 274 617 243 617 c 128,-1,19
 212 617 212 617 190.5 638.5 c 128,-1,12
 169 660 169 660 169 691 c 128,-1,13
EndSplineSet
EndChar

StartChar: eth
Encoding: 240 240 178
Width: 597
Flags: W
LayerCount: 2
Back
Fore
SplineSet
554 270 m 0,0,1
 554 145 554 145 487.5 68.5 c 128,-1,2
 421 -8 421 -8 305.5 -8 c 128,-1,3
 190 -8 190 -8 117 60.5 c 128,-1,4
 44 129 44 129 44 236.5 c 128,-1,5
 44 344 44 344 116 413 c 128,-1,6
 188 482 188 482 290 482 c 0,7,8
 316 482 316 482 336 478 c 1,9,10
 316 503 316 503 274 549 c 1,11,-1
 188 493 l 1,12,-1
 107 571 l 1,13,-1
 195 628 l 1,14,15
 180 641 180 641 162 656 c 2,16,-1
 125 687 l 1,17,-1
 248 760 l 1,18,19
 290 726 290 726 317 701 c 1,20,-1
 396 753 l 1,21,-1
 479 675 l 1,22,-1
 396 620 l 1,23,24
 554 439 554 439 554 270 c 0,0,1
221 153 m 128,-1,26
 250 118 250 118 298.5 118 c 128,-1,27
 347 118 347 118 376.5 153 c 128,-1,28
 406 188 406 188 406 237 c 128,-1,29
 406 286 406 286 376 321 c 128,-1,30
 346 356 346 356 298 356 c 128,-1,31
 250 356 250 356 221 321 c 128,-1,32
 192 286 192 286 192 237 c 128,-1,25
 192 188 192 188 221 153 c 128,-1,26
EndSplineSet
EndChar

StartChar: ntilde
Encoding: 241 241 179
Width: 639
Flags: W
LayerCount: 2
Back
Fore
SplineSet
221 300 m 2,0,-1
 221 0 l 1,1,-1
 71 0 l 1,2,-1
 71 538 l 1,3,-1
 221 538 l 1,4,-1
 221 478 l 1,5,6
 289 547 289 547 374 547 c 128,-1,7
 459 547 459 547 516.5 487 c 128,-1,8
 574 427 574 427 574 327 c 2,9,-1
 574 0 l 1,10,-1
 424 0 l 1,11,-1
 424 304 l 2,12,13
 424 428 424 428 333 428 c 0,14,15
 288 428 288 428 254.5 395.5 c 128,-1,16
 221 363 221 363 221 300 c 2,0,-1
268 663 m 0,17,18
 237 663 237 663 238 611 c 1,19,-1
 132 611 l 1,20,21
 132 686 132 686 164.5 729 c 128,-1,22
 197 772 197 772 248 772 c 0,23,24
 280 772 280 772 325.5 744.5 c 128,-1,25
 371 717 371 717 381 717 c 0,26,27
 412 717 412 717 411 769 c 1,28,-1
 517 769 l 1,29,30
 517 694 517 694 484.5 651 c 128,-1,31
 452 608 452 608 401 608 c 0,32,33
 370 608 370 608 323 635.5 c 128,-1,34
 276 663 276 663 268 663 c 0,17,18
EndSplineSet
EndChar

StartChar: ograve
Encoding: 242 242 180
Width: 648
Flags: W
LayerCount: 2
Back
Fore
SplineSet
228.5 161.5 m 128,-1,1
 266 120 266 120 324.5 120 c 128,-1,2
 383 120 383 120 420.5 161.5 c 128,-1,3
 458 203 458 203 458 269 c 128,-1,4
 458 335 458 335 420.5 377 c 128,-1,5
 383 419 383 419 324.5 419 c 128,-1,6
 266 419 266 419 228.5 377 c 128,-1,7
 191 335 191 335 191 269 c 128,-1,0
 191 203 191 203 228.5 161.5 c 128,-1,1
528 72 m 128,-1,9
 447 -8 447 -8 324.5 -8 c 128,-1,10
 202 -8 202 -8 121 72 c 128,-1,11
 40 152 40 152 40 269 c 128,-1,12
 40 386 40 386 121 466.5 c 128,-1,13
 202 547 202 547 324.5 547 c 128,-1,14
 447 547 447 547 528 466.5 c 128,-1,15
 609 386 609 386 609 269 c 128,-1,8
 609 152 609 152 528 72 c 128,-1,9
405 611 m 1,16,-1
 262 611 l 1,17,-1
 123 723 l 1,18,-1
 277 789 l 1,19,-1
 405 611 l 1,16,-1
EndSplineSet
EndChar

StartChar: oacute
Encoding: 243 243 181
Width: 648
Flags: W
LayerCount: 2
Back
Fore
SplineSet
228.5 161.5 m 128,-1,1
 266 120 266 120 324.5 120 c 128,-1,2
 383 120 383 120 420.5 161.5 c 128,-1,3
 458 203 458 203 458 269 c 128,-1,4
 458 335 458 335 420.5 377 c 128,-1,5
 383 419 383 419 324.5 419 c 128,-1,6
 266 419 266 419 228.5 377 c 128,-1,7
 191 335 191 335 191 269 c 128,-1,0
 191 203 191 203 228.5 161.5 c 128,-1,1
528 72 m 128,-1,9
 447 -8 447 -8 324.5 -8 c 128,-1,10
 202 -8 202 -8 121 72 c 128,-1,11
 40 152 40 152 40 269 c 128,-1,12
 40 386 40 386 121 466.5 c 128,-1,13
 202 547 202 547 324.5 547 c 128,-1,14
 447 547 447 547 528 466.5 c 128,-1,15
 609 386 609 386 609 269 c 128,-1,8
 609 152 609 152 528 72 c 128,-1,9
381 611 m 1,16,-1
 238 611 l 1,17,-1
 365 788 l 1,18,-1
 520 723 l 1,19,-1
 381 611 l 1,16,-1
EndSplineSet
EndChar

StartChar: ocircumflex
Encoding: 244 244 182
Width: 648
Flags: W
LayerCount: 2
Back
Fore
SplineSet
228.5 161.5 m 128,-1,1
 266 120 266 120 324.5 120 c 128,-1,2
 383 120 383 120 420.5 161.5 c 128,-1,3
 458 203 458 203 458 269 c 128,-1,4
 458 335 458 335 420.5 377 c 128,-1,5
 383 419 383 419 324.5 419 c 128,-1,6
 266 419 266 419 228.5 377 c 128,-1,7
 191 335 191 335 191 269 c 128,-1,0
 191 203 191 203 228.5 161.5 c 128,-1,1
528 72 m 128,-1,9
 447 -8 447 -8 324.5 -8 c 128,-1,10
 202 -8 202 -8 121 72 c 128,-1,11
 40 152 40 152 40 269 c 128,-1,12
 40 386 40 386 121 466.5 c 128,-1,13
 202 547 202 547 324.5 547 c 128,-1,14
 447 547 447 547 528 466.5 c 128,-1,15
 609 386 609 386 609 269 c 128,-1,8
 609 152 609 152 528 72 c 128,-1,9
245 611 m 1,16,-1
 122 611 l 1,17,-1
 235 769 l 1,18,-1
 422 769 l 1,19,-1
 535 611 l 1,20,-1
 412 611 l 1,21,-1
 328 692 l 1,22,-1
 245 611 l 1,16,-1
EndSplineSet
EndChar

StartChar: otilde
Encoding: 245 245 183
Width: 648
Flags: W
LayerCount: 2
Back
Fore
SplineSet
228.5 161.5 m 128,-1,1
 266 120 266 120 324.5 120 c 128,-1,2
 383 120 383 120 420.5 161.5 c 128,-1,3
 458 203 458 203 458 269 c 128,-1,4
 458 335 458 335 420.5 377 c 128,-1,5
 383 419 383 419 324.5 419 c 128,-1,6
 266 419 266 419 228.5 377 c 128,-1,7
 191 335 191 335 191 269 c 128,-1,0
 191 203 191 203 228.5 161.5 c 128,-1,1
528 72 m 128,-1,9
 447 -8 447 -8 324.5 -8 c 128,-1,10
 202 -8 202 -8 121 72 c 128,-1,11
 40 152 40 152 40 269 c 128,-1,12
 40 386 40 386 121 466.5 c 128,-1,13
 202 547 202 547 324.5 547 c 128,-1,14
 447 547 447 547 528 466.5 c 128,-1,15
 609 386 609 386 609 269 c 128,-1,8
 609 152 609 152 528 72 c 128,-1,9
269 663 m 0,16,17
 238 663 238 663 239 611 c 1,18,-1
 133 611 l 1,19,20
 133 686 133 686 165.5 729 c 128,-1,21
 198 772 198 772 249 772 c 0,22,23
 281 772 281 772 326.5 744.5 c 128,-1,24
 372 717 372 717 382 717 c 0,25,26
 413 717 413 717 412 769 c 1,27,-1
 518 769 l 1,28,29
 518 694 518 694 485.5 651 c 128,-1,30
 453 608 453 608 402 608 c 0,31,32
 371 608 371 608 324 635.5 c 128,-1,33
 277 663 277 663 269 663 c 0,16,17
EndSplineSet
EndChar

StartChar: odieresis
Encoding: 246 246 184
Width: 648
Flags: W
LayerCount: 2
Back
Fore
SplineSet
228.5 161.5 m 128,-1,1
 266 120 266 120 324.5 120 c 128,-1,2
 383 120 383 120 420.5 161.5 c 128,-1,3
 458 203 458 203 458 269 c 128,-1,4
 458 335 458 335 420.5 377 c 128,-1,5
 383 419 383 419 324.5 419 c 128,-1,6
 266 419 266 419 228.5 377 c 128,-1,7
 191 335 191 335 191 269 c 128,-1,0
 191 203 191 203 228.5 161.5 c 128,-1,1
528 72 m 128,-1,9
 447 -8 447 -8 324.5 -8 c 128,-1,10
 202 -8 202 -8 121 72 c 128,-1,11
 40 152 40 152 40 269 c 128,-1,12
 40 386 40 386 121 466.5 c 128,-1,13
 202 547 202 547 324.5 547 c 128,-1,14
 447 547 447 547 528 466.5 c 128,-1,15
 609 386 609 386 609 269 c 128,-1,8
 609 152 609 152 528 72 c 128,-1,9
154 691 m 128,-1,17
 154 722 154 722 175.5 743.5 c 128,-1,18
 197 765 197 765 228 765 c 128,-1,19
 259 765 259 765 280.5 743.5 c 128,-1,20
 302 722 302 722 302 691 c 128,-1,21
 302 660 302 660 280.5 638.5 c 128,-1,22
 259 617 259 617 228 617 c 128,-1,23
 197 617 197 617 175.5 638.5 c 128,-1,16
 154 660 154 660 154 691 c 128,-1,17
347 691 m 128,-1,25
 347 722 347 722 368.5 743.5 c 128,-1,26
 390 765 390 765 421 765 c 128,-1,27
 452 765 452 765 473.5 743.5 c 128,-1,28
 495 722 495 722 495 691 c 128,-1,29
 495 660 495 660 473.5 638.5 c 128,-1,30
 452 617 452 617 421 617 c 128,-1,31
 390 617 390 617 368.5 638.5 c 128,-1,24
 347 660 347 660 347 691 c 128,-1,25
EndSplineSet
EndChar

StartChar: divide
Encoding: 247 247 185
Width: 582
Flags: W
LayerCount: 2
Back
Fore
SplineSet
203 160 m 128,-1,1
 203 197 203 197 228.5 222.5 c 128,-1,2
 254 248 254 248 291 248 c 128,-1,3
 328 248 328 248 353.5 222.5 c 128,-1,4
 379 197 379 197 379 160 c 128,-1,5
 379 123 379 123 353.5 97.5 c 128,-1,6
 328 72 328 72 291 72 c 128,-1,7
 254 72 254 72 228.5 97.5 c 128,-1,0
 203 123 203 123 203 160 c 128,-1,1
203 539 m 128,-1,9
 203 576 203 576 228.5 601.5 c 128,-1,10
 254 627 254 627 291 627 c 128,-1,11
 328 627 328 627 353.5 601.5 c 128,-1,12
 379 576 379 576 379 539 c 128,-1,13
 379 502 379 502 353.5 476.5 c 128,-1,14
 328 451 328 451 291 451 c 128,-1,15
 254 451 254 451 228.5 476.5 c 128,-1,8
 203 502 203 502 203 539 c 128,-1,9
48 411 m 1,16,-1
 534 411 l 1,17,-1
 534 288 l 1,18,-1
 48 288 l 1,19,-1
 48 411 l 1,16,-1
EndSplineSet
EndChar

StartChar: oslash
Encoding: 248 248 186
Width: 648
Flags: W
LayerCount: 2
Back
Fore
SplineSet
324 -8 m 0,0,1
 302 -8 302 -8 279 -5 c 1,2,-1
 235 -101 l 1,3,-1
 94 -101 l 1,4,-1
 159 41 l 1,5,6
 103 79 103 79 71.5 139 c 128,-1,7
 40 199 40 199 40 269 c 0,8,9
 40 386 40 386 121 466.5 c 128,-1,10
 202 547 202 547 324 547 c 0,11,12
 359 547 359 547 388 540 c 1,13,-1
 426 625 l 1,14,-1
 568 625 l 1,15,-1
 505 487 l 1,16,17
 609 404 609 404 609 269 c 0,18,19
 609 152 609 152 528 72 c 128,-1,20
 447 -8 447 -8 324 -8 c 0,0,1
228.5 377 m 128,-1,22
 191 335 191 335 191 273.5 c 128,-1,23
 191 212 191 212 219 173 c 1,24,-1
 332 419 l 1,25,-1
 324 419 l 2,26,21
 266 419 266 419 228.5 377 c 128,-1,22
424.5 166.5 m 128,-1,28
 458 207 458 207 458 260 c 128,-1,29
 458 313 458 313 441 347 c 1,30,-1
 337 121 l 1,31,27
 391 126 391 126 424.5 166.5 c 128,-1,28
EndSplineSet
EndChar

StartChar: ugrave
Encoding: 249 249 187
Width: 640
Flags: W
LayerCount: 2
Back
Fore
SplineSet
418 248 m 2,0,-1
 418 538 l 1,1,-1
 569 538 l 1,2,-1
 569 0 l 1,3,-1
 418 0 l 1,4,-1
 418 71 l 1,5,6
 362 -8 362 -8 273.5 -8 c 128,-1,7
 185 -8 185 -8 125 47.5 c 128,-1,8
 65 103 65 103 65 212 c 2,9,-1
 65 538 l 1,10,-1
 216 538 l 1,11,-1
 216 245 l 2,12,13
 216 121 216 121 307 121 c 0,14,15
 352 121 352 121 385 153.5 c 128,-1,16
 418 186 418 186 418 248 c 2,0,-1
403 611 m 1,17,-1
 260 611 l 1,18,-1
 121 723 l 1,19,-1
 275 789 l 1,20,-1
 403 611 l 1,17,-1
EndSplineSet
EndChar

StartChar: uacute
Encoding: 250 250 188
Width: 640
Flags: W
LayerCount: 2
Back
Fore
SplineSet
418 248 m 2,0,-1
 418 538 l 1,1,-1
 569 538 l 1,2,-1
 569 0 l 1,3,-1
 418 0 l 1,4,-1
 418 71 l 1,5,6
 362 -8 362 -8 273.5 -8 c 128,-1,7
 185 -8 185 -8 125 47.5 c 128,-1,8
 65 103 65 103 65 212 c 2,9,-1
 65 538 l 1,10,-1
 216 538 l 1,11,-1
 216 245 l 2,12,13
 216 121 216 121 307 121 c 0,14,15
 352 121 352 121 385 153.5 c 128,-1,16
 418 186 418 186 418 248 c 2,0,-1
379 611 m 1,17,-1
 236 611 l 1,18,-1
 363 788 l 1,19,-1
 518 723 l 1,20,-1
 379 611 l 1,17,-1
EndSplineSet
EndChar

StartChar: ucircumflex
Encoding: 251 251 189
Width: 640
Flags: W
LayerCount: 2
Back
Fore
SplineSet
418 248 m 2,0,-1
 418 538 l 1,1,-1
 569 538 l 1,2,-1
 569 0 l 1,3,-1
 418 0 l 1,4,-1
 418 71 l 1,5,6
 362 -8 362 -8 273.5 -8 c 128,-1,7
 185 -8 185 -8 125 47.5 c 128,-1,8
 65 103 65 103 65 212 c 2,9,-1
 65 538 l 1,10,-1
 216 538 l 1,11,-1
 216 245 l 2,12,13
 216 121 216 121 307 121 c 0,14,15
 352 121 352 121 385 153.5 c 128,-1,16
 418 186 418 186 418 248 c 2,0,-1
236 611 m 1,17,-1
 113 611 l 1,18,-1
 226 769 l 1,19,-1
 413 769 l 1,20,-1
 526 611 l 1,21,-1
 403 611 l 1,22,-1
 319 692 l 1,23,-1
 236 611 l 1,17,-1
EndSplineSet
EndChar

StartChar: udieresis
Encoding: 252 252 190
Width: 640
Flags: W
LayerCount: 2
Back
Fore
SplineSet
418 248 m 2,0,-1
 418 538 l 1,1,-1
 569 538 l 1,2,-1
 569 0 l 1,3,-1
 418 0 l 1,4,-1
 418 71 l 1,5,6
 362 -8 362 -8 273.5 -8 c 128,-1,7
 185 -8 185 -8 125 47.5 c 128,-1,8
 65 103 65 103 65 212 c 2,9,-1
 65 538 l 1,10,-1
 216 538 l 1,11,-1
 216 245 l 2,12,13
 216 121 216 121 307 121 c 0,14,15
 352 121 352 121 385 153.5 c 128,-1,16
 418 186 418 186 418 248 c 2,0,-1
143 691 m 128,-1,18
 143 722 143 722 164.5 743.5 c 128,-1,19
 186 765 186 765 217 765 c 128,-1,20
 248 765 248 765 269.5 743.5 c 128,-1,21
 291 722 291 722 291 691 c 128,-1,22
 291 660 291 660 269.5 638.5 c 128,-1,23
 248 617 248 617 217 617 c 128,-1,24
 186 617 186 617 164.5 638.5 c 128,-1,17
 143 660 143 660 143 691 c 128,-1,18
336 691 m 128,-1,26
 336 722 336 722 357.5 743.5 c 128,-1,27
 379 765 379 765 410 765 c 128,-1,28
 441 765 441 765 462.5 743.5 c 128,-1,29
 484 722 484 722 484 691 c 128,-1,30
 484 660 484 660 462.5 638.5 c 128,-1,31
 441 617 441 617 410 617 c 128,-1,32
 379 617 379 617 357.5 638.5 c 128,-1,25
 336 660 336 660 336 691 c 128,-1,26
EndSplineSet
EndChar

StartChar: yacute
Encoding: 253 253 191
Width: 590
Flags: W
LayerCount: 2
Back
Fore
SplineSet
164 -212 m 0,0,1
 85 -212 85 -212 15 -148 c 1,2,-1
 83 -37 l 1,3,4
 121 -74 121 -74 161 -74 c 0,5,6
 182 -74 182 -74 197 -53.5 c 128,-1,7
 212 -33 212 -33 212 -10 c 128,-1,8
 212 13 212 13 4 538 c 1,9,-1
 164 538 l 1,10,-1
 295 203 l 1,11,-1
 426 538 l 1,12,-1
 586 538 l 1,13,-1
 336 -96 l 2,14,15
 314 -151 314 -151 267.5 -181.5 c 128,-1,16
 221 -212 221 -212 164 -212 c 0,0,1
350 611 m 1,17,-1
 207 611 l 1,18,-1
 334 788 l 1,19,-1
 489 723 l 1,20,-1
 350 611 l 1,17,-1
EndSplineSet
EndChar

StartChar: thorn
Encoding: 254 254 192
Width: 666
Flags: W
LayerCount: 2
Back
Fore
SplineSet
547.5 472 m 128,-1,1
 625 397 625 397 625 272 c 128,-1,2
 625 147 625 147 547.5 69.5 c 128,-1,3
 470 -8 470 -8 367 -8 c 0,4,5
 287 -8 287 -8 221 43 c 1,6,-1
 221 -194 l 1,7,-1
 71 -194 l 1,8,-1
 71 742 l 1,9,-1
 221 742 l 1,10,-1
 221 493 l 1,11,12
 281 547 281 547 365 547 c 0,13,0
 470 547 470 547 547.5 472 c 128,-1,1
255.5 161.5 m 128,-1,15
 292 120 292 120 344 120 c 128,-1,16
 396 120 396 120 435 161.5 c 128,-1,17
 474 203 474 203 474 268 c 128,-1,18
 474 333 474 333 436 377 c 128,-1,19
 398 421 398 421 345 421 c 128,-1,20
 292 421 292 421 255.5 377.5 c 128,-1,21
 219 334 219 334 219 268.5 c 128,-1,14
 219 203 219 203 255.5 161.5 c 128,-1,15
EndSplineSet
EndChar

StartChar: ydieresis
Encoding: 255 255 193
Width: 590
Flags: W
LayerCount: 2
Back
Fore
SplineSet
164 -212 m 0,0,1
 85 -212 85 -212 15 -148 c 1,2,-1
 83 -37 l 1,3,4
 121 -74 121 -74 161 -74 c 0,5,6
 182 -74 182 -74 197 -53.5 c 128,-1,7
 212 -33 212 -33 212 -10 c 128,-1,8
 212 13 212 13 4 538 c 1,9,-1
 164 538 l 1,10,-1
 295 203 l 1,11,-1
 426 538 l 1,12,-1
 586 538 l 1,13,-1
 336 -96 l 2,14,15
 314 -151 314 -151 267.5 -181.5 c 128,-1,16
 221 -212 221 -212 164 -212 c 0,0,1
124 691 m 128,-1,18
 124 722 124 722 145.5 743.5 c 128,-1,19
 167 765 167 765 198 765 c 128,-1,20
 229 765 229 765 250.5 743.5 c 128,-1,21
 272 722 272 722 272 691 c 128,-1,22
 272 660 272 660 250.5 638.5 c 128,-1,23
 229 617 229 617 198 617 c 128,-1,24
 167 617 167 617 145.5 638.5 c 128,-1,17
 124 660 124 660 124 691 c 128,-1,18
317 691 m 128,-1,26
 317 722 317 722 338.5 743.5 c 128,-1,27
 360 765 360 765 391 765 c 128,-1,28
 422 765 422 765 443.5 743.5 c 128,-1,29
 465 722 465 722 465 691 c 128,-1,30
 465 660 465 660 443.5 638.5 c 128,-1,31
 422 617 422 617 391 617 c 128,-1,32
 360 617 360 617 338.5 638.5 c 128,-1,25
 317 660 317 660 317 691 c 128,-1,26
EndSplineSet
EndChar

StartChar: hbar
Encoding: 295 295 194
Width: 639
Flags: W
LayerCount: 2
Back
Fore
SplineSet
221 290 m 2,0,-1
 221 0 l 1,1,-1
 71 0 l 1,2,-1
 71 574 l 1,3,-1
 24 574 l 1,4,-1
 24 661 l 1,5,-1
 71 661 l 1,6,-1
 71 742 l 1,7,-1
 221 742 l 1,8,-1
 221 661 l 1,9,-1
 331 661 l 1,10,-1
 331 574 l 1,11,-1
 221 574 l 1,12,-1
 221 478 l 1,13,14
 289 547 289 547 373.5 547 c 128,-1,15
 458 547 458 547 516 487 c 128,-1,16
 574 427 574 427 574 327 c 2,17,-1
 574 0 l 1,18,-1
 424 0 l 1,19,-1
 424 294 l 2,20,21
 424 418 424 418 333 418 c 0,22,23
 288 418 288 418 254.5 385.5 c 128,-1,24
 221 353 221 353 221 290 c 2,0,-1
EndSplineSet
EndChar

StartChar: Itilde
Encoding: 296 296 195
Width: 328
Flags: W
LayerCount: 2
Back
Fore
SplineSet
86 699 m 1,0,-1
 242 699 l 1,1,-1
 242 0 l 1,2,-1
 86 0 l 1,3,-1
 86 699 l 1,0,-1
106 821 m 0,4,5
 75 821 75 821 76 769 c 1,6,-1
 -30 769 l 1,7,8
 -30 844 -30 844 2.5 887 c 128,-1,9
 35 930 35 930 86 930 c 0,10,11
 118 930 118 930 163.5 902.5 c 128,-1,12
 209 875 209 875 219 875 c 0,13,14
 250 875 250 875 249 927 c 1,15,-1
 355 927 l 1,16,17
 355 852 355 852 322.5 809 c 128,-1,18
 290 766 290 766 239 766 c 0,19,20
 208 766 208 766 161 793.5 c 128,-1,21
 114 821 114 821 106 821 c 0,4,5
EndSplineSet
EndChar

StartChar: itilde
Encoding: 297 297 196
Width: 292
Flags: W
LayerCount: 2
Back
Fore
SplineSet
71 538 m 1,0,-1
 221 538 l 1,1,-1
 221 0 l 1,2,-1
 71 0 l 1,3,-1
 71 538 l 1,0,-1
89 663 m 0,4,5
 58 663 58 663 59 611 c 1,6,-1
 -47 611 l 1,7,8
 -47 686 -47 686 -14.5 729 c 128,-1,9
 18 772 18 772 69 772 c 0,10,11
 101 772 101 772 146.5 744.5 c 128,-1,12
 192 717 192 717 202 717 c 0,13,14
 233 717 233 717 232 769 c 1,15,-1
 338 769 l 1,16,17
 338 694 338 694 305.5 651 c 128,-1,18
 273 608 273 608 222 608 c 0,19,20
 191 608 191 608 144 635.5 c 128,-1,21
 97 663 97 663 89 663 c 0,4,5
EndSplineSet
EndChar

StartChar: dotlessi
Encoding: 305 305 197
Width: 292
Flags: W
LayerCount: 2
Back
Fore
SplineSet
71 538 m 1,0,-1
 221 538 l 1,1,-1
 221 0 l 1,2,-1
 71 0 l 1,3,-1
 71 538 l 1,0,-1
EndSplineSet
EndChar

StartChar: ij
Encoding: 307 307 198
Width: 599
Flags: W
LayerCount: 2
Back
Fore
SplineSet
221 0 m 1,0,-1
 71 0 l 1,1,-1
 71 538 l 1,2,-1
 221 538 l 1,3,-1
 221 0 l 1,0,-1
378 -8 m 2,4,-1
 378 538 l 1,5,-1
 528 538 l 1,6,-1
 528 -12 l 2,7,8
 528 -100 528 -100 474.5 -151 c 128,-1,9
 421 -202 421 -202 343.5 -202 c 128,-1,10
 266 -202 266 -202 196 -138 c 1,11,-1
 266 -23 l 1,12,13
 314 -70 314 -70 336 -70 c 0,14,15
 378 -70 378 -70 378 -8 c 2,4,-1
59 668 m 128,-1,17
 59 705 59 705 84.5 730.5 c 128,-1,18
 110 756 110 756 147 756 c 128,-1,19
 184 756 184 756 209.5 730.5 c 128,-1,20
 235 705 235 705 235 668 c 128,-1,21
 235 631 235 631 209.5 605.5 c 128,-1,22
 184 580 184 580 147 580 c 128,-1,23
 110 580 110 580 84.5 605.5 c 128,-1,16
 59 631 59 631 59 668 c 128,-1,17
364 668 m 128,-1,25
 364 705 364 705 389.5 730.5 c 128,-1,26
 415 756 415 756 452 756 c 128,-1,27
 489 756 489 756 514.5 730.5 c 128,-1,28
 540 705 540 705 540 668 c 128,-1,29
 540 631 540 631 514.5 605.5 c 128,-1,30
 489 580 489 580 452 580 c 128,-1,31
 415 580 415 580 389.5 605.5 c 128,-1,24
 364 631 364 631 364 668 c 128,-1,25
EndSplineSet
EndChar

StartChar: Jcircumflex
Encoding: 308 308 199
Width: 556
Flags: W
LayerCount: 2
Back
Fore
SplineSet
112 565 m 1,0,-1
 112 699 l 1,1,-1
 476 699 l 1,2,-1
 476 243 l 2,3,4
 476 118 476 118 411.5 56 c 128,-1,5
 347 -6 347 -6 246 -6 c 0,6,7
 120 -6 120 -6 26 91 c 1,8,-1
 107 203 l 1,9,10
 170 135 170 135 239 135 c 0,11,12
 272 135 272 135 295.5 160.5 c 128,-1,13
 319 186 319 186 319 237 c 2,14,-1
 319 565 l 1,15,-1
 112 565 l 1,0,-1
214 769 m 1,16,-1
 91 769 l 1,17,-1
 204 927 l 1,18,-1
 391 927 l 1,19,-1
 504 769 l 1,20,-1
 381 769 l 1,21,-1
 297 850 l 1,22,-1
 214 769 l 1,16,-1
EndSplineSet
EndChar

StartChar: jcircumflex
Encoding: 309 309 200
Width: 292
Flags: W
LayerCount: 2
Back
Fore
SplineSet
71 -10 m 2,0,-1
 71 538 l 1,1,-1
 221 538 l 1,2,-1
 221 -22 l 2,3,4
 221 -110 221 -110 167.5 -161 c 128,-1,5
 114 -212 114 -212 36.5 -212 c 128,-1,6
 -41 -212 -41 -212 -111 -148 c 1,7,-1
 -42 -37 l 1,8,9
 -12 -72 -12 -72 25 -72 c 0,10,11
 45 -72 45 -72 58 -56.5 c 128,-1,12
 71 -41 71 -41 71 -10 c 2,0,-1
62 611 m 1,13,-1
 -61 611 l 1,14,-1
 52 769 l 1,15,-1
 239 769 l 1,16,-1
 352 611 l 1,17,-1
 229 611 l 1,18,-1
 145 692 l 1,19,-1
 62 611 l 1,13,-1
EndSplineSet
EndChar

StartChar: kcedilla
Encoding: 311 311 201
Width: 595
Flags: W
LayerCount: 2
Back
Fore
SplineSet
221 0 m 1,0,-1
 71 0 l 1,1,-1
 71 742 l 1,2,-1
 221 742 l 1,3,-1
 221 361 l 1,4,-1
 388 539 l 1,5,-1
 577 539 l 1,6,-1
 372 321 l 1,7,-1
 585 0 l 1,8,-1
 407 0 l 1,9,-1
 270 206 l 1,10,-1
 221 155 l 1,11,-1
 221 0 l 1,0,-1
411 -127 m 0,12,13
 411 -170 411 -170 375.5 -202 c 128,-1,14
 340 -234 340 -234 286 -234 c 128,-1,15
 232 -234 232 -234 181 -202 c 1,16,-1
 219 -116 l 1,17,18
 241 -135 241 -135 258 -135 c 128,-1,19
 275 -135 275 -135 284.5 -126 c 128,-1,20
 294 -117 294 -117 294 -103.5 c 128,-1,21
 294 -90 294 -90 282 -79.5 c 128,-1,22
 270 -69 270 -69 254 -69 c 128,-1,23
 238 -69 238 -69 218 -78 c 1,24,-1
 259 0 l 1,25,-1
 374 0 l 1,26,-1
 346 -51 l 1,27,28
 411 -73 411 -73 411 -127 c 0,12,13
EndSplineSet
EndChar

StartChar: kgreenlandic
Encoding: 312 312 202
Width: 595
Flags: W
LayerCount: 2
Back
Fore
SplineSet
221 0 m 1,0,-1
 71 0 l 1,1,-1
 71 538 l 1,2,-1
 221 538 l 1,3,-1
 221 361 l 1,4,-1
 388 538 l 1,5,-1
 577 538 l 1,6,-1
 372 321 l 1,7,-1
 585 0 l 1,8,-1
 407 0 l 1,9,-1
 270 206 l 1,10,-1
 221 155 l 1,11,-1
 221 0 l 1,0,-1
EndSplineSet
EndChar

StartChar: ldot
Encoding: 320 320 203
Width: 398
Flags: W
LayerCount: 2
Back
Fore
SplineSet
221 0 m 1,0,-1
 71 0 l 1,1,-1
 71 742 l 1,2,-1
 221 742 l 1,3,-1
 221 0 l 1,0,-1
257 320 m 128,-1,5
 257 357 257 357 282.5 382.5 c 128,-1,6
 308 408 308 408 345 408 c 128,-1,7
 382 408 382 408 407.5 382.5 c 128,-1,8
 433 357 433 357 433 320 c 128,-1,9
 433 283 433 283 407.5 257.5 c 128,-1,10
 382 232 382 232 345 232 c 128,-1,11
 308 232 308 232 282.5 257.5 c 128,-1,4
 257 283 257 283 257 320 c 128,-1,5
EndSplineSet
EndChar

StartChar: Lslash
Encoding: 321 321 204
Width: 584
Flags: W
LayerCount: 2
Back
Fore
SplineSet
102 698 m 1,0,-1
 258 698 l 1,1,-1
 258 386 l 1,2,-1
 463 451 l 1,3,-1
 463 315 l 1,4,-1
 258 250 l 1,5,-1
 258 139 l 1,6,-1
 556 139 l 1,7,-1
 556 0 l 1,8,-1
 102 0 l 1,9,-1
 102 201 l 1,10,-1
 28 178 l 1,11,-1
 28 313 l 1,12,-1
 102 337 l 1,13,-1
 102 698 l 1,0,-1
EndSplineSet
EndChar

StartChar: lslash
Encoding: 322 322 205
Width: 363
Flags: W
LayerCount: 2
Back
Fore
SplineSet
113 698 m 1,0,-1
 264 698 l 1,1,-1
 264 398 l 1,2,-1
 334 419 l 1,3,-1
 334 283 l 1,4,-1
 264 263 l 1,5,-1
 264 0 l 1,6,-1
 113 0 l 1,7,-1
 113 220 l 1,8,-1
 36 197 l 1,9,-1
 36 333 l 1,10,-1
 113 355 l 1,11,-1
 113 698 l 1,0,-1
EndSplineSet
EndChar

StartChar: Nacute
Encoding: 323 323 206
Width: 817
Flags: W
LayerCount: 2
Back
Fore
SplineSet
575 699 m 1,0,-1
 731 699 l 1,1,-1
 731 0 l 1,2,-1
 575 0 l 1,3,-1
 242 438 l 1,4,-1
 242 0 l 1,5,-1
 86 0 l 1,6,-1
 86 699 l 1,7,-1
 232 699 l 1,8,-1
 575 249 l 1,9,-1
 575 699 l 1,0,-1
471 771 m 1,10,-1
 328 771 l 1,11,-1
 455 948 l 1,12,-1
 610 883 l 1,13,-1
 471 771 l 1,10,-1
EndSplineSet
EndChar

StartChar: nacute
Encoding: 324 324 207
Width: 639
Flags: W
LayerCount: 2
Back
Fore
SplineSet
221 300 m 2,0,-1
 221 0 l 1,1,-1
 71 0 l 1,2,-1
 71 538 l 1,3,-1
 221 538 l 1,4,-1
 221 478 l 1,5,6
 289 547 289 547 374 547 c 128,-1,7
 459 547 459 547 516.5 487 c 128,-1,8
 574 427 574 427 574 327 c 2,9,-1
 574 0 l 1,10,-1
 424 0 l 1,11,-1
 424 304 l 2,12,13
 424 428 424 428 333 428 c 0,14,15
 288 428 288 428 254.5 395.5 c 128,-1,16
 221 363 221 363 221 300 c 2,0,-1
379 611 m 1,17,-1
 236 611 l 1,18,-1
 363 788 l 1,19,-1
 518 723 l 1,20,-1
 379 611 l 1,17,-1
EndSplineSet
EndChar

StartChar: OE
Encoding: 338 338 208
Width: 1042
Flags: W
LayerCount: 2
Back
Fore
SplineSet
978 698 m 1,0,-1
 978 560 l 1,1,-1
 630 560 l 1,2,-1
 630 416 l 1,3,-1
 942 416 l 1,4,-1
 942 283 l 1,5,-1
 630 283 l 1,6,-1
 630 138 l 1,7,-1
 989 138 l 1,8,-1
 989 0 l 1,9,-1
 403 0 l 2,10,11
 252 0 252 0 149.5 100 c 128,-1,12
 47 200 47 200 47 349 c 128,-1,13
 47 498 47 498 149.5 598 c 128,-1,14
 252 698 252 698 403 698 c 2,15,-1
 978 698 l 1,0,-1
271 503.5 m 128,-1,17
 213 440 213 440 213 349.5 c 128,-1,18
 213 259 213 259 271 195 c 128,-1,19
 329 131 329 131 413 131 c 2,20,-1
 473 131 l 1,21,-1
 473 567 l 1,22,-1
 413 567 l 2,23,16
 329 567 329 567 271 503.5 c 128,-1,17
EndSplineSet
EndChar

StartChar: oe
Encoding: 339 339 209
Width: 1035
Flags: W
LayerCount: 2
Back
Fore
SplineSet
954 78 m 1,0,1
 863 -8 863 -8 735.5 -8 c 128,-1,2
 608 -8 608 -8 530 75 c 1,3,4
 449 -8 449 -8 325.5 -8 c 128,-1,5
 202 -8 202 -8 121 72 c 128,-1,6
 40 152 40 152 40 269 c 128,-1,7
 40 386 40 386 121 466.5 c 128,-1,8
 202 547 202 547 325.5 547 c 128,-1,9
 449 547 449 547 531 463 c 1,10,11
 610 547 610 547 726.5 547 c 128,-1,12
 843 547 843 547 920.5 480 c 128,-1,13
 998 413 998 413 998 296 c 2,14,-1
 998 216 l 1,15,-1
 606 216 l 1,16,17
 613 172 613 172 652 144 c 128,-1,18
 691 116 691 116 740 116 c 0,19,20
 819 116 819 116 870 169 c 1,21,-1
 954 78 l 1,0,1
458 262 m 2,22,-1
 458 269 l 2,23,24
 458 335 458 335 420.5 377 c 128,-1,25
 383 419 383 419 324.5 419 c 128,-1,26
 266 419 266 419 228.5 377 c 128,-1,27
 191 335 191 335 191 269 c 128,-1,28
 191 203 191 203 228.5 161.5 c 128,-1,29
 266 120 266 120 323.5 120 c 128,-1,30
 381 120 381 120 418.5 159.5 c 128,-1,31
 456 199 456 199 458 262 c 2,22,-1
810 397 m 128,-1,33
 779 423 779 423 734.5 423 c 128,-1,34
 690 423 690 423 653 396 c 128,-1,35
 616 369 616 369 610 323 c 1,36,-1
 846 323 l 1,37,32
 841 371 841 371 810 397 c 128,-1,33
EndSplineSet
EndChar

StartChar: Racute
Encoding: 340 340 210
Width: 727
Flags: W
LayerCount: 2
Back
Fore
SplineSet
653 467 m 0,0,1
 653 299 653 299 520 250 c 1,2,-1
 697 0 l 1,3,-1
 505 0 l 1,4,-1
 350 223 l 1,5,-1
 242 223 l 1,6,-1
 242 0 l 1,7,-1
 86 0 l 1,8,-1
 86 699 l 1,9,-1
 351 699 l 2,10,11
 514 699 514 699 583.5 644 c 128,-1,12
 653 589 653 589 653 467 c 0,0,1
465 384 m 128,-1,14
 494 410 494 410 494 466.5 c 128,-1,15
 494 523 494 523 464 544 c 128,-1,16
 434 565 434 565 359 565 c 2,17,-1
 242 565 l 1,18,-1
 242 358 l 1,19,-1
 356 358 l 2,20,13
 436 358 436 358 465 384 c 128,-1,14
347 771 m 1,21,-1
 204 771 l 1,22,-1
 331 948 l 1,23,-1
 486 883 l 1,24,-1
 347 771 l 1,21,-1
EndSplineSet
EndChar

StartChar: Rcommaaccent
Encoding: 342 342 211
Width: 727
Flags: W
LayerCount: 2
Back
Fore
SplineSet
246 -250 m 1,0,-1
 311 -55 l 1,1,-1
 452 -55 l 1,2,-1
 372 -250 l 1,3,-1
 246 -250 l 1,0,-1
653 467 m 0,4,5
 653 299 653 299 520 250 c 1,6,-1
 697 0 l 1,7,-1
 505 0 l 1,8,-1
 350 223 l 1,9,-1
 242 223 l 1,10,-1
 242 0 l 1,11,-1
 86 0 l 1,12,-1
 86 699 l 1,13,-1
 351 699 l 2,14,15
 514 699 514 699 583.5 644 c 128,-1,16
 653 589 653 589 653 467 c 0,4,5
465 384 m 128,-1,18
 494 410 494 410 494 466.5 c 128,-1,19
 494 523 494 523 464 544 c 128,-1,20
 434 565 434 565 359 565 c 2,21,-1
 242 565 l 1,22,-1
 242 358 l 1,23,-1
 356 358 l 2,24,17
 436 358 436 358 465 384 c 128,-1,18
EndSplineSet
EndChar

StartChar: rcommaaccent
Encoding: 343 343 212
Width: 411
Flags: W
LayerCount: 2
Back
Fore
SplineSet
16 -250 m 1,0,-1
 81 -55 l 1,1,-1
 222 -55 l 1,2,-1
 142 -250 l 1,3,-1
 16 -250 l 1,0,-1
354 406 m 2,4,5
 287 406 287 406 254 358.5 c 128,-1,6
 221 311 221 311 221 233 c 2,7,-1
 221 0 l 1,8,-1
 71 0 l 1,9,-1
 71 539 l 1,10,-1
 221 539 l 1,11,-1
 221 467 l 1,12,13
 251 500 251 500 294 523.5 c 128,-1,14
 337 547 337 547 382 548 c 1,15,-1
 383 406 l 1,16,-1
 354 406 l 2,4,5
EndSplineSet
EndChar

StartChar: Rcaron
Encoding: 344 344 213
Width: 727
Flags: W
LayerCount: 2
Back
Fore
SplineSet
653 467 m 0,0,1
 653 299 653 299 520 250 c 1,2,-1
 697 0 l 1,3,-1
 505 0 l 1,4,-1
 350 223 l 1,5,-1
 242 223 l 1,6,-1
 242 0 l 1,7,-1
 86 0 l 1,8,-1
 86 699 l 1,9,-1
 351 699 l 2,10,11
 514 699 514 699 583.5 644 c 128,-1,12
 653 589 653 589 653 467 c 0,0,1
465 384 m 128,-1,14
 494 410 494 410 494 466.5 c 128,-1,15
 494 523 494 523 464 544 c 128,-1,16
 434 565 434 565 359 565 c 2,17,-1
 242 565 l 1,18,-1
 242 358 l 1,19,-1
 356 358 l 2,20,13
 436 358 436 358 465 384 c 128,-1,14
130 927 m 1,21,-1
 253 927 l 1,22,-1
 336 846 l 1,23,-1
 420 927 l 1,24,-1
 543 927 l 1,25,-1
 430 769 l 1,26,-1
 243 769 l 1,27,-1
 130 927 l 1,21,-1
EndSplineSet
EndChar

StartChar: rcaron
Encoding: 345 345 214
Width: 411
Flags: W
LayerCount: 2
Back
Fore
SplineSet
354 406 m 2,0,1
 287 406 287 406 254 358.5 c 128,-1,2
 221 311 221 311 221 233 c 2,3,-1
 221 0 l 1,4,-1
 71 0 l 1,5,-1
 71 538 l 1,6,-1
 221 538 l 1,7,-1
 221 467 l 1,8,9
 250 500 250 500 293.5 523 c 128,-1,10
 337 546 337 546 382 547 c 1,11,-1
 383 406 l 1,12,-1
 354 406 l 2,0,1
7 769 m 1,13,-1
 130 769 l 1,14,-1
 213 688 l 1,15,-1
 297 769 l 1,16,-1
 420 769 l 1,17,-1
 307 611 l 1,18,-1
 120 611 l 1,19,-1
 7 769 l 1,13,-1
EndSplineSet
EndChar

StartChar: Scaron
Encoding: 352 352 215
Width: 638
Flags: W
LayerCount: 2
Back
Fore
SplineSet
249.5 559.5 m 128,-1,1
 227 541 227 541 227 510.5 c 128,-1,2
 227 480 227 480 254.5 462 c 128,-1,3
 282 444 282 444 381.5 419.5 c 128,-1,4
 481 395 481 395 536 346 c 128,-1,5
 591 297 591 297 591 203 c 128,-1,6
 591 109 591 109 520.5 50.5 c 128,-1,7
 450 -8 450 -8 335 -8 c 0,8,9
 169 -8 169 -8 36 115 c 1,10,-1
 129 229 l 1,11,12
 242 130 242 130 338 130 c 0,13,14
 381 130 381 130 405.5 148.5 c 128,-1,15
 430 167 430 167 430 198.5 c 128,-1,16
 430 230 430 230 404 248.5 c 128,-1,17
 378 267 378 267 301 286 c 0,18,19
 179 315 179 315 122.5 361.5 c 128,-1,20
 66 408 66 408 66 507.5 c 128,-1,21
 66 607 66 607 137.5 661 c 128,-1,22
 209 715 209 715 316 715 c 0,23,24
 386 715 386 715 456 691 c 128,-1,25
 526 667 526 667 578 623 c 1,26,-1
 499 509 l 1,27,28
 408 578 408 578 311 578 c 0,29,0
 272 578 272 578 249.5 559.5 c 128,-1,1
101 927 m 1,30,-1
 224 927 l 1,31,-1
 307 846 l 1,32,-1
 391 927 l 1,33,-1
 514 927 l 1,34,-1
 401 769 l 1,35,-1
 214 769 l 1,36,-1
 101 927 l 1,30,-1
EndSplineSet
EndChar

StartChar: scaron
Encoding: 353 353 216
Width: 520
Flags: W
LayerCount: 2
Back
Fore
SplineSet
417.5 40 m 128,-1,1
 359 -8 359 -8 269 -8 c 0,2,3
 209 -8 209 -8 144 13.5 c 128,-1,4
 79 35 79 35 27 77 c 1,5,-1
 93 171 l 1,6,7
 177 106 177 106 272 106 c 0,8,9
 301 106 301 106 318 117.5 c 128,-1,10
 335 129 335 129 335 148 c 128,-1,11
 335 167 335 167 311.5 183 c 128,-1,12
 288 199 288 199 243.5 213 c 128,-1,13
 199 227 199 227 175.5 237 c 128,-1,14
 152 247 152 247 122 266 c 0,15,16
 61 304 61 304 61 378.5 c 128,-1,17
 61 453 61 453 121 500 c 128,-1,18
 181 547 181 547 276 547 c 128,-1,19
 371 547 371 547 466 483 c 1,20,-1
 410 383 l 1,21,22
 340 431 340 431 270.5 431 c 128,-1,23
 201 431 201 431 201 393 c 0,24,25
 201 372 201 372 223 360 c 128,-1,26
 245 348 245 348 296 332 c 128,-1,27
 347 316 347 316 368.5 307.5 c 128,-1,28
 390 299 390 299 420 281 c 0,29,30
 476 247 476 247 476 167.5 c 128,-1,0
 476 88 476 88 417.5 40 c 128,-1,1
58 769 m 1,31,-1
 181 769 l 1,32,-1
 264 688 l 1,33,-1
 348 769 l 1,34,-1
 471 769 l 1,35,-1
 358 611 l 1,36,-1
 171 611 l 1,37,-1
 58 769 l 1,31,-1
EndSplineSet
EndChar

StartChar: Zcaron
Encoding: 381 381 217
Width: 681
Flags: W
LayerCount: 2
Back
Fore
SplineSet
46 0 m 1,0,-1
 46 107 l 1,1,-1
 412 564 l 1,2,-1
 58 564 l 1,3,-1
 58 699 l 1,4,-1
 625 699 l 1,5,-1
 625 591 l 1,6,-1
 260 136 l 1,7,-1
 631 136 l 1,8,-1
 631 0 l 1,9,-1
 46 0 l 1,0,-1
127 927 m 1,10,-1
 250 927 l 1,11,-1
 333 846 l 1,12,-1
 417 927 l 1,13,-1
 540 927 l 1,14,-1
 427 769 l 1,15,-1
 240 769 l 1,16,-1
 127 927 l 1,10,-1
EndSplineSet
EndChar

StartChar: zcaron
Encoding: 382 382 218
Width: 553
Flags: W
LayerCount: 2
Back
Fore
SplineSet
61 414 m 1,0,-1
 61 538 l 1,1,-1
 495 538 l 1,2,-1
 495 421 l 1,3,-1
 234 125 l 1,4,-1
 510 125 l 1,5,-1
 510 0 l 1,6,-1
 42 0 l 1,7,-1
 42 124 l 1,8,-1
 296 414 l 1,9,-1
 61 414 l 1,0,-1
73 769 m 1,10,-1
 196 769 l 1,11,-1
 279 688 l 1,12,-1
 363 769 l 1,13,-1
 486 769 l 1,14,-1
 373 611 l 1,15,-1
 186 611 l 1,16,-1
 73 769 l 1,10,-1
EndSplineSet
EndChar

StartChar: florin
Encoding: 402 402 219
Width: 707
Flags: W
LayerCount: 2
Back
Fore
SplineSet
393 708 m 128,-1,1
 452 757 452 757 535.5 757 c 128,-1,2
 619 757 619 757 677 695 c 1,3,-1
 605 584 l 1,4,5
 583 619 583 619 539 619 c 0,6,7
 516 619 516 619 498 602 c 128,-1,8
 480 585 480 585 474 553 c 2,9,-1
 456 424 l 1,10,-1
 589 424 l 1,11,-1
 576 316 l 1,12,-1
 441 316 l 1,13,-1
 397 -3 l 2,14,15
 384 -93 384 -93 330 -147.5 c 128,-1,16
 276 -202 276 -202 186.5 -202 c 128,-1,17
 97 -202 97 -202 27 -138 c 1,18,-1
 93 -29 l 1,19,20
 136 -70 136 -70 181 -70 c 0,21,22
 235 -70 235 -70 244 -2 c 2,23,-1
 287 316 l 1,24,-1
 224 316 l 1,25,-1
 237 424 l 1,26,-1
 302 424 l 1,27,-1
 322 568 l 2,28,0
 334 659 334 659 393 708 c 128,-1,1
EndSplineSet
EndChar

StartChar: circumflex
Encoding: 710 710 220
Width: 483
Flags: W
LayerCount: 2
Back
Fore
SplineSet
158 771 m 1,0,-1
 35 771 l 1,1,-1
 148 929 l 1,2,-1
 335 929 l 1,3,-1
 448 771 l 1,4,-1
 325 771 l 1,5,-1
 241 852 l 1,6,-1
 158 771 l 1,0,-1
EndSplineSet
EndChar

StartChar: caron
Encoding: 711 711 221
Width: 613
Flags: W
LayerCount: 2
Back
Fore
SplineSet
100 918 m 1,0,-1
 223 918 l 1,1,-1
 306 837 l 1,2,-1
 390 918 l 1,3,-1
 513 918 l 1,4,-1
 400 760 l 1,5,-1
 213 760 l 1,6,-1
 100 918 l 1,0,-1
EndSplineSet
EndChar

StartChar: breve
Encoding: 728 728 222
Width: 568
Flags: W
LayerCount: 2
Back
Fore
SplineSet
284 666 m 128,-1,1
 329 666 329 666 347 726 c 1,2,-1
 468 726 l 1,3,4
 461 644 461 644 411 598 c 128,-1,5
 361 552 361 552 284 552 c 128,-1,6
 207 552 207 552 157 598 c 128,-1,7
 107 644 107 644 100 726 c 1,8,-1
 221 726 l 1,9,0
 239 666 239 666 284 666 c 128,-1,1
EndSplineSet
EndChar

StartChar: dotaccent
Encoding: 729 729 223
Width: 311
Flags: W
LayerCount: 2
Back
Fore
SplineSet
55 682 m 128,-1,1
 55 724 55 724 84.5 753.5 c 128,-1,2
 114 783 114 783 156 783 c 128,-1,3
 198 783 198 783 227.5 753.5 c 128,-1,4
 257 724 257 724 257 682 c 128,-1,5
 257 640 257 640 227.5 610.5 c 128,-1,6
 198 581 198 581 156 581 c 128,-1,7
 114 581 114 581 84.5 610.5 c 128,-1,0
 55 640 55 640 55 682 c 128,-1,1
EndSplineSet
EndChar

StartChar: ring
Encoding: 730 730 224
Width: 414
Flags: W
LayerCount: 2
Back
Fore
SplineSet
100 703 m 128,-1,1
 100 747 100 747 131.5 778.5 c 128,-1,2
 163 810 163 810 207 810 c 128,-1,3
 251 810 251 810 282.5 778.5 c 128,-1,4
 314 747 314 747 314 703 c 128,-1,5
 314 659 314 659 282.5 627.5 c 128,-1,6
 251 596 251 596 207 596 c 128,-1,7
 163 596 163 596 131.5 627.5 c 128,-1,0
 100 659 100 659 100 703 c 128,-1,1
172 703 m 128,-1,9
 172 689 172 689 182.5 678.5 c 128,-1,10
 193 668 193 668 207 668 c 128,-1,11
 221 668 221 668 231.5 678.5 c 128,-1,12
 242 689 242 689 242 703 c 128,-1,13
 242 717 242 717 231.5 727.5 c 128,-1,14
 221 738 221 738 207 738 c 128,-1,15
 193 738 193 738 182.5 727.5 c 128,-1,8
 172 717 172 717 172 703 c 128,-1,9
EndSplineSet
EndChar

StartChar: ogonek
Encoding: 731 731 225
Width: 215
Flags: W
LayerCount: 2
Back
Fore
SplineSet
125 -129 m 0,0,1
 147 -129 147 -129 166 -100 c 1,2,-1
 217 -133 l 1,3,4
 188 -180 188 -180 163.5 -196 c 128,-1,5
 139 -212 139 -212 102.5 -212 c 128,-1,6
 66 -212 66 -212 42 -187 c 128,-1,7
 18 -162 18 -162 18 -131 c 128,-1,8
 18 -100 18 -100 31 -71 c 128,-1,9
 44 -42 44 -42 58 -25 c 2,10,-1
 71 -8 l 1,11,-1
 144 -8 l 1,12,13
 98 -68 98 -68 98 -104 c 0,14,15
 98 -129 98 -129 125 -129 c 0,0,1
EndSplineSet
EndChar

StartChar: tilde
Encoding: 732 732 226
Width: 585
Flags: W
LayerCount: 2
Back
Fore
SplineSet
243 663 m 0,0,1
 212 663 212 663 213 611 c 1,2,-1
 107 611 l 1,3,4
 107 686 107 686 139.5 729 c 128,-1,5
 172 772 172 772 223 772 c 0,6,7
 255 772 255 772 300.5 744.5 c 128,-1,8
 346 717 346 717 356 717 c 0,9,10
 387 717 387 717 386 769 c 1,11,-1
 492 769 l 1,12,13
 492 694 492 694 459.5 651 c 128,-1,14
 427 608 427 608 376 608 c 0,15,16
 345 608 345 608 298 635.5 c 128,-1,17
 251 663 251 663 243 663 c 0,0,1
EndSplineSet
EndChar

StartChar: hungarumlaut
Encoding: 733 733 227
Width: 506
Flags: W
LayerCount: 2
Back
Fore
SplineSet
149 611 m 1,0,-1
 16 611 l 1,1,-1
 143 788 l 1,2,-1
 288 723 l 1,3,-1
 149 611 l 1,0,-1
371 611 m 1,4,-1
 228 611 l 1,5,-1
 365 788 l 1,6,-1
 510 723 l 1,7,-1
 371 611 l 1,4,-1
EndSplineSet
EndChar

StartChar: pi
Encoding: 960 960 228
Width: 744
Flags: W
LayerCount: 2
Back
Fore
SplineSet
155 365 m 0,0,1
 155 348 155 348 168 322 c 1,2,-1
 44 287 l 1,3,4
 23 329 23 329 23 373 c 0,5,6
 23 442 23 442 76.5 490 c 128,-1,7
 130 538 130 538 216 538 c 2,8,-1
 712 538 l 1,9,-1
 712 407 l 1,10,-1
 616 407 l 1,11,-1
 616 0 l 1,12,-1
 466 0 l 1,13,-1
 466 407 l 1,14,-1
 362 407 l 1,15,16
 358 311 358 311 337.5 190 c 128,-1,17
 317 69 317 69 291 0 c 1,18,-1
 149 0 l 1,19,20
 177 83 177 83 197 199.5 c 128,-1,21
 217 316 217 316 219 407 c 1,22,23
 155 407 155 407 155 365 c 0,0,1
EndSplineSet
EndChar

StartChar: endash
Encoding: 8211 8211 229
Width: 543
Flags: W
LayerCount: 2
Back
Fore
SplineSet
74 215 m 1,0,-1
 74 312 l 1,1,-1
 469 312 l 1,2,-1
 469 215 l 1,3,-1
 74 215 l 1,0,-1
EndSplineSet
EndChar

StartChar: emdash
Encoding: 8212 8212 230
Width: 697
Flags: W
LayerCount: 2
Back
Fore
SplineSet
64 216 m 1,0,-1
 64 312 l 1,1,-1
 633 312 l 1,2,-1
 633 216 l 1,3,-1
 64 216 l 1,0,-1
EndSplineSet
EndChar

StartChar: quoteleft
Encoding: 8216 8216 231
Width: 240
Flags: W
LayerCount: 2
Back
Fore
SplineSet
168 596 m 1,0,1
 201 574 201 574 201 534.5 c 128,-1,2
 201 495 201 495 177.5 472 c 128,-1,3
 154 449 154 449 118.5 449 c 128,-1,4
 83 449 83 449 59.5 471 c 128,-1,5
 36 493 36 493 36 528 c 128,-1,6
 36 563 36 563 58 597 c 2,7,-1
 131 703 l 1,8,-1
 213 703 l 1,9,-1
 168 596 l 1,0,1
EndSplineSet
EndChar

StartChar: quoteright
Encoding: 8217 8217 232
Width: 240
Flags: W
LayerCount: 2
Back
Fore
SplineSet
72 553 m 1,0,1
 39 575 39 575 39 614.5 c 128,-1,2
 39 654 39 654 62.5 677 c 128,-1,3
 86 700 86 700 121.5 700 c 128,-1,4
 157 700 157 700 180.5 678 c 128,-1,5
 204 656 204 656 204 621 c 128,-1,6
 204 586 204 586 182 552 c 2,7,-1
 109 446 l 1,8,-1
 27 446 l 1,9,-1
 72 553 l 1,0,1
EndSplineSet
EndChar

StartChar: quotesinglbase
Encoding: 8218 8218 233
Width: 240
Flags: W
LayerCount: 2
Back
Fore
SplineSet
72 11 m 1,0,1
 39 33 39 33 39 72.5 c 128,-1,2
 39 112 39 112 62.5 135 c 128,-1,3
 86 158 86 158 121.5 158 c 128,-1,4
 157 158 157 158 180.5 136 c 128,-1,5
 204 114 204 114 204 79 c 128,-1,6
 204 44 204 44 182 10 c 2,7,-1
 109 -96 l 1,8,-1
 27 -96 l 1,9,-1
 72 11 l 1,0,1
EndSplineSet
EndChar

StartChar: quotedblleft
Encoding: 8220 8220 234
Width: 425
Flags: W
LayerCount: 2
Back
Fore
SplineSet
168 596 m 1,0,1
 201 574 201 574 201 534.5 c 128,-1,2
 201 495 201 495 177.5 472 c 128,-1,3
 154 449 154 449 118.5 449 c 128,-1,4
 83 449 83 449 59.5 471 c 128,-1,5
 36 493 36 493 36 528 c 128,-1,6
 36 563 36 563 58 597 c 2,7,-1
 131 703 l 1,8,-1
 213 703 l 1,9,-1
 168 596 l 1,0,1
353 596 m 1,10,11
 386 574 386 574 386 534.5 c 128,-1,12
 386 495 386 495 362.5 472 c 128,-1,13
 339 449 339 449 303.5 449 c 128,-1,14
 268 449 268 449 244.5 471 c 128,-1,15
 221 493 221 493 221 528 c 128,-1,16
 221 563 221 563 243 597 c 2,17,-1
 316 703 l 1,18,-1
 398 703 l 1,19,-1
 353 596 l 1,10,11
EndSplineSet
EndChar

StartChar: quotedblright
Encoding: 8221 8221 235
Width: 425
Flags: W
LayerCount: 2
Back
Fore
SplineSet
72 553 m 1,0,1
 39 575 39 575 39 614.5 c 128,-1,2
 39 654 39 654 62.5 677 c 128,-1,3
 86 700 86 700 121.5 700 c 128,-1,4
 157 700 157 700 180.5 678 c 128,-1,5
 204 656 204 656 204 621 c 128,-1,6
 204 586 204 586 182 552 c 2,7,-1
 109 446 l 1,8,-1
 27 446 l 1,9,-1
 72 553 l 1,0,1
257 553 m 1,10,11
 224 575 224 575 224 614.5 c 128,-1,12
 224 654 224 654 247.5 677 c 128,-1,13
 271 700 271 700 306.5 700 c 128,-1,14
 342 700 342 700 365.5 678 c 128,-1,15
 389 656 389 656 389 621 c 128,-1,16
 389 586 389 586 367 552 c 2,17,-1
 294 446 l 1,18,-1
 212 446 l 1,19,-1
 257 553 l 1,10,11
EndSplineSet
EndChar

StartChar: quotedblbase
Encoding: 8222 8222 236
Width: 425
Flags: W
LayerCount: 2
Back
Fore
SplineSet
72 11 m 1,0,1
 39 33 39 33 39 72.5 c 128,-1,2
 39 112 39 112 62.5 135 c 128,-1,3
 86 158 86 158 121.5 158 c 128,-1,4
 157 158 157 158 180.5 136 c 128,-1,5
 204 114 204 114 204 79 c 128,-1,6
 204 44 204 44 182 10 c 2,7,-1
 109 -96 l 1,8,-1
 27 -96 l 1,9,-1
 72 11 l 1,0,1
257 11 m 1,10,11
 224 33 224 33 224 72.5 c 128,-1,12
 224 112 224 112 247.5 135 c 128,-1,13
 271 158 271 158 306.5 158 c 128,-1,14
 342 158 342 158 365.5 136 c 128,-1,15
 389 114 389 114 389 79 c 128,-1,16
 389 44 389 44 367 10 c 2,17,-1
 294 -96 l 1,18,-1
 212 -96 l 1,19,-1
 257 11 l 1,10,11
EndSplineSet
EndChar

StartChar: dagger
Encoding: 8224 8224 237
Width: 538
Flags: W
LayerCount: 2
Back
Fore
SplineSet
193 -185 m 1,0,-1
 193 373 l 1,1,-1
 35 373 l 1,2,-1
 35 503 l 1,3,-1
 193 503 l 1,4,-1
 193 699 l 1,5,-1
 338 699 l 1,6,-1
 338 503 l 1,7,-1
 503 503 l 1,8,-1
 503 373 l 1,9,-1
 338 373 l 1,10,-1
 338 -185 l 1,11,-1
 193 -185 l 1,0,-1
EndSplineSet
EndChar

StartChar: daggerdbl
Encoding: 8225 8225 238
Width: 534
Flags: W
LayerCount: 2
Back
Fore
SplineSet
339 373 m 1,0,-1
 339 182 l 1,1,-1
 438 182 l 1,2,-1
 438 71 l 1,3,-1
 339 71 l 1,4,-1
 339 -185 l 1,5,-1
 193 -185 l 1,6,-1
 193 71 l 1,7,-1
 91 71 l 1,8,-1
 91 182 l 1,9,-1
 193 182 l 1,10,-1
 193 373 l 1,11,-1
 38 373 l 1,12,-1
 38 503 l 1,13,-1
 193 503 l 1,14,-1
 193 699 l 1,15,-1
 339 699 l 1,16,-1
 339 503 l 1,17,-1
 497 503 l 1,18,-1
 497 373 l 1,19,-1
 339 373 l 1,0,-1
EndSplineSet
EndChar

StartChar: bullet
Encoding: 8226 8226 239
Width: 438
Flags: W
LayerCount: 2
Back
Fore
SplineSet
80 317 m 128,-1,1
 80 375 80 375 120.5 415.5 c 128,-1,2
 161 456 161 456 219 456 c 128,-1,3
 277 456 277 456 317.5 415.5 c 128,-1,4
 358 375 358 375 358 317 c 128,-1,5
 358 259 358 259 317.5 218.5 c 128,-1,6
 277 178 277 178 219 178 c 128,-1,7
 161 178 161 178 120.5 218.5 c 128,-1,0
 80 259 80 259 80 317 c 128,-1,1
EndSplineSet
EndChar

StartChar: ellipsis
Encoding: 8230 8230 240
Width: 701
Flags: W
LayerCount: 2
Back
Fore
SplineSet
468 79 m 128,-1,1
 468 116 468 116 493.5 141.5 c 128,-1,2
 519 167 519 167 556 167 c 128,-1,3
 593 167 593 167 618.5 141.5 c 128,-1,4
 644 116 644 116 644 79 c 128,-1,5
 644 42 644 42 618.5 16.5 c 128,-1,6
 593 -9 593 -9 556 -9 c 128,-1,7
 519 -9 519 -9 493.5 16.5 c 128,-1,0
 468 42 468 42 468 79 c 128,-1,1
262 79 m 128,-1,9
 262 116 262 116 287.5 141.5 c 128,-1,10
 313 167 313 167 350 167 c 128,-1,11
 387 167 387 167 412.5 141.5 c 128,-1,12
 438 116 438 116 438 79 c 128,-1,13
 438 42 438 42 412.5 16.5 c 128,-1,14
 387 -9 387 -9 350 -9 c 128,-1,15
 313 -9 313 -9 287.5 16.5 c 128,-1,8
 262 42 262 42 262 79 c 128,-1,9
57 79 m 128,-1,17
 57 116 57 116 82.5 141.5 c 128,-1,18
 108 167 108 167 145 167 c 128,-1,19
 182 167 182 167 207.5 141.5 c 128,-1,20
 233 116 233 116 233 79 c 128,-1,21
 233 42 233 42 207.5 16.5 c 128,-1,22
 182 -9 182 -9 145 -9 c 128,-1,23
 108 -9 108 -9 82.5 16.5 c 128,-1,16
 57 42 57 42 57 79 c 128,-1,17
EndSplineSet
EndChar

StartChar: perthousand
Encoding: 8240 8240 241
Width: 1117
Flags: W
LayerCount: 2
Back
Fore
SplineSet
724 699 m 1,0,-1
 223 0 l 1,1,-1
 51 0 l 1,2,-1
 553 699 l 1,3,-1
 724 699 l 1,0,-1
586 83 m 128,-1,5
 604 83 604 83 616 96.5 c 128,-1,6
 628 110 628 110 628 132 c 128,-1,7
 628 154 628 154 616 168.5 c 128,-1,8
 604 183 604 183 586.5 183 c 128,-1,9
 569 183 569 183 557 168.5 c 128,-1,10
 545 154 545 154 545 132 c 128,-1,11
 545 110 545 110 556.5 96.5 c 128,-1,4
 568 83 568 83 586 83 c 128,-1,5
692 32.5 m 128,-1,13
 650 -8 650 -8 586.5 -8 c 128,-1,14
 523 -8 523 -8 481 33 c 128,-1,15
 439 74 439 74 439 132.5 c 128,-1,16
 439 191 439 191 481 232 c 128,-1,17
 523 273 523 273 586.5 273 c 128,-1,18
 650 273 650 273 692 232 c 128,-1,19
 734 191 734 191 734 132 c 128,-1,12
 734 73 734 73 692 32.5 c 128,-1,13
192 492 m 128,-1,21
 210 492 210 492 222 505.5 c 128,-1,22
 234 519 234 519 234 541 c 128,-1,23
 234 563 234 563 222 577.5 c 128,-1,24
 210 592 210 592 192.5 592 c 128,-1,25
 175 592 175 592 163 577.5 c 128,-1,26
 151 563 151 563 151 541 c 128,-1,27
 151 519 151 519 162.5 505.5 c 128,-1,20
 174 492 174 492 192 492 c 128,-1,21
298 441.5 m 128,-1,29
 256 401 256 401 192.5 401 c 128,-1,30
 129 401 129 401 87 442 c 128,-1,31
 45 483 45 483 45 541.5 c 128,-1,32
 45 600 45 600 87 641 c 128,-1,33
 129 682 129 682 192.5 682 c 128,-1,34
 256 682 256 682 298 641 c 128,-1,35
 340 600 340 600 340 541 c 128,-1,28
 340 482 340 482 298 441.5 c 128,-1,29
935 83 m 128,-1,37
 953 83 953 83 965 96.5 c 128,-1,38
 977 110 977 110 977 132 c 128,-1,39
 977 154 977 154 965 168.5 c 128,-1,40
 953 183 953 183 935.5 183 c 128,-1,41
 918 183 918 183 906 168.5 c 128,-1,42
 894 154 894 154 894 132 c 128,-1,43
 894 110 894 110 905.5 96.5 c 128,-1,36
 917 83 917 83 935 83 c 128,-1,37
1041 32.5 m 128,-1,45
 999 -8 999 -8 935.5 -8 c 128,-1,46
 872 -8 872 -8 830 33 c 128,-1,47
 788 74 788 74 788 132.5 c 128,-1,48
 788 191 788 191 830 232 c 128,-1,49
 872 273 872 273 935.5 273 c 128,-1,50
 999 273 999 273 1041 232 c 128,-1,51
 1083 191 1083 191 1083 132 c 128,-1,44
 1083 73 1083 73 1041 32.5 c 128,-1,45
EndSplineSet
EndChar

StartChar: guilsinglleft
Encoding: 8249 8249 242
Width: 379
Flags: W
LayerCount: 2
Back
Fore
SplineSet
321 429 m 1,0,-1
 203 245 l 1,1,-1
 321 60 l 1,2,-1
 170 60 l 1,3,-1
 48 245 l 1,4,-1
 170 429 l 1,5,-1
 321 429 l 1,0,-1
EndSplineSet
EndChar

StartChar: guilsinglright
Encoding: 8250 8250 243
Width: 379
Flags: W
LayerCount: 2
Back
Fore
SplineSet
176 245 m 1,0,-1
 58 429 l 1,1,-1
 209 429 l 1,2,-1
 331 245 l 1,3,-1
 209 60 l 1,4,-1
 58 60 l 1,5,-1
 176 245 l 1,0,-1
EndSplineSet
EndChar

StartChar: fraction
Encoding: 8260 8260 244
Width: 662
Flags: W
LayerCount: 2
Back
Fore
SplineSet
668 698 m 1,0,-1
 166 0 l 1,1,-1
 -5 0 l 1,2,-1
 496 698 l 1,3,-1
 668 698 l 1,0,-1
EndSplineSet
EndChar

StartChar: Euro
Encoding: 8364 8364 245
Width: 766
Flags: W
LayerCount: 2
Back
Fore
SplineSet
46 380 m 1,0,-1
 46 464 l 1,1,-1
 143 464 l 1,2,3
 173 578 173 578 257.5 646.5 c 128,-1,4
 342 715 342 715 463 715 c 0,5,6
 613 715 613 715 720 594 c 1,7,-1
 631 478 l 1,8,9
 558 567 558 567 459 567 c 0,10,11
 347 567 347 567 304 464 c 1,12,-1
 537 464 l 1,13,-1
 537 380 l 1,14,-1
 286 380 l 1,15,16
 285 370 285 370 285 350 c 128,-1,17
 285 330 285 330 286 321 c 1,18,-1
 537 321 l 1,19,-1
 537 237 l 1,20,-1
 309 237 l 1,21,22
 333 190 333 190 374.5 165 c 128,-1,23
 416 140 416 140 466 140 c 0,24,25
 565 140 565 140 628 219 c 1,26,-1
 720 117 l 1,27,28
 666 54 666 54 595.5 23 c 128,-1,29
 525 -8 525 -8 455 -8 c 0,30,31
 342 -8 342 -8 258 58.5 c 128,-1,32
 174 125 174 125 143 237 c 1,33,-1
 46 237 l 1,34,-1
 46 321 l 1,35,-1
 130 321 l 1,36,37
 129 330 129 330 129 350 c 128,-1,38
 129 370 129 370 130 380 c 1,39,-1
 46 380 l 1,0,-1
EndSplineSet
EndChar

StartChar: trademark
Encoding: 8482 8482 246
Width: 990
Flags: W
LayerCount: 2
Back
Fore
SplineSet
289 596 m 1,0,-1
 289 277 l 1,1,-1
 179 277 l 1,2,-1
 179 596 l 1,3,-1
 63 596 l 1,4,-1
 63 699 l 1,5,-1
 405 699 l 1,6,-1
 405 596 l 1,7,-1
 289 596 l 1,0,-1
541 277 m 1,8,-1
 431 277 l 1,9,-1
 431 699 l 1,10,-1
 571 699 l 1,11,-1
 670 489 l 1,12,-1
 769 699 l 1,13,-1
 908 699 l 1,14,-1
 908 277 l 1,15,-1
 798 277 l 1,16,-1
 798 501 l 1,17,-1
 704 310 l 1,18,-1
 635 310 l 1,19,-1
 541 501 l 1,20,-1
 541 277 l 1,8,-1
EndSplineSet
EndChar

StartChar: Omega
Encoding: 8486 8486 247
Width: 900
Flags: W
LayerCount: 2
Back
Fore
SplineSet
450 715 m 128,-1,1
 612 715 612 715 713.5 615 c 128,-1,2
 815 515 815 515 815 376 c 128,-1,3
 815 237 815 237 699 138 c 1,4,-1
 846 138 l 1,5,-1
 846 0 l 1,6,-1
 488 0 l 1,7,-1
 488 132 l 1,8,9
 569 158 569 158 619 229 c 128,-1,10
 669 300 669 300 669 382 c 128,-1,11
 669 464 669 464 610.5 521.5 c 128,-1,12
 552 579 552 579 450 579 c 128,-1,13
 348 579 348 579 289.5 521.5 c 128,-1,14
 231 464 231 464 231 382 c 128,-1,15
 231 300 231 300 281 229 c 128,-1,16
 331 158 331 158 412 132 c 1,17,-1
 412 0 l 1,18,-1
 54 0 l 1,19,-1
 54 138 l 1,20,-1
 201 138 l 1,21,22
 85 237 85 237 85 376 c 128,-1,23
 85 515 85 515 186.5 615 c 128,-1,0
 288 715 288 715 450 715 c 128,-1,1
EndSplineSet
EndChar

StartChar: partialdiff
Encoding: 8706 8706 248
Width: 609
Flags: W
LayerCount: 2
Back
Fore
SplineSet
275 716 m 0,0,1
 393 716 393 716 473 624.5 c 128,-1,2
 553 533 553 533 553 359 c 0,3,4
 553 205 553 205 495 104 c 0,5,6
 465 51 465 51 411 21.5 c 128,-1,7
 357 -8 357 -8 284 -8 c 0,8,9
 181 -8 181 -8 112.5 63 c 128,-1,10
 44 134 44 134 44 236 c 128,-1,11
 44 338 44 338 111 391.5 c 128,-1,12
 178 445 178 445 268 445 c 128,-1,13
 358 445 358 445 413 397 c 1,14,15
 413 495 413 495 368 542 c 128,-1,16
 323 589 323 589 265.5 589 c 128,-1,17
 208 589 208 589 154 553 c 1,18,-1
 83 651 l 1,19,20
 173 716 173 716 275 716 c 0,0,1
279 315 m 0,21,22
 241 315 241 315 215.5 292 c 128,-1,23
 190 269 190 269 190 226 c 128,-1,24
 190 183 190 183 215.5 157 c 128,-1,25
 241 131 241 131 287 131 c 128,-1,26
 333 131 333 131 364.5 165 c 128,-1,27
 396 199 396 199 398 260 c 1,28,29
 348 315 348 315 279 315 c 0,21,22
EndSplineSet
EndChar

StartChar: Delta
Encoding: 8710 8710 249
Width: 803
Flags: W
LayerCount: 2
Back
Fore
SplineSet
472 698 m 1,0,-1
 773 0 l 1,1,-1
 30 0 l 1,2,-1
 331 698 l 1,3,-1
 472 698 l 1,0,-1
255 136 m 1,4,-1
 547 136 l 1,5,-1
 401 471 l 1,6,-1
 255 136 l 1,4,-1
EndSplineSet
EndChar

StartChar: product
Encoding: 8719 8719 250
Width: 788
Flags: W
LayerCount: 2
Back
Fore
SplineSet
705 -212 m 1,0,-1
 543 -212 l 1,1,-1
 543 648 l 1,2,-1
 245 648 l 1,3,-1
 245 -212 l 1,4,-1
 83 -212 l 1,5,-1
 83 788 l 1,6,-1
 705 788 l 1,7,-1
 705 -212 l 1,0,-1
EndSplineSet
EndChar

StartChar: summation
Encoding: 8721 8721 251
Width: 710
Flags: W
LayerCount: 2
Back
Fore
SplineSet
669 -195 m 1,0,-1
 38 -195 l 1,1,-1
 38 -91 l 1,2,-1
 319 296 l 1,3,-1
 51 678 l 1,4,-1
 51 783 l 1,5,-1
 650 783 l 1,6,-1
 650 643 l 1,7,-1
 268 643 l 1,8,-1
 506 297 l 1,9,-1
 250 -55 l 1,10,-1
 669 -55 l 1,11,-1
 669 -195 l 1,0,-1
EndSplineSet
EndChar

StartChar: minus
Encoding: 8722 8722 252
Width: 582
Flags: W
LayerCount: 2
Back
Fore
SplineSet
48 411 m 1,0,-1
 534 411 l 1,1,-1
 534 288 l 1,2,-1
 48 288 l 1,3,-1
 48 411 l 1,0,-1
EndSplineSet
EndChar

StartChar: radical
Encoding: 8730 8730 253
Width: 722
Flags: W
LayerCount: 2
Back
Fore
SplineSet
24 296 m 1,0,-1
 24 423 l 1,1,-1
 237 423 l 1,2,-1
 348 67 l 1,3,-1
 567 757 l 1,4,-1
 720 757 l 1,5,-1
 427 -156 l 1,6,-1
 267 -156 l 1,7,-1
 123 296 l 1,8,-1
 24 296 l 1,0,-1
EndSplineSet
EndChar

StartChar: infinity
Encoding: 8734 8734 254
Width: 857
Flags: W
LayerCount: 2
Back
Fore
SplineSet
245 453 m 0,0,1
 342 453 342 453 428 354 c 1,2,3
 514 453 514 453 611 453 c 0,4,5
 693 453 693 453 741.5 399.5 c 128,-1,6
 790 346 790 346 790 265 c 128,-1,7
 790 184 790 184 740 131 c 128,-1,8
 690 78 690 78 607 78 c 0,9,10
 551 78 551 78 511 101.5 c 128,-1,11
 471 125 471 125 428 171 c 1,12,13
 385 125 385 125 345 101.5 c 128,-1,14
 305 78 305 78 249 78 c 0,15,16
 166 78 166 78 116 131 c 128,-1,17
 66 184 66 184 66 265 c 128,-1,18
 66 346 66 346 115 399.5 c 128,-1,19
 164 453 164 453 245 453 c 0,0,1
248 199 m 0,20,21
 287 199 287 199 347 263 c 1,22,23
 281 334 281 334 245 334 c 0,24,25
 224 334 224 334 210.5 315 c 128,-1,26
 197 296 197 296 197 267.5 c 128,-1,27
 197 239 197 239 211 219 c 128,-1,28
 225 199 225 199 248 199 c 0,20,21
611 334 m 0,29,30
 576 334 576 334 510 263 c 1,31,32
 568 199 568 199 608 199 c 0,33,34
 631 199 631 199 645 219 c 128,-1,35
 659 239 659 239 659 267.5 c 128,-1,36
 659 296 659 296 646 315 c 128,-1,37
 633 334 633 334 611 334 c 0,29,30
EndSplineSet
EndChar

StartChar: integral
Encoding: 8747 8747 255
Width: 436
Flags: W
LayerCount: 2
Back
Fore
SplineSet
355 730 m 0,0,1
 317 730 317 730 301.5 698 c 128,-1,2
 286 666 286 666 286 598.5 c 128,-1,3
 286 531 286 531 293 373.5 c 128,-1,4
 300 216 300 216 300 109 c 0,5,6
 300 -162 300 -162 115 -162 c 0,7,8
 91 -162 91 -162 58.5 -154 c 128,-1,9
 26 -146 26 -146 10 -137 c 1,10,-1
 31 -18 l 1,11,12
 65 -35 65 -35 91 -35 c 0,13,14
 130 -35 130 -35 147 4 c 128,-1,15
 164 43 164 43 164 126.5 c 128,-1,16
 164 210 164 210 156.5 351 c 128,-1,17
 149 492 149 492 149 572 c 128,-1,18
 149 652 149 652 157 697.5 c 128,-1,19
 165 743 165 743 184 781 c 0,20,21
 225 859 225 859 332 859 c 0,22,23
 385 859 385 859 423 838 c 1,24,-1
 406 720 l 1,25,26
 375 730 375 730 355 730 c 0,0,1
EndSplineSet
EndChar

StartChar: approxequal
Encoding: 8776 8776 256
Width: 672
Flags: W
LayerCount: 2
Back
Fore
SplineSet
262 263 m 0,0,1
 221 263 221 263 222 194 c 1,2,-1
 81 194 l 1,3,4
 81 293 81 293 124.5 350.5 c 128,-1,5
 168 408 168 408 236 408 c 0,6,7
 280 408 280 408 338.5 371.5 c 128,-1,8
 397 335 397 335 412 335 c 0,9,10
 452 335 452 335 452 398 c 0,11,12
 452 401 452 401 452 404 c 2,13,-1
 593 404 l 1,14,15
 593 304 593 304 550 247 c 128,-1,16
 507 190 507 190 439 190 c 0,17,18
 406 190 406 190 383 201 c 128,-1,19
 360 212 360 212 346 220.5 c 128,-1,20
 332 229 332 229 317.5 237.5 c 128,-1,21
 303 246 303 246 296 250 c 0,22,23
 275 263 275 263 262 263 c 0,0,1
262 504 m 0,24,25
 221 504 221 504 222 435 c 1,26,-1
 81 435 l 1,27,28
 81 534 81 534 124.5 591.5 c 128,-1,29
 168 649 168 649 236 649 c 0,30,31
 280 649 280 649 338.5 612.5 c 128,-1,32
 397 576 397 576 412 576 c 0,33,34
 452 576 452 576 452 639 c 0,35,36
 452 642 452 642 452 645 c 2,37,-1
 593 645 l 1,38,39
 593 545 593 545 550 488 c 128,-1,40
 507 431 507 431 439 431 c 0,41,42
 406 431 406 431 383 442 c 128,-1,43
 360 453 360 453 346 461.5 c 128,-1,44
 332 470 332 470 317.5 478.5 c 128,-1,45
 303 487 303 487 296 492 c 0,46,47
 275 504 275 504 262 504 c 0,24,25
EndSplineSet
EndChar

StartChar: notequal
Encoding: 8800 8800 257
Width: 645
Flags: W
LayerCount: 2
Back
Fore
SplineSet
63 426 m 1,0,-1
 63 547 l 1,1,-1
 325 547 l 1,2,-1
 395 699 l 1,3,-1
 537 699 l 1,4,-1
 467 547 l 1,5,-1
 580 547 l 1,6,-1
 580 426 l 1,7,-1
 412 426 l 1,8,-1
 370 335 l 1,9,-1
 580 335 l 1,10,-1
 580 214 l 1,11,-1
 315 214 l 1,12,-1
 245 61 l 1,13,-1
 104 61 l 1,14,-1
 174 214 l 1,15,-1
 63 214 l 1,16,-1
 63 335 l 1,17,-1
 229 335 l 1,18,-1
 270 426 l 1,19,-1
 63 426 l 1,0,-1
EndSplineSet
EndChar

StartChar: lessequal
Encoding: 8804 8804 258
Width: 621
Flags: W
LayerCount: 2
Back
Fore
SplineSet
62 326 m 1,0,-1
 62 463 l 1,1,-1
 548 692 l 1,2,-1
 548 545 l 1,3,-1
 227 397 l 1,4,-1
 548 245 l 1,5,-1
 548 97 l 1,6,-1
 62 326 l 1,0,-1
62 -70 m 1,7,-1
 62 51 l 1,8,-1
 549 51 l 1,9,-1
 549 -70 l 1,10,-1
 62 -70 l 1,7,-1
EndSplineSet
EndChar

StartChar: greaterequal
Encoding: 8805 8805 259
Width: 621
Flags: W
LayerCount: 2
Back
Fore
SplineSet
559 463 m 1,0,-1
 559 326 l 1,1,-1
 73 97 l 1,2,-1
 73 245 l 1,3,-1
 394 397 l 1,4,-1
 73 545 l 1,5,-1
 73 692 l 1,6,-1
 559 463 l 1,0,-1
559 51 m 1,7,-1
 559 -70 l 1,8,-1
 72 -70 l 1,9,-1
 72 51 l 1,10,-1
 559 51 l 1,7,-1
EndSplineSet
EndChar

StartChar: lozenge
Encoding: 9674 9674 260
Width: 636
Flags: W
LayerCount: 2
Back
Fore
SplineSet
84 33 m 1,0,-1
 84 468 l 1,1,-1
 552 468 l 1,2,-1
 552 33 l 1,3,-1
 84 33 l 1,0,-1
EndSplineSet
EndChar

StartChar: fi
Encoding: 64257 64257 261
Width: 694
Flags: W
LayerCount: 2
Back
Fore
SplineSet
250 569 m 2,0,-1
 250 533 l 1,1,-1
 380 533 l 1,2,-1
 380 425 l 1,3,-1
 250 425 l 1,4,-1
 250 0 l 1,5,-1
 99 0 l 1,6,-1
 99 425 l 1,7,-1
 36 425 l 1,8,-1
 36 533 l 1,9,-1
 99 533 l 1,10,-1
 99 566 l 2,11,12
 99 654 99 654 152.5 705.5 c 128,-1,13
 206 757 206 757 285.5 757 c 128,-1,14
 365 757 365 757 430 697 c 1,15,-1
 376 596 l 1,16,17
 343 634 343 634 303 634 c 0,18,19
 280 634 280 634 265 617.5 c 128,-1,20
 250 601 250 601 250 569 c 2,0,-1
623 0 m 1,21,-1
 473 0 l 1,22,-1
 473 538 l 1,23,-1
 623 538 l 1,24,-1
 623 0 l 1,21,-1
460 669 m 128,-1,26
 460 706 460 706 485.5 731.5 c 128,-1,27
 511 757 511 757 548 757 c 128,-1,28
 585 757 585 757 610.5 731.5 c 128,-1,29
 636 706 636 706 636 669 c 128,-1,30
 636 632 636 632 610.5 606.5 c 128,-1,31
 585 581 585 581 548 581 c 128,-1,32
 511 581 511 581 485.5 606.5 c 128,-1,25
 460 632 460 632 460 669 c 128,-1,26
EndSplineSet
EndChar

StartChar: fl
Encoding: 64258 64258 262
Width: 694
Flags: W
LayerCount: 2
Back
Fore
SplineSet
250 569 m 2,0,-1
 250 533 l 1,1,-1
 380 533 l 1,2,-1
 380 425 l 1,3,-1
 250 425 l 1,4,-1
 250 0 l 1,5,-1
 99 0 l 1,6,-1
 99 425 l 1,7,-1
 36 425 l 1,8,-1
 36 533 l 1,9,-1
 99 533 l 1,10,-1
 99 566 l 2,11,12
 99 654 99 654 152.5 705.5 c 128,-1,13
 206 757 206 757 285.5 757 c 128,-1,14
 365 757 365 757 430 697 c 1,15,-1
 376 596 l 1,16,17
 343 634 343 634 303 634 c 0,18,19
 280 634 280 634 265 617.5 c 128,-1,20
 250 601 250 601 250 569 c 2,0,-1
623 0 m 1,21,-1
 473 0 l 1,22,-1
 473 742 l 1,23,-1
 623 742 l 1,24,-1
 623 0 l 1,21,-1
EndSplineSet
EndChar
